;TYPE=PLATED
;Layer: PTH_Through
;EasyEDA Pro Client v2.2.36.7, 2025-07-16 21:13:33
;Gerber Generator version 0.3
M48
METRIC,LZ,0000.00000
;Hole size 1 = 0.30500 METRIC
T01C0.30500
;Hole size 2 = 0.88900 METRIC
T02C0.88900
;Hole size 3 = 1.10002 METRIC
T03C1.10002
;Hole size 4 = 1.80000 METRIC
T04C1.80000
;Hole size 5 = 2.20000 METRIC
T05C2.20000
%
G05
G90
T01
X0.86106Y-16.383
X-2.921Y-10.287
X-2.921Y-4.191
X-0.127Y6.096
X-3.81Y8.382
X-3.683Y16.764
X-10.15238Y7.80034
X-0.8255Y12.1285
X-1.905Y13.208
X4.318Y18.5105
X1.48082Y11.176
X3.74868Y-8.763
X4.59994Y-14.986
X-8.128Y-15.367
T02
X8.66905Y-6.15394
X8.66905Y-8.69394
X8.66905Y-3.61389
X8.66905Y-1.07394
X8.66905Y-18.42468
X8.66905Y-20.96468
X8.66905Y-15.88463
X8.66905Y-13.34468
X-11.43008Y1.44587
X-11.43008Y-1.09413
X-11.43008Y-8.71413
X-11.43008Y-11.25413
X-11.43008Y-13.79413
X-11.43008Y-16.33413
X-11.43008Y-18.87413
X-11.43008Y-21.41413
X11.42992Y-21.41413
X11.42992Y-18.87413
X11.42992Y-16.33413
X11.42992Y-13.77635
X11.42992Y-11.23635
X11.42992Y-8.69635
X11.42992Y-6.15635
X11.42992Y-3.61635
X11.42992Y-1.07635
X11.42992Y1.46365
X11.42992Y4.00365
X11.42992Y6.54365
X11.42992Y9.08365
X11.42992Y11.62365
X11.42992Y14.16365
X11.43Y16.70365
X-11.43008Y3.98587
X-11.43008Y6.52587
X-11.43008Y9.06587
X-11.43008Y11.60587
X-11.42985Y16.68587
X-11.42985Y14.14587
X-7.49936Y16.20076
X-7.49936Y13.66076
X-7.49936Y11.12076
X-7.49936Y8.58076
X-7.49936Y6.04076
X-7.49936Y3.50076
X-7.49936Y0.96076
X7.74064Y0.96076
X7.74064Y3.50076
X7.74064Y6.04076
X7.74064Y8.58076
X7.74064Y11.12076
X7.74064Y13.66076
X7.74064Y16.20076
T03
X5.62686Y14.78598
X-5.37312Y14.78598
T04
X-2.37312Y4.78597
X2.62687Y4.78597
T05
X-12.7Y20.447
X12.7Y20.447
X12.7Y-25.146
X-12.7Y-25.146
M30