G04 Layer: BottomLayer*
G04 EasyEDA Pro v2.2.36.7, 2025-07-16 21:13:32*
G04 Gerber Generator version 0.3*
G04 Scale: 100 percent, Rotated: No, Reflected: No*
G04 Dimensions in millimeters*
G04 Leading zeros omitted, absolute positions, 4 integers and 5 decimals*
%FSLAX45Y45*%
%MOMM*%
%ADD10C,0.2032*%
%ADD11C,0.254*%
%ADD12C,2.9*%
%ADD13C,2.49999*%
%ADD14C,1.8*%
%ADD15C,1.5748*%
%ADD16C,1.524*%
%ADD17C,0.6110*%
%ADD18C,0.61*%
%ADD19C,0.762*%
%ADD20C,1.27*%
%ADD21C,1.016*%
G75*


G04 Copper Start*
G36*
G01X-1488186Y2198700D02*
G01X-1486577Y2212983D01*
G01X-1481830Y2226549D01*
G01X-1474183Y2238719D01*
G01X-1464019Y2248883D01*
G01X-1451849Y2256530D01*
G01X-1438283Y2261277D01*
G01X-1424000Y2262886D01*
G01X1424000Y2262886D01*
G01X1438283Y2261277D01*
G01X1451849Y2256530D01*
G01X1464019Y2248883D01*
G01X1474183Y2238719D01*
G01X1481830Y2226549D01*
G01X1486577Y2212983D01*
G01X1488186Y2198700D01*
G01X1488186Y-2668600D01*
G01X1486577Y-2682883D01*
G01X1481830Y-2696449D01*
G01X1474183Y-2708619D01*
G01X1464019Y-2718783D01*
G01X1451849Y-2726430D01*
G01X1438283Y-2731177D01*
G01X1424000Y-2732786D01*
G01X-1424000Y-2732786D01*
G01X-1438283Y-2731177D01*
G01X-1451849Y-2726430D01*
G01X-1464019Y-2718783D01*
G01X-1474183Y-2708619D01*
G01X-1481830Y-2696449D01*
G01X-1486577Y-2682883D01*
G01X-1488186Y-2668600D01*
G01X-1488186Y-2514600D01*
G01X-1450814Y-2514600D01*
G01X-1448794Y-2541549D01*
G01X-1442781Y-2567896D01*
G01X-1432908Y-2593052D01*
G01X-1419396Y-2616456D01*
G01X-1402546Y-2637585D01*
G01X-1382736Y-2655966D01*
G01X-1360407Y-2671189D01*
G01X-1336059Y-2682915D01*
G01X-1310235Y-2690881D01*
G01X-1283512Y-2694908D01*
G01X-1256488Y-2694908D01*
G01X-1229765Y-2690881D01*
G01X-1203941Y-2682915D01*
G01X-1179593Y-2671189D01*
G01X-1157264Y-2655966D01*
G01X-1137454Y-2637585D01*
G01X-1120604Y-2616456D01*
G01X-1107092Y-2593052D01*
G01X-1097219Y-2567896D01*
G01X-1091206Y-2541549D01*
G01X-1089186Y-2514600D01*
G01X-1089186Y-2514600D01*
G01X1089186Y-2514600D01*
G01X1091206Y-2541549D01*
G01X1097219Y-2567896D01*
G01X1107092Y-2593052D01*
G01X1120604Y-2616456D01*
G01X1137454Y-2637585D01*
G01X1157264Y-2655966D01*
G01X1179593Y-2671189D01*
G01X1203941Y-2682915D01*
G01X1229765Y-2690881D01*
G01X1256488Y-2694908D01*
G01X1283512Y-2694908D01*
G01X1310235Y-2690881D01*
G01X1336059Y-2682915D01*
G01X1360407Y-2671189D01*
G01X1382736Y-2655966D01*
G01X1402546Y-2637585D01*
G01X1419396Y-2616456D01*
G01X1432908Y-2593052D01*
G01X1442781Y-2567896D01*
G01X1448794Y-2541549D01*
G01X1450814Y-2514600D01*
G01X1448794Y-2487651D01*
G01X1442781Y-2461304D01*
G01X1432908Y-2436148D01*
G01X1419396Y-2412744D01*
G01X1402546Y-2391615D01*
G01X1382736Y-2373234D01*
G01X1360407Y-2358011D01*
G01X1336059Y-2346285D01*
G01X1310235Y-2338319D01*
G01X1283512Y-2334292D01*
G01X1256488Y-2334292D01*
G01X1229765Y-2338319D01*
G01X1203941Y-2346285D01*
G01X1179593Y-2358011D01*
G01X1157264Y-2373234D01*
G01X1137454Y-2391615D01*
G01X1120604Y-2412744D01*
G01X1107092Y-2436148D01*
G01X1097219Y-2461304D01*
G01X1091206Y-2487651D01*
G01X1089186Y-2514600D01*
G01X1089186Y-2514600D01*
G01X-1089186Y-2514600D01*
G01X-1091206Y-2487651D01*
G01X-1097219Y-2461304D01*
G01X-1107092Y-2436148D01*
G01X-1120604Y-2412744D01*
G01X-1137454Y-2391615D01*
G01X-1157264Y-2373234D01*
G01X-1179593Y-2358011D01*
G01X-1203941Y-2346285D01*
G01X-1229765Y-2338319D01*
G01X-1256488Y-2334292D01*
G01X-1283512Y-2334292D01*
G01X-1310235Y-2338319D01*
G01X-1336059Y-2346285D01*
G01X-1360407Y-2358011D01*
G01X-1382736Y-2373234D01*
G01X-1402546Y-2391615D01*
G01X-1419396Y-2412744D01*
G01X-1432908Y-2436148D01*
G01X-1442781Y-2461304D01*
G01X-1448794Y-2487651D01*
G01X-1450814Y-2514600D01*
G01X-1450814Y-2514600D01*
G01X-1488186Y-2514600D01*
G01X-1488186Y-1883456D01*
G01X-1257486Y-1883456D01*
G01X-1256213Y-1904890D01*
G01X-1250963Y-1925710D01*
G01X-1241920Y-1945185D01*
G01X-1229401Y-1962629D01*
G01X-1213847Y-1977432D01*
G01X-1195804Y-1989071D01*
G01X-1175906Y-1997139D01*
G01X-1154851Y-2001352D01*
G01X-1133381Y-2001562D01*
G01X-1099506Y-2035437D01*
G01X-1119523Y-2029291D01*
G01X-1140324Y-2026890D01*
G01X-1161214Y-2028316D01*
G01X-1181496Y-2033521D01*
G01X-1200492Y-2042331D01*
G01X-1217567Y-2054451D01*
G01X-1232150Y-2069476D01*
G01X-1243755Y-2086905D01*
G01X-1251993Y-2106156D01*
G01X-1256590Y-2126584D01*
G01X-1257392Y-2147507D01*
G01X-1254371Y-2168228D01*
G01X-1247630Y-2188052D01*
G01X-1237393Y-2206318D01*
G01X-1224002Y-2222415D01*
G01X-1207905Y-2235806D01*
G01X-1189639Y-2246043D01*
G01X-1169814Y-2252785D01*
G01X-1149094Y-2255805D01*
G01X-1128171Y-2255003D01*
G01X-1107742Y-2250406D01*
G01X-1088492Y-2242168D01*
G01X-1071063Y-2230563D01*
G01X-1056038Y-2215980D01*
G01X-1043918Y-2198905D01*
G01X-1035108Y-2179909D01*
G01X-1029903Y-2159627D01*
G01X-1028477Y-2138737D01*
G01X-1030878Y-2117936D01*
G01X-1037024Y-2097919D01*
G01X-986198Y-2148746D01*
G01X-974997Y-2157938D01*
G01X-962218Y-2164768D01*
G01X-948353Y-2168974D01*
G01X-933933Y-2170394D01*
G01X779384Y-2170394D01*
G01X794715Y-2185428D01*
G01X812582Y-2197336D01*
G01X832357Y-2205702D01*
G01X853346Y-2210229D01*
G01X874811Y-2210761D01*
G01X895998Y-2207278D01*
G01X916163Y-2199902D01*
G01X934597Y-2188892D01*
G01X950653Y-2174636D01*
G01X963767Y-2157634D01*
G01X971992Y-2141413D01*
G01X1028446Y-2141413D01*
G01X1030396Y-2162462D01*
G01X1036182Y-2182795D01*
G01X1045604Y-2201718D01*
G01X1058344Y-2218588D01*
G01X1073966Y-2232829D01*
G01X1091939Y-2243958D01*
G01X1111651Y-2251594D01*
G01X1132430Y-2255478D01*
G01X1153570Y-2255478D01*
G01X1174349Y-2251594D01*
G01X1194061Y-2243958D01*
G01X1212034Y-2232829D01*
G01X1227656Y-2218588D01*
G01X1240396Y-2201718D01*
G01X1249818Y-2182795D01*
G01X1255604Y-2162462D01*
G01X1257554Y-2141413D01*
G01X1257554Y-2141413D01*
G01X1255604Y-2120364D01*
G01X1249818Y-2100031D01*
G01X1240396Y-2081108D01*
G01X1227656Y-2064239D01*
G01X1212034Y-2049997D01*
G01X1194061Y-2038869D01*
G01X1174349Y-2031232D01*
G01X1153570Y-2027348D01*
G01X1132430Y-2027348D01*
G01X1111651Y-2031232D01*
G01X1091939Y-2038869D01*
G01X1073966Y-2049997D01*
G01X1058344Y-2064239D01*
G01X1045604Y-2081108D01*
G01X1036182Y-2100031D01*
G01X1030396Y-2120364D01*
G01X1028446Y-2141413D01*
G01X971992Y-2141413D01*
G01X973478Y-2138484D01*
G01X979444Y-2117858D01*
G01X981456Y-2096480D01*
G01X979444Y-2075103D01*
G01X973478Y-2054477D01*
G01X963767Y-2035327D01*
G01X950653Y-2018325D01*
G01X934597Y-2004069D01*
G01X916163Y-1993059D01*
G01X895998Y-1985683D01*
G01X874811Y-1982200D01*
G01X853346Y-1982731D01*
G01X832357Y-1987259D01*
G01X812582Y-1995624D01*
G01X794715Y-2007533D01*
G01X779384Y-2022566D01*
G01X-903316Y-2022566D01*
G01X-903316Y-2022566D01*
G01X-1028851Y-1897032D01*
G01X-1029061Y-1875562D01*
G01X-1033274Y-1854507D01*
G01X-1041342Y-1834609D01*
G01X-1043083Y-1831911D01*
G01X752837Y-1831911D01*
G01X752837Y-1853050D01*
G01X756721Y-1873830D01*
G01X764357Y-1893542D01*
G01X775486Y-1911515D01*
G01X789727Y-1927137D01*
G01X806597Y-1939876D01*
G01X825520Y-1949299D01*
G01X845853Y-1955084D01*
G01X866902Y-1957034D01*
G01X866902Y-1957034D01*
G01X887951Y-1955084D01*
G01X908284Y-1949299D01*
G01X927207Y-1939876D01*
G01X944077Y-1927137D01*
G01X958318Y-1911515D01*
G01X969447Y-1893542D01*
G01X971821Y-1887413D01*
G01X1028446Y-1887413D01*
G01X1030396Y-1908462D01*
G01X1036182Y-1928795D01*
G01X1045604Y-1947718D01*
G01X1058344Y-1964588D01*
G01X1073966Y-1978829D01*
G01X1091939Y-1989958D01*
G01X1111651Y-1997594D01*
G01X1132430Y-2001478D01*
G01X1153570Y-2001478D01*
G01X1174349Y-1997594D01*
G01X1194061Y-1989958D01*
G01X1212034Y-1978829D01*
G01X1227656Y-1964588D01*
G01X1240396Y-1947718D01*
G01X1249818Y-1928795D01*
G01X1255604Y-1908462D01*
G01X1257554Y-1887413D01*
G01X1257554Y-1887413D01*
G01X1255604Y-1866364D01*
G01X1249818Y-1846031D01*
G01X1240396Y-1827108D01*
G01X1227656Y-1810239D01*
G01X1212034Y-1795997D01*
G01X1194061Y-1784869D01*
G01X1174349Y-1777232D01*
G01X1153570Y-1773348D01*
G01X1132430Y-1773348D01*
G01X1111651Y-1777232D01*
G01X1091939Y-1784869D01*
G01X1073966Y-1795997D01*
G01X1058344Y-1810239D01*
G01X1045604Y-1827108D01*
G01X1036182Y-1846031D01*
G01X1030396Y-1866364D01*
G01X1028446Y-1887413D01*
G01X971821Y-1887413D01*
G01X977083Y-1873830D01*
G01X980967Y-1853050D01*
G01X980967Y-1831911D01*
G01X977083Y-1811131D01*
G01X969447Y-1791419D01*
G01X958318Y-1773446D01*
G01X944077Y-1757824D01*
G01X927207Y-1745085D01*
G01X908284Y-1735662D01*
G01X887951Y-1729877D01*
G01X866902Y-1727926D01*
G01X845853Y-1729877D01*
G01X825520Y-1735662D01*
G01X806597Y-1745085D01*
G01X789727Y-1757824D01*
G01X775486Y-1773446D01*
G01X764357Y-1791419D01*
G01X756721Y-1811131D01*
G01X752837Y-1831911D01*
G01X-1043083Y-1831911D01*
G01X-1052982Y-1816566D01*
G01X-1067784Y-1801012D01*
G01X-1085229Y-1788494D01*
G01X-1104703Y-1779450D01*
G01X-1125523Y-1774200D01*
G01X-1146957Y-1772927D01*
G01X-1168252Y-1775677D01*
G01X-1188659Y-1782352D01*
G01X-1207463Y-1792718D01*
G01X-1224002Y-1806411D01*
G01X-1237695Y-1822950D01*
G01X-1248061Y-1841754D01*
G01X-1254736Y-1862161D01*
G01X-1257486Y-1883456D01*
G01X-1488186Y-1883456D01*
G01X-1488186Y-1417500D01*
G01X-1460270Y-1417500D01*
G01X-1460270Y-1587500D01*
G01X-1458621Y-1604241D01*
G01X-1453738Y-1620340D01*
G01X-1445808Y-1635176D01*
G01X-1435136Y-1648180D01*
G01X-1422132Y-1658852D01*
G01X-1407296Y-1666782D01*
G01X-1391198Y-1671665D01*
G01X-1374456Y-1673314D01*
G01X-1334456Y-1673314D01*
G01X-1318540Y-1671825D01*
G01X-1303176Y-1667410D01*
G01X-1288897Y-1660222D01*
G01X-1276200Y-1650510D01*
G01X-1265524Y-1638612D01*
G01X-1257240Y-1624940D01*
G01X-1256833Y-1646243D01*
G01X-1252488Y-1667102D01*
G01X-1244356Y-1686795D01*
G01X-1232717Y-1704642D01*
G01X-1217974Y-1720025D01*
G01X-1200637Y-1732411D01*
G01X-1181307Y-1741372D01*
G01X-1160651Y-1746599D01*
G01X-1139385Y-1747910D01*
G01X-1118243Y-1745260D01*
G01X-1097958Y-1738741D01*
G01X-1079232Y-1728577D01*
G01X-1062711Y-1715122D01*
G01X-1048968Y-1698840D01*
G01X-1038478Y-1680294D01*
G01X-1031604Y-1660127D01*
G01X-1028584Y-1639035D01*
G01X-1029522Y-1617749D01*
G01X-1034386Y-1597005D01*
G01X-1043007Y-1577520D01*
G01X-1055087Y-1559969D01*
G01X-1070209Y-1544959D01*
G01X-1087849Y-1533009D01*
G01X-1107397Y-1524532D01*
G01X-1128177Y-1519822D01*
G01X-1149469Y-1519042D01*
G01X-1170538Y-1522218D01*
G01X-1190654Y-1529241D01*
G01X-1209121Y-1539868D01*
G01X-1225301Y-1553731D01*
G01X-1238634Y-1570351D01*
G01X-1248658Y-1589153D01*
G01X-1248642Y-1587500D01*
G01X-1248642Y-1423712D01*
G01X-1238758Y-1442287D01*
G01X-1225642Y-1458741D01*
G01X-1209739Y-1472518D01*
G01X-1191583Y-1483155D01*
G01X-1171789Y-1490291D01*
G01X-1151023Y-1493686D01*
G01X-1129986Y-1493225D01*
G01X-1109389Y-1488925D01*
G01X-1089925Y-1480930D01*
G01X-1072253Y-1469510D01*
G01X-1056967Y-1455050D01*
G01X-1044584Y-1438038D01*
G01X-1035521Y-1419048D01*
G01X-1030085Y-1398721D01*
G01X-1028458Y-1377742D01*
G01X-1030696Y-1356820D01*
G01X-1036724Y-1336659D01*
G01X-1046337Y-1317941D01*
G01X-1059212Y-1301296D01*
G01X-1074915Y-1287288D01*
G01X-1092914Y-1276388D01*
G01X-1112604Y-1268964D01*
G01X-1133319Y-1265266D01*
G01X-1154362Y-1265420D01*
G01X-1175021Y-1269420D01*
G01X-1194600Y-1277132D01*
G01X-1212438Y-1288294D01*
G01X-1227933Y-1302531D01*
G01X-1240564Y-1319361D01*
G01X-1249902Y-1338218D01*
G01X-1255635Y-1358465D01*
G01X-1257567Y-1379419D01*
G01X-1265892Y-1365914D01*
G01X-1276561Y-1354172D01*
G01X-1289209Y-1344595D01*
G01X-1303403Y-1337508D01*
G01X-1318659Y-1333156D01*
G01X-1334456Y-1331686D01*
G01X-1334456Y-1331686D01*
G01X-1374456Y-1331686D01*
G01X-1391198Y-1333335D01*
G01X-1407296Y-1338218D01*
G01X-1422132Y-1346148D01*
G01X-1435136Y-1356820D01*
G01X-1445808Y-1369824D01*
G01X-1453738Y-1384660D01*
G01X-1458621Y-1400758D01*
G01X-1460270Y-1417500D01*
G01X-1488186Y-1417500D01*
G01X-1488186Y-1125413D01*
G01X-1257554Y-1125413D01*
G01X-1255604Y-1146462D01*
G01X-1249818Y-1166795D01*
G01X-1240396Y-1185718D01*
G01X-1227656Y-1202588D01*
G01X-1212034Y-1216829D01*
G01X-1194061Y-1227958D01*
G01X-1174349Y-1235594D01*
G01X-1153570Y-1239478D01*
G01X-1132430Y-1239478D01*
G01X-1111651Y-1235594D01*
G01X-1091939Y-1227958D01*
G01X-1073966Y-1216829D01*
G01X-1058344Y-1202588D01*
G01X-1045604Y-1185718D01*
G01X-1036182Y-1166795D01*
G01X-1030396Y-1146462D01*
G01X-1028446Y-1125413D01*
G01X-1028446Y-1125413D01*
G01X-1030396Y-1104364D01*
G01X-1036182Y-1084031D01*
G01X-1045604Y-1065108D01*
G01X-1058344Y-1048239D01*
G01X-1073966Y-1033997D01*
G01X-1091939Y-1022869D01*
G01X-1111651Y-1015232D01*
G01X-1132430Y-1011348D01*
G01X-1153570Y-1011348D01*
G01X-1174349Y-1015232D01*
G01X-1194061Y-1022869D01*
G01X-1212034Y-1033997D01*
G01X-1227656Y-1048239D01*
G01X-1240396Y-1065108D01*
G01X-1249818Y-1084031D01*
G01X-1255604Y-1104364D01*
G01X-1257554Y-1125413D01*
G01X-1488186Y-1125413D01*
G01X-1488186Y-871413D01*
G01X-1257554Y-871413D01*
G01X-1255604Y-892462D01*
G01X-1249818Y-912795D01*
G01X-1240396Y-931718D01*
G01X-1227656Y-948588D01*
G01X-1212034Y-962829D01*
G01X-1194061Y-973958D01*
G01X-1174349Y-981594D01*
G01X-1153570Y-985478D01*
G01X-1132430Y-985478D01*
G01X-1111651Y-981594D01*
G01X-1091939Y-973958D01*
G01X-1073966Y-962829D01*
G01X-1058344Y-948588D01*
G01X-1045604Y-931718D01*
G01X-1036182Y-912795D01*
G01X-1030396Y-892462D01*
G01X-1029230Y-879871D01*
G01X308650Y-879871D01*
G01X311247Y-895006D01*
G01X317256Y-909139D01*
G01X326354Y-921510D01*
G01X326354Y-1413474D01*
G01X328007Y-1426030D01*
G01X332854Y-1437731D01*
G01X340563Y-1447779D01*
G01X393721Y-1500936D01*
G01X396035Y-1516118D01*
G01X401780Y-1530359D01*
G01X410646Y-1542898D01*
G01X422158Y-1553061D01*
G01X435700Y-1560304D01*
G01X450544Y-1564237D01*
G01X465895Y-1564651D01*
G01X480930Y-1561522D01*
G01X494842Y-1555020D01*
G01X506885Y-1545491D01*
G01X506885Y-1545491D01*
G01X516414Y-1533448D01*
G01X522916Y-1519536D01*
G01X526045Y-1504501D01*
G01X525631Y-1489150D01*
G01X521698Y-1474306D01*
G01X514455Y-1460764D01*
G01X504292Y-1449252D01*
G01X491753Y-1440386D01*
G01X477512Y-1434641D01*
G01X462330Y-1432327D01*
G01X423382Y-1393379D01*
G01X423382Y-921510D01*
G01X432480Y-909139D01*
G01X438489Y-895006D01*
G01X441086Y-879871D01*
G01X440132Y-864544D01*
G01X435678Y-849847D01*
G01X427962Y-836569D01*
G01X417400Y-825422D01*
G01X404557Y-817003D01*
G01X390121Y-811764D01*
G01X374868Y-809986D01*
G01X359615Y-811764D01*
G01X345179Y-817003D01*
G01X332336Y-825422D01*
G01X321773Y-836569D01*
G01X314058Y-849847D01*
G01X309604Y-864544D01*
G01X308650Y-879871D01*
G01X-1029230Y-879871D01*
G01X-1028446Y-871413D01*
G01X-1028446Y-871413D01*
G01X-1030396Y-850364D01*
G01X-1036182Y-830031D01*
G01X-1045604Y-811108D01*
G01X-1058344Y-794239D01*
G01X-1073966Y-779997D01*
G01X-1091939Y-768869D01*
G01X-1111651Y-761232D01*
G01X-1132430Y-757348D01*
G01X-1153570Y-757348D01*
G01X-1174349Y-761232D01*
G01X-1194061Y-768869D01*
G01X-1212034Y-779997D01*
G01X-1227656Y-794239D01*
G01X-1240396Y-811108D01*
G01X-1249818Y-830031D01*
G01X-1255604Y-850364D01*
G01X-1257554Y-871413D01*
G01X-1488186Y-871413D01*
G01X-1488186Y-109413D01*
G01X-1257554Y-109413D01*
G01X-1255604Y-130462D01*
G01X-1249818Y-150795D01*
G01X-1240396Y-169718D01*
G01X-1227656Y-186588D01*
G01X-1212034Y-200829D01*
G01X-1194061Y-211958D01*
G01X-1174349Y-219594D01*
G01X-1153570Y-223478D01*
G01X-1132430Y-223478D01*
G01X-1111651Y-219594D01*
G01X-1091939Y-211958D01*
G01X-1073966Y-200829D01*
G01X-1058344Y-186588D01*
G01X-1045604Y-169718D01*
G01X-1036182Y-150795D01*
G01X-1030396Y-130462D01*
G01X-1028446Y-109413D01*
G01X-1028446Y-109413D01*
G01X-1030396Y-88364D01*
G01X-1036182Y-68031D01*
G01X-1045604Y-49108D01*
G01X-1058344Y-32239D01*
G01X-1073966Y-17997D01*
G01X-1091939Y-6869D01*
G01X-1111651Y768D01*
G01X-1132430Y4652D01*
G01X-1153570Y4652D01*
G01X-1174349Y768D01*
G01X-1194061Y-6869D01*
G01X-1212034Y-17997D01*
G01X-1227656Y-32239D01*
G01X-1240396Y-49108D01*
G01X-1249818Y-68031D01*
G01X-1255604Y-88364D01*
G01X-1257554Y-109413D01*
G01X-1488186Y-109413D01*
G01X-1488186Y144587D01*
G01X-1257554Y144587D01*
G01X-1255604Y123538D01*
G01X-1249818Y103205D01*
G01X-1240396Y84282D01*
G01X-1227656Y67412D01*
G01X-1212034Y53171D01*
G01X-1194061Y42042D01*
G01X-1174349Y34406D01*
G01X-1153570Y30522D01*
G01X-1132430Y30522D01*
G01X-1111651Y34406D01*
G01X-1091939Y42042D01*
G01X-1073966Y53171D01*
G01X-1058344Y67412D01*
G01X-1045604Y84282D01*
G01X-1036182Y103205D01*
G01X-1030396Y123538D01*
G01X-1028446Y144587D01*
G01X-1028446Y144587D01*
G01X-1030396Y165636D01*
G01X-1036182Y185969D01*
G01X-1045604Y204892D01*
G01X-1058344Y221761D01*
G01X-1073966Y236003D01*
G01X-1091939Y247131D01*
G01X-1111651Y254768D01*
G01X-1132430Y258652D01*
G01X-1153570Y258652D01*
G01X-1174349Y254768D01*
G01X-1194061Y247131D01*
G01X-1212034Y236003D01*
G01X-1227656Y221761D01*
G01X-1240396Y204892D01*
G01X-1249818Y185969D01*
G01X-1255604Y165636D01*
G01X-1257554Y144587D01*
G01X-1488186Y144587D01*
G01X-1488186Y1116500D01*
G01X-1460270Y1116500D01*
G01X-1460270Y946500D01*
G01X-1458621Y929759D01*
G01X-1453738Y913660D01*
G01X-1445808Y898824D01*
G01X-1435136Y885820D01*
G01X-1422132Y875148D01*
G01X-1407296Y867218D01*
G01X-1391198Y862335D01*
G01X-1374456Y860686D01*
G01X-1334456Y860686D01*
G01X-1318651Y862154D01*
G01X-1303387Y866508D01*
G01X-1289186Y873599D01*
G01X-1276533Y883184D01*
G01X-1265863Y894935D01*
G01X-1257539Y908450D01*
G01X-1256085Y888299D01*
G01X-1251113Y868717D01*
G01X-1242779Y850313D01*
G01X-1231341Y833659D01*
G01X-1217155Y819273D01*
G01X-1200662Y807604D01*
G01X-1182376Y799013D01*
G01X-1162865Y793768D01*
G01X-1142736Y792033D01*
G01X-1122615Y793861D01*
G01X-1103128Y799196D01*
G01X-1084882Y807871D01*
G01X-1068443Y819616D01*
G01X-1068443Y819616D01*
G01X-1075868Y806895D01*
G01X-1080302Y792849D01*
G01X-1081526Y778170D01*
G01X-1079479Y763583D01*
G01X-1074263Y749808D01*
G01X-1066135Y737524D01*
G01X-1082438Y749823D01*
G01X-1100665Y759031D01*
G01X-1120238Y764857D01*
G01X-1140534Y767114D01*
G01X-1160908Y765733D01*
G01X-1180713Y760755D01*
G01X-1199320Y752340D01*
G01X-1216137Y740755D01*
G01X-1230630Y726368D01*
G01X-1242338Y709636D01*
G01X-1250889Y691091D01*
G01X-1256011Y671323D01*
G01X-1257542Y650959D01*
G01X-1255433Y630647D01*
G01X-1249751Y611032D01*
G01X-1240677Y592738D01*
G01X-1228498Y576346D01*
G01X-1213602Y562376D01*
G01X-1196463Y551274D01*
G01X-1177624Y543391D01*
G01X-1157685Y538978D01*
G01X-1137280Y538176D01*
G01X-1117056Y541009D01*
G01X-1097657Y547389D01*
G01X-1079699Y557112D01*
G01X-1063752Y569868D01*
G01X-1063752Y481306D01*
G01X-1080386Y494514D01*
G01X-1099172Y504425D01*
G01X-1119465Y510697D01*
G01X-1140567Y513115D01*
G01X-1161752Y511596D01*
G01X-1182293Y506191D01*
G01X-1201484Y497087D01*
G01X-1218663Y484597D01*
G01X-1233241Y469150D01*
G01X-1244717Y451277D01*
G01X-1252696Y431592D01*
G01X-1256904Y410773D01*
G01X-1257196Y389535D01*
G01X-1253562Y368608D01*
G01X-1246126Y348712D01*
G01X-1235146Y330530D01*
G01X-1220997Y314688D01*
G01X-1204168Y301731D01*
G01X-1185235Y292103D01*
G01X-1164850Y286136D01*
G01X-1143714Y284035D01*
G01X-1122553Y285872D01*
G01X-1102096Y291585D01*
G01X-1083045Y300976D01*
G01X-1066054Y313722D01*
G01X-1051710Y329387D01*
G01X-1049543Y327073D01*
G01X-855632Y133163D01*
G01X-860557Y113688D01*
G01X-861924Y93646D01*
G01X-859689Y73683D01*
G01X-853924Y54440D01*
G01X-844815Y36536D01*
G01X-832655Y20546D01*
G01X-817834Y6986D01*
G01X-800830Y-3709D01*
G01X-782188Y-11194D01*
G01X-762510Y-15230D01*
G01X-742427Y-15686D01*
G01X-722585Y-12548D01*
G01X-703624Y-5916D01*
G01X-686151Y3997D01*
G01X-670730Y16870D01*
G01X-657857Y32291D01*
G01X-647945Y49763D01*
G01X-641313Y68725D01*
G01X-638174Y88567D01*
G01X-638630Y108650D01*
G01X-642666Y128328D01*
G01X-650152Y146969D01*
G01X-660846Y163974D01*
G01X-674407Y178795D01*
G01X-690396Y190955D01*
G01X-708300Y200064D01*
G01X-727543Y205829D01*
G01X-747507Y208064D01*
G01X-767548Y206697D01*
G01X-787023Y201772D01*
G01X-935327Y350076D01*
G01X-861950Y350076D01*
G01X-860043Y329493D01*
G01X-854386Y309612D01*
G01X-845172Y291108D01*
G01X-832716Y274613D01*
G01X-817440Y260687D01*
G01X-799865Y249805D01*
G01X-780590Y242338D01*
G01X-760272Y238540D01*
G01X-739601Y238540D01*
G01X-719282Y242338D01*
G01X-700007Y249805D01*
G01X-682433Y260687D01*
G01X-667157Y274613D01*
G01X-654700Y291108D01*
G01X-645486Y309612D01*
G01X-639830Y329493D01*
G01X-637922Y350076D01*
G01X-637922Y350076D01*
G01X-639830Y370659D01*
G01X-645486Y390540D01*
G01X-654700Y409044D01*
G01X-667157Y425539D01*
G01X-682433Y439465D01*
G01X-700007Y450347D01*
G01X-719282Y457814D01*
G01X-739601Y461612D01*
G01X-760272Y461612D01*
G01X-780590Y457814D01*
G01X-799865Y450347D01*
G01X-817440Y439465D01*
G01X-832716Y425539D01*
G01X-845172Y409044D01*
G01X-854386Y390540D01*
G01X-860043Y370659D01*
G01X-861950Y350076D01*
G01X-935327Y350076D01*
G01X-966724Y381473D01*
G01X-966724Y478597D01*
G01X-398113Y478597D01*
G01X-398113Y478597D01*
G01X-396133Y453440D01*
G01X-390242Y428903D01*
G01X-380586Y405589D01*
G01X-367401Y384073D01*
G01X-351012Y364884D01*
G01X-331823Y348496D01*
G01X-310307Y335311D01*
G01X-286994Y325654D01*
G01X-262456Y319763D01*
G01X-237299Y317783D01*
G01X-212143Y319763D01*
G01X-187605Y325654D01*
G01X-164292Y335311D01*
G01X-142776Y348496D01*
G01X-123587Y364884D01*
G01X-107198Y384073D01*
G01X-94013Y405589D01*
G01X-84357Y428903D01*
G01X-78466Y453440D01*
G01X-76486Y478597D01*
G01X-76781Y482349D01*
G01X101930Y482349D01*
G01X103272Y457525D01*
G01X108425Y433204D01*
G01X117265Y409968D01*
G01X129581Y388373D01*
G01X145078Y368933D01*
G01X163386Y352115D01*
G01X163386Y242796D01*
G01X165294Y223421D01*
G01X170945Y204790D01*
G01X180123Y187620D01*
G01X192474Y172570D01*
G01X735431Y-370387D01*
G01X649955Y-455863D01*
G01X649955Y-455863D01*
G01X639183Y-468988D01*
G01X631179Y-483963D01*
G01X626250Y-500211D01*
G01X624586Y-517108D01*
G01X624586Y-1432778D01*
G01X626250Y-1449676D01*
G01X631179Y-1465924D01*
G01X639183Y-1480899D01*
G01X649955Y-1494024D01*
G01X752644Y-1596713D01*
G01X755843Y-1616560D01*
G01X762461Y-1635542D01*
G01X772296Y-1653074D01*
G01X785045Y-1668618D01*
G01X800314Y-1681693D01*
G01X817634Y-1691898D01*
G01X836471Y-1698918D01*
G01X856245Y-1702538D01*
G01X876347Y-1702644D01*
G01X896159Y-1699235D01*
G01X915070Y-1692416D01*
G01X932497Y-1682395D01*
G01X947904Y-1669482D01*
G01X960817Y-1654075D01*
G01X970837Y-1636648D01*
G01X977657Y-1617737D01*
G01X981066Y-1597926D01*
G01X980959Y-1577823D01*
G01X977340Y-1558049D01*
G01X970320Y-1539212D01*
G01X960115Y-1521892D01*
G01X947039Y-1506623D01*
G01X931496Y-1493875D01*
G01X913963Y-1484040D01*
G01X894982Y-1477421D01*
G01X875135Y-1474223D01*
G01X848451Y-1447539D01*
G01X868942Y-1449016D01*
G01X889367Y-1446810D01*
G01X909069Y-1440991D01*
G01X927416Y-1431747D01*
G01X943816Y-1419374D01*
G01X957742Y-1404270D01*
G01X968747Y-1386922D01*
G01X973519Y-1375171D01*
G01X1028473Y-1375171D01*
G01X1029966Y-1396237D01*
G01X1035302Y-1416671D01*
G01X1044298Y-1435778D01*
G01X1056649Y-1452909D01*
G01X1071935Y-1467481D01*
G01X1089636Y-1479000D01*
G01X1109151Y-1487074D01*
G01X1129816Y-1491428D01*
G01X1150929Y-1491914D01*
G01X1171773Y-1488517D01*
G01X1191639Y-1481350D01*
G01X1209852Y-1470659D01*
G01X1225793Y-1456806D01*
G01X1238919Y-1440262D01*
G01X1248786Y-1421589D01*
G01X1248786Y-1587500D01*
G01X1248786Y-1587500D01*
G01X1248810Y-1589516D01*
G01X1238837Y-1570661D01*
G01X1225542Y-1553981D01*
G01X1209385Y-1540056D01*
G01X1190927Y-1529367D01*
G01X1170806Y-1522285D01*
G01X1149722Y-1519056D01*
G01X1128405Y-1519793D01*
G01X1107594Y-1524468D01*
G01X1088010Y-1532921D01*
G01X1070333Y-1544858D01*
G01X1055175Y-1559865D01*
G01X1043062Y-1577422D01*
G01X1034414Y-1596920D01*
G01X1029531Y-1617684D01*
G01X1028582Y-1638992D01*
G01X1031600Y-1660108D01*
G01X1038480Y-1680298D01*
G01X1048984Y-1698862D01*
G01X1062747Y-1715157D01*
G01X1079293Y-1728619D01*
G01X1098048Y-1738779D01*
G01X1118361Y-1745286D01*
G01X1139529Y-1747914D01*
G01X1160817Y-1746573D01*
G01X1181487Y-1741308D01*
G01X1200822Y-1732303D01*
G01X1218153Y-1719869D01*
G01X1232879Y-1704437D01*
G01X1244488Y-1686543D01*
G01X1252579Y-1666807D01*
G01X1256870Y-1645913D01*
G01X1257213Y-1624586D01*
G01X1265473Y-1638348D01*
G01X1276152Y-1650332D01*
G01X1288875Y-1660117D01*
G01X1303198Y-1667362D01*
G01X1318619Y-1671813D01*
G01X1334600Y-1673314D01*
G01X1374600Y-1673314D01*
G01X1391341Y-1671665D01*
G01X1407440Y-1666782D01*
G01X1422276Y-1658852D01*
G01X1435280Y-1648180D01*
G01X1445952Y-1635176D01*
G01X1453882Y-1620340D01*
G01X1458765Y-1604241D01*
G01X1460414Y-1587500D01*
G01X1460414Y-1417500D01*
G01X1458765Y-1400758D01*
G01X1453882Y-1384660D01*
G01X1445952Y-1369824D01*
G01X1435280Y-1356820D01*
G01X1422276Y-1346148D01*
G01X1407440Y-1338218D01*
G01X1391341Y-1333335D01*
G01X1374600Y-1331686D01*
G01X1334600Y-1331686D01*
G01X1318740Y-1333164D01*
G01X1303426Y-1337548D01*
G01X1289187Y-1344687D01*
G01X1276512Y-1354335D01*
G01X1265839Y-1366158D01*
G01X1257534Y-1379751D01*
G01X1255977Y-1358690D01*
G01X1250579Y-1338272D01*
G01X1241525Y-1319193D01*
G01X1229122Y-1302099D01*
G01X1213792Y-1287573D01*
G01X1196056Y-1276108D01*
G01X1176516Y-1268094D01*
G01X1155838Y-1263803D01*
G01X1134723Y-1263380D01*
G01X1113890Y-1266841D01*
G01X1094046Y-1274068D01*
G01X1075865Y-1284815D01*
G01X1059967Y-1298717D01*
G01X1046891Y-1315300D01*
G01X1037081Y-1334003D01*
G01X1030871Y-1354188D01*
G01X1028473Y-1375171D01*
G01X973519Y-1375171D01*
G01X976476Y-1367888D01*
G01X980681Y-1347779D01*
G01X981227Y-1327242D01*
G01X978096Y-1306938D01*
G01X971388Y-1287520D01*
G01X961320Y-1269613D01*
G01X948215Y-1253791D01*
G01X932495Y-1240565D01*
G01X914666Y-1230359D01*
G01X895300Y-1223502D01*
G01X875021Y-1220214D01*
G01X854480Y-1220602D01*
G01X834340Y-1224652D01*
G01X815246Y-1232234D01*
G01X797814Y-1243105D01*
G01X797814Y-1123635D01*
G01X1028446Y-1123635D01*
G01X1030396Y-1144684D01*
G01X1036182Y-1165017D01*
G01X1045604Y-1183940D01*
G01X1058344Y-1200810D01*
G01X1073966Y-1215051D01*
G01X1091939Y-1226180D01*
G01X1111651Y-1233816D01*
G01X1132430Y-1237700D01*
G01X1153570Y-1237700D01*
G01X1174349Y-1233816D01*
G01X1194061Y-1226180D01*
G01X1212034Y-1215051D01*
G01X1227656Y-1200810D01*
G01X1240396Y-1183940D01*
G01X1249818Y-1165017D01*
G01X1255604Y-1144684D01*
G01X1257554Y-1123635D01*
G01X1257554Y-1123635D01*
G01X1255604Y-1102586D01*
G01X1249818Y-1082253D01*
G01X1240396Y-1063330D01*
G01X1227656Y-1046461D01*
G01X1212034Y-1032219D01*
G01X1194061Y-1021091D01*
G01X1174349Y-1013454D01*
G01X1153570Y-1009570D01*
G01X1132430Y-1009570D01*
G01X1111651Y-1013454D01*
G01X1091939Y-1021091D01*
G01X1073966Y-1032219D01*
G01X1058344Y-1046461D01*
G01X1045604Y-1063330D01*
G01X1036182Y-1082253D01*
G01X1030396Y-1102586D01*
G01X1028446Y-1123635D01*
G01X797814Y-1123635D01*
G01X797814Y-960782D01*
G01X815786Y-971923D01*
G01X835499Y-979572D01*
G01X856282Y-983467D01*
G01X877427Y-983476D01*
G01X898213Y-979598D01*
G01X917933Y-971966D01*
G01X935914Y-960839D01*
G01X951543Y-946598D01*
G01X964289Y-929726D01*
G01X973716Y-910799D01*
G01X979504Y-890461D01*
G01X981435Y-869635D01*
G01X1028446Y-869635D01*
G01X1030396Y-890684D01*
G01X1036182Y-911017D01*
G01X1045604Y-929940D01*
G01X1058344Y-946810D01*
G01X1073966Y-961051D01*
G01X1091939Y-972180D01*
G01X1111651Y-979816D01*
G01X1132430Y-983700D01*
G01X1153570Y-983700D01*
G01X1174349Y-979816D01*
G01X1194061Y-972180D01*
G01X1212034Y-961051D01*
G01X1227656Y-946810D01*
G01X1240396Y-929940D01*
G01X1249818Y-911017D01*
G01X1255604Y-890684D01*
G01X1257554Y-869635D01*
G01X1257554Y-869635D01*
G01X1255604Y-848586D01*
G01X1249818Y-828253D01*
G01X1240396Y-809330D01*
G01X1227656Y-792461D01*
G01X1212034Y-778219D01*
G01X1194061Y-767091D01*
G01X1174349Y-759454D01*
G01X1153570Y-755570D01*
G01X1132430Y-755570D01*
G01X1111651Y-759454D01*
G01X1091939Y-767091D01*
G01X1073966Y-778219D01*
G01X1058344Y-792461D01*
G01X1045604Y-809330D01*
G01X1036182Y-828253D01*
G01X1030396Y-848586D01*
G01X1028446Y-869635D01*
G01X981435Y-869635D01*
G01X981456Y-869406D01*
G01X979504Y-848352D01*
G01X973716Y-828014D01*
G01X964289Y-809087D01*
G01X951543Y-792215D01*
G01X935914Y-777973D01*
G01X917933Y-766847D01*
G01X898213Y-759215D01*
G01X877427Y-755337D01*
G01X856282Y-755346D01*
G01X835499Y-759241D01*
G01X815786Y-766889D01*
G01X797814Y-778031D01*
G01X797814Y-706782D01*
G01X815246Y-717653D01*
G01X834340Y-725235D01*
G01X854480Y-729285D01*
G01X875021Y-729672D01*
G01X895300Y-726385D01*
G01X914666Y-719528D01*
G01X932495Y-709322D01*
G01X948215Y-696096D01*
G01X961320Y-680274D01*
G01X971388Y-662367D01*
G01X978096Y-642948D01*
G01X981227Y-622645D01*
G01X981041Y-615635D01*
G01X1028446Y-615635D01*
G01X1030396Y-636684D01*
G01X1036182Y-657017D01*
G01X1045604Y-675940D01*
G01X1058344Y-692810D01*
G01X1073966Y-707051D01*
G01X1091939Y-718180D01*
G01X1111651Y-725816D01*
G01X1132430Y-729700D01*
G01X1153570Y-729700D01*
G01X1174349Y-725816D01*
G01X1194061Y-718180D01*
G01X1212034Y-707051D01*
G01X1227656Y-692810D01*
G01X1240396Y-675940D01*
G01X1249818Y-657017D01*
G01X1255604Y-636684D01*
G01X1257554Y-615635D01*
G01X1257554Y-615635D01*
G01X1255604Y-594586D01*
G01X1249818Y-574253D01*
G01X1240396Y-555330D01*
G01X1227656Y-538461D01*
G01X1212034Y-524219D01*
G01X1194061Y-513091D01*
G01X1174349Y-505454D01*
G01X1153570Y-501570D01*
G01X1132430Y-501570D01*
G01X1111651Y-505454D01*
G01X1091939Y-513091D01*
G01X1073966Y-524219D01*
G01X1058344Y-538461D01*
G01X1045604Y-555330D01*
G01X1036182Y-574253D01*
G01X1030396Y-594586D01*
G01X1028446Y-615635D01*
G01X981041Y-615635D01*
G01X980681Y-602108D01*
G01X976476Y-581999D01*
G01X968747Y-562964D01*
G01X957742Y-545617D01*
G01X943816Y-530513D01*
G01X927416Y-518140D01*
G01X909069Y-508896D01*
G01X889367Y-503077D01*
G01X868942Y-500871D01*
G01X848451Y-502348D01*
G01X875135Y-475664D01*
G01X894944Y-472475D01*
G01X913893Y-465879D01*
G01X931400Y-456078D01*
G01X946928Y-443372D01*
G01X960002Y-428152D01*
G01X970220Y-410885D01*
G01X977268Y-392099D01*
G01X980930Y-372372D01*
G01X981018Y-361635D01*
G01X1028446Y-361635D01*
G01X1030396Y-382684D01*
G01X1036182Y-403017D01*
G01X1045604Y-421940D01*
G01X1058344Y-438810D01*
G01X1073966Y-453051D01*
G01X1091939Y-464180D01*
G01X1111651Y-471816D01*
G01X1132430Y-475700D01*
G01X1153570Y-475700D01*
G01X1174349Y-471816D01*
G01X1194061Y-464180D01*
G01X1212034Y-453051D01*
G01X1227656Y-438810D01*
G01X1240396Y-421940D01*
G01X1249818Y-403017D01*
G01X1255604Y-382684D01*
G01X1257554Y-361635D01*
G01X1257554Y-361635D01*
G01X1255604Y-340586D01*
G01X1249818Y-320253D01*
G01X1240396Y-301330D01*
G01X1227656Y-284461D01*
G01X1212034Y-270219D01*
G01X1194061Y-259091D01*
G01X1174349Y-251454D01*
G01X1153570Y-247570D01*
G01X1132430Y-247570D01*
G01X1111651Y-251454D01*
G01X1091939Y-259091D01*
G01X1073966Y-270219D01*
G01X1058344Y-284461D01*
G01X1045604Y-301330D01*
G01X1036182Y-320253D01*
G01X1030396Y-340586D01*
G01X1028446Y-361635D01*
G01X981018Y-361635D01*
G01X981094Y-352309D01*
G01X977755Y-332524D01*
G01X971016Y-313626D01*
G01X961082Y-296194D01*
G01X948260Y-280762D01*
G01X932941Y-267804D01*
G01X915597Y-257717D01*
G01X896758Y-250812D01*
G01X867903Y-221956D01*
G01X887281Y-220133D01*
G01X906071Y-215056D01*
G01X923731Y-206871D01*
G01X939749Y-195814D01*
G01X953665Y-182205D01*
G01X965076Y-166437D01*
G01X973652Y-148964D01*
G01X979147Y-130292D01*
G01X981401Y-110959D01*
G01X981221Y-107635D01*
G01X1028446Y-107635D01*
G01X1030396Y-128684D01*
G01X1036182Y-149017D01*
G01X1045604Y-167940D01*
G01X1058344Y-184810D01*
G01X1073966Y-199051D01*
G01X1091939Y-210180D01*
G01X1111651Y-217816D01*
G01X1132430Y-221700D01*
G01X1153570Y-221700D01*
G01X1174349Y-217816D01*
G01X1194061Y-210180D01*
G01X1212034Y-199051D01*
G01X1227656Y-184810D01*
G01X1240396Y-167940D01*
G01X1249818Y-149017D01*
G01X1255604Y-128684D01*
G01X1257554Y-107635D01*
G01X1257554Y-107635D01*
G01X1255604Y-86586D01*
G01X1249818Y-66253D01*
G01X1240396Y-47330D01*
G01X1227656Y-30461D01*
G01X1212034Y-16219D01*
G01X1194061Y-5091D01*
G01X1174349Y2546D01*
G01X1153570Y6430D01*
G01X1132430Y6430D01*
G01X1111651Y2546D01*
G01X1091939Y-5091D01*
G01X1073966Y-16219D01*
G01X1058344Y-30461D01*
G01X1045604Y-47330D01*
G01X1036182Y-66253D01*
G01X1030396Y-86586D01*
G01X1028446Y-107635D01*
G01X981221Y-107635D01*
G01X980350Y-91523D01*
G01X976023Y-72546D01*
G01X968546Y-54576D01*
G01X958135Y-38130D01*
G01X945090Y-23685D01*
G01X929787Y-11656D01*
G01X912669Y-2392D01*
G01X894230Y3840D01*
G01X875002Y6861D01*
G01X855540Y6583D01*
G01X836406Y3014D01*
G01X852557Y16164D01*
G01X865995Y32078D01*
G01X876254Y50204D01*
G01X882980Y69917D01*
G01X885941Y90534D01*
G01X885033Y111342D01*
G01X880288Y131623D01*
G01X873774Y146365D01*
G01X1028446Y146365D01*
G01X1030396Y125316D01*
G01X1036182Y104983D01*
G01X1045604Y86060D01*
G01X1058344Y69190D01*
G01X1073966Y54949D01*
G01X1091939Y43820D01*
G01X1111651Y36184D01*
G01X1132430Y32300D01*
G01X1153570Y32300D01*
G01X1174349Y36184D01*
G01X1194061Y43820D01*
G01X1212034Y54949D01*
G01X1227656Y69190D01*
G01X1240396Y86060D01*
G01X1249818Y104983D01*
G01X1255604Y125316D01*
G01X1257554Y146365D01*
G01X1257554Y146365D01*
G01X1255604Y167414D01*
G01X1249818Y187747D01*
G01X1240396Y206670D01*
G01X1227656Y223539D01*
G01X1212034Y237781D01*
G01X1194061Y248909D01*
G01X1174349Y256546D01*
G01X1153570Y260430D01*
G01X1132430Y260430D01*
G01X1111651Y256546D01*
G01X1091939Y248909D01*
G01X1073966Y237781D01*
G01X1058344Y223539D01*
G01X1045604Y206670D01*
G01X1036182Y187747D01*
G01X1030396Y167414D01*
G01X1028446Y146365D01*
G01X873774Y146365D01*
G01X871871Y150674D01*
G01X860072Y167838D01*
G01X845299Y182521D01*
G01X828063Y194215D01*
G01X808960Y202515D01*
G01X788651Y207136D01*
G01X767838Y207917D01*
G01X747239Y204831D01*
G01X727568Y197984D01*
G01X709505Y187615D01*
G01X693674Y174080D01*
G01X680622Y157848D01*
G01X670801Y139481D01*
G01X664550Y119613D01*
G01X662086Y98931D01*
G01X663493Y78150D01*
G01X668724Y57989D01*
G01X677596Y39145D01*
G01X689804Y22269D01*
G01X704925Y7946D01*
G01X722436Y-3331D01*
G01X741733Y-11171D01*
G01X762147Y-15302D01*
G01X782974Y-15583D01*
G01X803492Y-12003D01*
G01X788886Y-23525D01*
G01X776338Y-37259D01*
G01X766178Y-52842D01*
G01X758674Y-69865D01*
G01X754025Y-87878D01*
G01X752352Y-106406D01*
G01X362014Y283933D01*
G01X362014Y350076D01*
G01X662050Y350076D01*
G01X663957Y329493D01*
G01X669614Y309612D01*
G01X678828Y291108D01*
G01X691284Y274613D01*
G01X706560Y260687D01*
G01X724135Y249805D01*
G01X743410Y242338D01*
G01X763728Y238540D01*
G01X784399Y238540D01*
G01X804718Y242338D01*
G01X823993Y249805D01*
G01X841567Y260687D01*
G01X856843Y274613D01*
G01X869300Y291108D01*
G01X878514Y309612D01*
G01X884170Y329493D01*
G01X886078Y350076D01*
G01X884170Y370659D01*
G01X878514Y390540D01*
G01X873621Y400365D01*
G01X1028446Y400365D01*
G01X1030396Y379316D01*
G01X1036182Y358983D01*
G01X1045604Y340060D01*
G01X1058344Y323190D01*
G01X1073966Y308949D01*
G01X1091939Y297820D01*
G01X1111651Y290184D01*
G01X1132430Y286300D01*
G01X1153570Y286300D01*
G01X1174349Y290184D01*
G01X1194061Y297820D01*
G01X1212034Y308949D01*
G01X1227656Y323190D01*
G01X1240396Y340060D01*
G01X1249818Y358983D01*
G01X1255604Y379316D01*
G01X1257554Y400365D01*
G01X1257554Y400365D01*
G01X1255604Y421414D01*
G01X1249818Y441747D01*
G01X1240396Y460670D01*
G01X1227656Y477539D01*
G01X1212034Y491781D01*
G01X1194061Y502909D01*
G01X1174349Y510546D01*
G01X1153570Y514430D01*
G01X1132430Y514430D01*
G01X1111651Y510546D01*
G01X1091939Y502909D01*
G01X1073966Y491781D01*
G01X1058344Y477539D01*
G01X1045604Y460670D01*
G01X1036182Y441747D01*
G01X1030396Y421414D01*
G01X1028446Y400365D01*
G01X873621Y400365D01*
G01X869300Y409044D01*
G01X856843Y425539D01*
G01X841567Y439465D01*
G01X823993Y450347D01*
G01X804718Y457814D01*
G01X784399Y461612D01*
G01X763728Y461612D01*
G01X743410Y457814D01*
G01X724135Y450347D01*
G01X706560Y439465D01*
G01X691284Y425539D01*
G01X678828Y409044D01*
G01X669614Y390540D01*
G01X663957Y370659D01*
G01X662050Y350076D01*
G01X662050Y350076D01*
G01X362014Y350076D01*
G01X362014Y352115D01*
G01X380321Y368933D01*
G01X395818Y388373D01*
G01X408134Y409968D01*
G01X416974Y433204D01*
G01X422127Y457525D01*
G01X423469Y482349D01*
G01X420970Y507083D01*
G01X414688Y531137D01*
G01X404774Y553935D01*
G01X391465Y574933D01*
G01X375078Y593628D01*
G01X362582Y604076D01*
G01X662050Y604076D01*
G01X663957Y583493D01*
G01X669614Y563612D01*
G01X678828Y545108D01*
G01X691284Y528613D01*
G01X706560Y514687D01*
G01X724135Y503805D01*
G01X743410Y496338D01*
G01X763728Y492540D01*
G01X784399Y492540D01*
G01X804718Y496338D01*
G01X823993Y503805D01*
G01X841567Y514687D01*
G01X856843Y528613D01*
G01X869300Y545108D01*
G01X878514Y563612D01*
G01X884170Y583493D01*
G01X886078Y604076D01*
G01X884170Y624659D01*
G01X878514Y644540D01*
G01X873621Y654365D01*
G01X1028446Y654365D01*
G01X1030396Y633316D01*
G01X1036182Y612983D01*
G01X1045604Y594060D01*
G01X1058344Y577190D01*
G01X1073966Y562949D01*
G01X1091939Y551820D01*
G01X1111651Y544184D01*
G01X1132430Y540300D01*
G01X1153570Y540300D01*
G01X1174349Y544184D01*
G01X1194061Y551820D01*
G01X1212034Y562949D01*
G01X1227656Y577190D01*
G01X1240396Y594060D01*
G01X1249818Y612983D01*
G01X1255604Y633316D01*
G01X1257554Y654365D01*
G01X1257554Y654365D01*
G01X1255604Y675414D01*
G01X1249818Y695747D01*
G01X1240396Y714670D01*
G01X1227656Y731539D01*
G01X1212034Y745781D01*
G01X1194061Y756909D01*
G01X1174349Y764546D01*
G01X1153570Y768430D01*
G01X1132430Y768430D01*
G01X1111651Y764546D01*
G01X1091939Y756909D01*
G01X1073966Y745781D01*
G01X1058344Y731539D01*
G01X1045604Y714670D01*
G01X1036182Y695747D01*
G01X1030396Y675414D01*
G01X1028446Y654365D01*
G01X873621Y654365D01*
G01X869300Y663044D01*
G01X856843Y679539D01*
G01X841567Y693465D01*
G01X823993Y704347D01*
G01X804718Y711814D01*
G01X784399Y715612D01*
G01X763728Y715612D01*
G01X743410Y711814D01*
G01X724135Y704347D01*
G01X706560Y693465D01*
G01X691284Y679539D01*
G01X678828Y663044D01*
G01X669614Y644540D01*
G01X663957Y624659D01*
G01X662050Y604076D01*
G01X662050Y604076D01*
G01X362582Y604076D01*
G01X356005Y609575D01*
G01X334703Y622391D01*
G01X311679Y631770D01*
G01X287486Y637489D01*
G01X262700Y639411D01*
G01X237913Y637489D01*
G01X213720Y631770D01*
G01X190696Y622391D01*
G01X169394Y609575D01*
G01X150321Y593628D01*
G01X133934Y574933D01*
G01X120625Y553935D01*
G01X110711Y531137D01*
G01X104429Y507083D01*
G01X101930Y482349D01*
G01X-76781Y482349D01*
G01X-78466Y503754D01*
G01X-84357Y528291D01*
G01X-94013Y551605D01*
G01X-107198Y573121D01*
G01X-123587Y592309D01*
G01X-142776Y608698D01*
G01X-164292Y621883D01*
G01X-187605Y631540D01*
G01X-212143Y637431D01*
G01X-237299Y639411D01*
G01X-262456Y637431D01*
G01X-286994Y631540D01*
G01X-310307Y621883D01*
G01X-331823Y608698D01*
G01X-351012Y592309D01*
G01X-367401Y573121D01*
G01X-380586Y551605D01*
G01X-390242Y528291D01*
G01X-396133Y503754D01*
G01X-398113Y478597D01*
G01X-966724Y478597D01*
G01X-966724Y604076D01*
G01X-861950Y604076D01*
G01X-860043Y583493D01*
G01X-854386Y563612D01*
G01X-845172Y545108D01*
G01X-832716Y528613D01*
G01X-817440Y514687D01*
G01X-799865Y503805D01*
G01X-780590Y496338D01*
G01X-760272Y492540D01*
G01X-739601Y492540D01*
G01X-719282Y496338D01*
G01X-700007Y503805D01*
G01X-682433Y514687D01*
G01X-667157Y528613D01*
G01X-654700Y545108D01*
G01X-645486Y563612D01*
G01X-639830Y583493D01*
G01X-637922Y604076D01*
G01X-637922Y604076D01*
G01X-639830Y624659D01*
G01X-645486Y644540D01*
G01X-654700Y663044D01*
G01X-667157Y679539D01*
G01X-682433Y693465D01*
G01X-700007Y704347D01*
G01X-719282Y711814D01*
G01X-739601Y715612D01*
G01X-760272Y715612D01*
G01X-780590Y711814D01*
G01X-799865Y704347D01*
G01X-817440Y693465D01*
G01X-832716Y679539D01*
G01X-845172Y663044D01*
G01X-854386Y644540D01*
G01X-860043Y624659D01*
G01X-861950Y604076D01*
G01X-966724Y604076D01*
G01X-966724Y734824D01*
G01X-957127Y748087D01*
G01X-951071Y763297D01*
G01X-948926Y779527D01*
G01X-950823Y795788D01*
G01X-956645Y811089D01*
G01X-966039Y824497D01*
G01X-978431Y835196D01*
G01X-993067Y842532D01*
G01X-1009054Y846059D01*
G01X-1025417Y845562D01*
G01X-1041161Y841071D01*
G01X-1055324Y832861D01*
G01X-1043989Y848973D01*
G01X-1039693Y858076D01*
G01X-861950Y858076D01*
G01X-860043Y837493D01*
G01X-854386Y817612D01*
G01X-845172Y799108D01*
G01X-832716Y782613D01*
G01X-817440Y768687D01*
G01X-799865Y757805D01*
G01X-780590Y750338D01*
G01X-760272Y746540D01*
G01X-739601Y746540D01*
G01X-719282Y750338D01*
G01X-700007Y757805D01*
G01X-682433Y768687D01*
G01X-667157Y782613D01*
G01X-654700Y799108D01*
G01X-645486Y817612D01*
G01X-639830Y837493D01*
G01X-639412Y841995D01*
G01X-447205Y841995D01*
G01X-446373Y827065D01*
G01X-442216Y812701D01*
G01X-434946Y799634D01*
G01X-424934Y788527D01*
G01X-424934Y788527D01*
G01X-412688Y779947D01*
G01X-398830Y774328D01*
G01X-384066Y771957D01*
G01X-369146Y772954D01*
G01X-354829Y777269D01*
G01X-341842Y784682D01*
G01X-330847Y794816D01*
G01X-322401Y807156D01*
G01X-316935Y821074D01*
G01X-314727Y835864D01*
G01X-308595Y841995D01*
G01X-300886Y852043D01*
G01X-298387Y858076D01*
G01X662050Y858076D01*
G01X663957Y837493D01*
G01X669614Y817612D01*
G01X678828Y799108D01*
G01X691284Y782613D01*
G01X706560Y768687D01*
G01X724135Y757805D01*
G01X743410Y750338D01*
G01X763728Y746540D01*
G01X784399Y746540D01*
G01X804718Y750338D01*
G01X823993Y757805D01*
G01X841567Y768687D01*
G01X856843Y782613D01*
G01X869300Y799108D01*
G01X878514Y817612D01*
G01X884170Y837493D01*
G01X886078Y858076D01*
G01X884170Y878659D01*
G01X878514Y898540D01*
G01X874440Y906722D01*
G01X1028458Y906722D01*
G01X1030695Y885780D01*
G01X1036728Y865601D01*
G01X1046353Y846867D01*
G01X1059245Y830213D01*
G01X1074968Y816200D01*
G01X1092991Y805303D01*
G01X1112705Y797889D01*
G01X1133442Y794210D01*
G01X1154503Y794390D01*
G01X1175175Y798422D01*
G01X1194759Y806171D01*
G01X1212594Y817374D01*
G01X1228076Y831653D01*
G01X1240682Y848525D01*
G01X1249986Y867420D01*
G01X1255674Y887698D01*
G01X1257554Y908676D01*
G01X1265863Y895102D01*
G01X1276535Y883297D01*
G01X1289205Y873665D01*
G01X1303434Y866538D01*
G01X1318736Y862162D01*
G01X1334582Y860686D01*
G01X1334582Y860686D01*
G01X1374582Y860686D01*
G01X1391323Y862335D01*
G01X1407422Y867218D01*
G01X1422258Y875148D01*
G01X1435262Y885820D01*
G01X1445934Y898824D01*
G01X1453864Y913660D01*
G01X1458747Y929759D01*
G01X1460396Y946500D01*
G01X1460396Y1116500D01*
G01X1458747Y1133242D01*
G01X1453864Y1149340D01*
G01X1445934Y1164176D01*
G01X1435262Y1177180D01*
G01X1422258Y1187852D01*
G01X1407422Y1195782D01*
G01X1391323Y1200665D01*
G01X1374582Y1202314D01*
G01X1334582Y1202314D01*
G01X1318611Y1200815D01*
G01X1303198Y1196369D01*
G01X1288882Y1189133D01*
G01X1276163Y1179359D01*
G01X1265485Y1167389D01*
G01X1257221Y1153640D01*
G01X1256859Y1174962D01*
G01X1252551Y1195848D01*
G01X1244447Y1215573D01*
G01X1232827Y1233454D01*
G01X1218094Y1248872D01*
G01X1200759Y1261292D01*
G01X1181422Y1270283D01*
G01X1160754Y1275535D01*
G01X1139470Y1276865D01*
G01X1118309Y1274226D01*
G01X1098003Y1267711D01*
G01X1079257Y1257546D01*
G01X1062719Y1244082D01*
G01X1048964Y1227786D01*
G01X1038468Y1209223D01*
G01X1031594Y1189036D01*
G01X1028581Y1167924D01*
G01X1029533Y1146620D01*
G01X1034417Y1125862D01*
G01X1043065Y1106369D01*
G01X1055175Y1088816D01*
G01X1070329Y1073812D01*
G01X1088002Y1061877D01*
G01X1107580Y1053424D01*
G01X1128386Y1048747D01*
G01X1149699Y1048007D01*
G01X1170779Y1051230D01*
G01X1190896Y1058305D01*
G01X1209354Y1068985D01*
G01X1225512Y1082902D01*
G01X1238811Y1099573D01*
G01X1248789Y1118419D01*
G01X1248768Y1116500D01*
G01X1248768Y952362D01*
G01X1238925Y970982D01*
G01X1225840Y987486D01*
G01X1209955Y1001315D01*
G01X1191806Y1012002D01*
G01X1172008Y1019185D01*
G01X1151229Y1022623D01*
G01X1130172Y1022198D01*
G01X1109549Y1017926D01*
G01X1090056Y1009950D01*
G01X1072353Y998540D01*
G01X1057038Y984082D01*
G01X1044629Y967065D01*
G01X1035545Y948063D01*
G01X1030093Y927720D01*
G01X1028458Y906722D01*
G01X874440Y906722D01*
G01X869300Y917044D01*
G01X856843Y933539D01*
G01X841567Y947465D01*
G01X823993Y958347D01*
G01X804718Y965814D01*
G01X784399Y969612D01*
G01X763728Y969612D01*
G01X743410Y965814D01*
G01X724135Y958347D01*
G01X706560Y947465D01*
G01X691284Y933539D01*
G01X678828Y917044D01*
G01X669614Y898540D01*
G01X663957Y878659D01*
G01X662050Y858076D01*
G01X662050Y858076D01*
G01X-298387Y858076D01*
G01X-296039Y863744D01*
G01X-294386Y876300D01*
G01X-294386Y1112076D01*
G01X662050Y1112076D01*
G01X663957Y1091493D01*
G01X669614Y1071612D01*
G01X678828Y1053108D01*
G01X691284Y1036613D01*
G01X706560Y1022687D01*
G01X724135Y1011805D01*
G01X743410Y1004338D01*
G01X763728Y1000540D01*
G01X784399Y1000540D01*
G01X804718Y1004338D01*
G01X823993Y1011805D01*
G01X841567Y1022687D01*
G01X856843Y1036613D01*
G01X869300Y1053108D01*
G01X878514Y1071612D01*
G01X884170Y1091493D01*
G01X886078Y1112076D01*
G01X884170Y1132659D01*
G01X878514Y1152540D01*
G01X869300Y1171044D01*
G01X856843Y1187539D01*
G01X841567Y1201465D01*
G01X823993Y1212347D01*
G01X804718Y1219814D01*
G01X784399Y1223612D01*
G01X763728Y1223612D01*
G01X743410Y1219814D01*
G01X724135Y1212347D01*
G01X706560Y1201465D01*
G01X691284Y1187539D01*
G01X678828Y1171044D01*
G01X669614Y1152540D01*
G01X663957Y1132659D01*
G01X662050Y1112076D01*
G01X662050Y1112076D01*
G01X-294386Y1112076D01*
G01X-294386Y1326701D01*
G01X-256551Y1326701D01*
G01X-256137Y1311350D01*
G01X-252204Y1296506D01*
G01X-244961Y1282964D01*
G01X-234798Y1271452D01*
G01X-222259Y1262586D01*
G01X-208018Y1256841D01*
G01X-192836Y1254527D01*
G01X-148823Y1210514D01*
G01X-146509Y1195332D01*
G01X-140764Y1181091D01*
G01X-131898Y1168552D01*
G01X-120386Y1158389D01*
G01X-106844Y1151146D01*
G01X-92000Y1147213D01*
G01X-76649Y1146799D01*
G01X-61614Y1149928D01*
G01X-47702Y1156430D01*
G01X-35659Y1165959D01*
G01X-26130Y1178002D01*
G01X-19628Y1191914D01*
G01X-16499Y1206949D01*
G01X-16913Y1222300D01*
G01X-20846Y1237144D01*
G01X-28089Y1250686D01*
G01X-38252Y1262198D01*
G01X-50791Y1271064D01*
G01X-65032Y1276809D01*
G01X-80214Y1279123D01*
G01X-124227Y1323136D01*
G01X-126541Y1338318D01*
G01X-132286Y1352559D01*
G01X-141152Y1365098D01*
G01X-152664Y1375261D01*
G01X-166206Y1382504D01*
G01X-181050Y1386437D01*
G01X-196401Y1386851D01*
G01X-211436Y1383722D01*
G01X-225348Y1377220D01*
G01X-237391Y1367691D01*
G01X-237391Y1367691D01*
G01X-246920Y1355648D01*
G01X-253422Y1341736D01*
G01X-256551Y1326701D01*
G01X-294386Y1326701D01*
G01X-294386Y1478595D01*
G01X436885Y1478595D01*
G01X438796Y1456748D01*
G01X444473Y1435564D01*
G01X453741Y1415688D01*
G01X466320Y1397723D01*
G01X481827Y1382216D01*
G01X499792Y1369637D01*
G01X519668Y1360369D01*
G01X540852Y1354693D01*
G01X562699Y1352781D01*
G01X584546Y1354693D01*
G01X605730Y1360369D01*
G01X617969Y1366076D01*
G01X662050Y1366076D01*
G01X663957Y1345493D01*
G01X669614Y1325612D01*
G01X678828Y1307108D01*
G01X691284Y1290613D01*
G01X706560Y1276687D01*
G01X724135Y1265805D01*
G01X743410Y1258338D01*
G01X763728Y1254540D01*
G01X784399Y1254540D01*
G01X804718Y1258338D01*
G01X823993Y1265805D01*
G01X841567Y1276687D01*
G01X856843Y1290613D01*
G01X869300Y1307108D01*
G01X878514Y1325612D01*
G01X884170Y1345493D01*
G01X886078Y1366076D01*
G01X884170Y1386659D01*
G01X878514Y1406540D01*
G01X873621Y1416365D01*
G01X1028446Y1416365D01*
G01X1030396Y1395316D01*
G01X1036182Y1374983D01*
G01X1045604Y1356060D01*
G01X1058344Y1339190D01*
G01X1073966Y1324949D01*
G01X1091939Y1313820D01*
G01X1111651Y1306184D01*
G01X1132430Y1302300D01*
G01X1153570Y1302300D01*
G01X1174349Y1306184D01*
G01X1194061Y1313820D01*
G01X1212034Y1324949D01*
G01X1227656Y1339190D01*
G01X1240396Y1356060D01*
G01X1249818Y1374983D01*
G01X1255604Y1395316D01*
G01X1257554Y1416365D01*
G01X1257554Y1416365D01*
G01X1255604Y1437414D01*
G01X1249818Y1457747D01*
G01X1240396Y1476670D01*
G01X1227656Y1493539D01*
G01X1212034Y1507781D01*
G01X1194061Y1518909D01*
G01X1174349Y1526546D01*
G01X1153570Y1530430D01*
G01X1132430Y1530430D01*
G01X1111651Y1526546D01*
G01X1091939Y1518909D01*
G01X1073966Y1507781D01*
G01X1058344Y1493539D01*
G01X1045604Y1476670D01*
G01X1036182Y1457747D01*
G01X1030396Y1437414D01*
G01X1028446Y1416365D01*
G01X873621Y1416365D01*
G01X869300Y1425044D01*
G01X856843Y1441539D01*
G01X841567Y1455465D01*
G01X823993Y1466347D01*
G01X804718Y1473814D01*
G01X784399Y1477612D01*
G01X763728Y1477612D01*
G01X743410Y1473814D01*
G01X724135Y1466347D01*
G01X706560Y1455465D01*
G01X691284Y1441539D01*
G01X678828Y1425044D01*
G01X669614Y1406540D01*
G01X663957Y1386659D01*
G01X662050Y1366076D01*
G01X662050Y1366076D01*
G01X617969Y1366076D01*
G01X625606Y1369637D01*
G01X643570Y1382216D01*
G01X659078Y1397723D01*
G01X671657Y1415688D01*
G01X680925Y1435564D01*
G01X686601Y1456748D01*
G01X688513Y1478595D01*
G01X686601Y1500442D01*
G01X680925Y1521626D01*
G01X671657Y1541502D01*
G01X659078Y1559467D01*
G01X643570Y1574974D01*
G01X625606Y1587553D01*
G01X605730Y1596821D01*
G01X584546Y1602497D01*
G01X562699Y1604409D01*
G01X540852Y1602497D01*
G01X519668Y1596821D01*
G01X499792Y1587553D01*
G01X481827Y1574974D01*
G01X466320Y1559467D01*
G01X453741Y1541502D01*
G01X444473Y1521626D01*
G01X438796Y1500442D01*
G01X436885Y1478595D01*
G01X436885Y1478595D01*
G01X-294386Y1478595D01*
G01X-294386Y1620076D01*
G01X662050Y1620076D01*
G01X663957Y1599493D01*
G01X669614Y1579612D01*
G01X678828Y1561108D01*
G01X691284Y1544613D01*
G01X706560Y1530687D01*
G01X724135Y1519805D01*
G01X743410Y1512338D01*
G01X763728Y1508540D01*
G01X784399Y1508540D01*
G01X804718Y1512338D01*
G01X823993Y1519805D01*
G01X841567Y1530687D01*
G01X856843Y1544613D01*
G01X869300Y1561108D01*
G01X878514Y1579612D01*
G01X884170Y1599493D01*
G01X886078Y1620076D01*
G01X884170Y1640659D01*
G01X878514Y1660540D01*
G01X873621Y1670365D01*
G01X1028446Y1670365D01*
G01X1030396Y1649316D01*
G01X1036182Y1628983D01*
G01X1045604Y1610060D01*
G01X1058344Y1593190D01*
G01X1073966Y1578949D01*
G01X1091939Y1567820D01*
G01X1111651Y1560184D01*
G01X1132430Y1556300D01*
G01X1153570Y1556300D01*
G01X1174349Y1560184D01*
G01X1194061Y1567820D01*
G01X1212034Y1578949D01*
G01X1227656Y1593190D01*
G01X1240396Y1610060D01*
G01X1249818Y1628983D01*
G01X1255604Y1649316D01*
G01X1257554Y1670365D01*
G01X1257554Y1670365D01*
G01X1255604Y1691414D01*
G01X1249818Y1711747D01*
G01X1240396Y1730670D01*
G01X1227656Y1747539D01*
G01X1212034Y1761781D01*
G01X1194061Y1772909D01*
G01X1174349Y1780546D01*
G01X1153570Y1784430D01*
G01X1132430Y1784430D01*
G01X1111651Y1780546D01*
G01X1091939Y1772909D01*
G01X1073966Y1761781D01*
G01X1058344Y1747539D01*
G01X1045604Y1730670D01*
G01X1036182Y1711747D01*
G01X1030396Y1691414D01*
G01X1028446Y1670365D01*
G01X873621Y1670365D01*
G01X869300Y1679044D01*
G01X856843Y1695539D01*
G01X841567Y1709465D01*
G01X823993Y1720347D01*
G01X804718Y1727814D01*
G01X784399Y1731612D01*
G01X763728Y1731612D01*
G01X743410Y1727814D01*
G01X724135Y1720347D01*
G01X706560Y1709465D01*
G01X691284Y1695539D01*
G01X678828Y1679044D01*
G01X669614Y1660540D01*
G01X663957Y1640659D01*
G01X662050Y1620076D01*
G01X662050Y1620076D01*
G01X-294386Y1620076D01*
G01X-294386Y1651000D01*
G01X-296326Y1664581D01*
G01X-301989Y1677075D01*
G01X-304074Y1692912D01*
G01X-309886Y1707790D01*
G01X-319086Y1720847D01*
G01X-331142Y1731326D01*
G01X-345353Y1738617D01*
G01X-360896Y1742299D01*
G01X-376868Y1742158D01*
G01X-392343Y1738202D01*
G01X-406424Y1730660D01*
G01X-418292Y1719970D01*
G01X-427260Y1706752D01*
G01X-432807Y1691773D01*
G01X-434612Y1675903D01*
G01X-432570Y1660061D01*
G01X-426798Y1645167D01*
G01X-417633Y1632085D01*
G01X-405606Y1621575D01*
G01X-391414Y1614245D01*
G01X-391414Y903691D01*
G01X-405823Y899693D01*
G01X-418970Y892568D01*
G01X-430186Y882678D01*
G01X-438901Y870527D01*
G01X-444672Y856733D01*
G01X-447205Y841995D01*
G01X-639412Y841995D01*
G01X-637922Y858076D01*
G01X-637922Y858076D01*
G01X-639830Y878659D01*
G01X-645486Y898540D01*
G01X-654700Y917044D01*
G01X-667157Y933539D01*
G01X-682433Y947465D01*
G01X-700007Y958347D01*
G01X-719282Y965814D01*
G01X-739601Y969612D01*
G01X-760272Y969612D01*
G01X-780590Y965814D01*
G01X-799865Y958347D01*
G01X-817440Y947465D01*
G01X-832716Y933539D01*
G01X-845172Y917044D01*
G01X-854386Y898540D01*
G01X-860043Y878659D01*
G01X-861950Y858076D01*
G01X-1039693Y858076D01*
G01X-1035581Y866789D01*
G01X-1030351Y885782D01*
G01X-1028452Y905391D01*
G01X-1029941Y925035D01*
G01X-1034774Y944133D01*
G01X-1042807Y962121D01*
G01X-1053804Y978467D01*
G01X-1067438Y992686D01*
G01X-1083308Y1004359D01*
G01X-1100942Y1013141D01*
G01X-1119821Y1018771D01*
G01X-1139385Y1021084D01*
G01X-1159056Y1020010D01*
G01X-1178252Y1015582D01*
G01X-1196406Y1007930D01*
G01X-1212980Y997281D01*
G01X-1227484Y983950D01*
G01X-1239490Y968331D01*
G01X-1248642Y950885D01*
G01X-1248642Y1116288D01*
G01X-1238648Y1097547D01*
G01X-1225366Y1080973D01*
G01X-1209252Y1067135D01*
G01X-1190861Y1056510D01*
G01X-1170824Y1049463D01*
G01X-1149831Y1046237D01*
G01X-1128603Y1046941D01*
G01X-1107870Y1051553D01*
G01X-1088344Y1059912D01*
G01X-1070698Y1071733D01*
G01X-1055537Y1086608D01*
G01X-1043383Y1104027D01*
G01X-1039754Y1112076D01*
G01X-861950Y1112076D01*
G01X-860043Y1091493D01*
G01X-854386Y1071612D01*
G01X-845172Y1053108D01*
G01X-832716Y1036613D01*
G01X-817440Y1022687D01*
G01X-799865Y1011805D01*
G01X-780590Y1004338D01*
G01X-760272Y1000540D01*
G01X-739601Y1000540D01*
G01X-719282Y1004338D01*
G01X-700007Y1011805D01*
G01X-682433Y1022687D01*
G01X-667157Y1036613D01*
G01X-654700Y1053108D01*
G01X-645486Y1071612D01*
G01X-639830Y1091493D01*
G01X-637922Y1112076D01*
G01X-637922Y1112076D01*
G01X-639830Y1132659D01*
G01X-645486Y1152540D01*
G01X-654700Y1171044D01*
G01X-667157Y1187539D01*
G01X-682433Y1201465D01*
G01X-700007Y1212347D01*
G01X-719282Y1219814D01*
G01X-739601Y1223612D01*
G01X-760272Y1223612D01*
G01X-780590Y1219814D01*
G01X-799865Y1212347D01*
G01X-817440Y1201465D01*
G01X-832716Y1187539D01*
G01X-845172Y1171044D01*
G01X-854386Y1152540D01*
G01X-860043Y1132659D01*
G01X-861950Y1112076D01*
G01X-1039754Y1112076D01*
G01X-1034653Y1123390D01*
G01X-1029649Y1144031D01*
G01X-1028541Y1165242D01*
G01X-1031367Y1186293D01*
G01X-1038032Y1206460D01*
G01X-1048305Y1225050D01*
G01X-1061834Y1241424D01*
G01X-1078153Y1255019D01*
G01X-1096701Y1265368D01*
G01X-1116840Y1272114D01*
G01X-1137880Y1275026D01*
G01X-1159095Y1274005D01*
G01X-1179757Y1269084D01*
G01X-1199155Y1260433D01*
G01X-1216623Y1248350D01*
G01X-1231559Y1233250D01*
G01X-1243452Y1215651D01*
G01X-1251891Y1196160D01*
G01X-1256586Y1175446D01*
G01X-1257377Y1154221D01*
G01X-1265679Y1167821D01*
G01X-1276353Y1179651D01*
G01X-1289030Y1189305D01*
G01X-1303273Y1196448D01*
G01X-1318591Y1200835D01*
G01X-1334456Y1202314D01*
G01X-1374456Y1202314D01*
G01X-1391198Y1200665D01*
G01X-1407296Y1195782D01*
G01X-1422132Y1187852D01*
G01X-1435136Y1177180D01*
G01X-1445808Y1164176D01*
G01X-1453738Y1149340D01*
G01X-1458621Y1133242D01*
G01X-1460270Y1116500D01*
G01X-1488186Y1116500D01*
G01X-1488186Y1414587D01*
G01X-1257554Y1414587D01*
G01X-1255604Y1393538D01*
G01X-1249818Y1373205D01*
G01X-1240396Y1354282D01*
G01X-1227656Y1337412D01*
G01X-1212034Y1323171D01*
G01X-1194061Y1312042D01*
G01X-1174349Y1304406D01*
G01X-1153570Y1300522D01*
G01X-1132430Y1300522D01*
G01X-1111651Y1304406D01*
G01X-1091939Y1312042D01*
G01X-1073966Y1323171D01*
G01X-1058344Y1337412D01*
G01X-1045604Y1354282D01*
G01X-1039732Y1366076D01*
G01X-861950Y1366076D01*
G01X-860043Y1345493D01*
G01X-854386Y1325612D01*
G01X-845172Y1307108D01*
G01X-832716Y1290613D01*
G01X-817440Y1276687D01*
G01X-799865Y1265805D01*
G01X-780590Y1258338D01*
G01X-760272Y1254540D01*
G01X-739601Y1254540D01*
G01X-719282Y1258338D01*
G01X-700007Y1265805D01*
G01X-682433Y1276687D01*
G01X-667157Y1290613D01*
G01X-654700Y1307108D01*
G01X-645486Y1325612D01*
G01X-639830Y1345493D01*
G01X-637922Y1366076D01*
G01X-637922Y1366076D01*
G01X-639830Y1386659D01*
G01X-645486Y1406540D01*
G01X-654700Y1425044D01*
G01X-667157Y1441539D01*
G01X-682433Y1455465D01*
G01X-700007Y1466347D01*
G01X-719282Y1473814D01*
G01X-739601Y1477612D01*
G01X-760272Y1477612D01*
G01X-780590Y1473814D01*
G01X-799865Y1466347D01*
G01X-817440Y1455465D01*
G01X-832716Y1441539D01*
G01X-845172Y1425044D01*
G01X-854386Y1406540D01*
G01X-860043Y1386659D01*
G01X-861950Y1366076D01*
G01X-1039732Y1366076D01*
G01X-1036182Y1373205D01*
G01X-1030396Y1393538D01*
G01X-1028446Y1414587D01*
G01X-1028446Y1414587D01*
G01X-1030396Y1435636D01*
G01X-1036182Y1455969D01*
G01X-1045604Y1474892D01*
G01X-1048401Y1478595D01*
G01X-663113Y1478595D01*
G01X-661201Y1456748D01*
G01X-655525Y1435564D01*
G01X-646257Y1415688D01*
G01X-633678Y1397723D01*
G01X-618170Y1382216D01*
G01X-600206Y1369637D01*
G01X-580330Y1360369D01*
G01X-559146Y1354693D01*
G01X-537299Y1352781D01*
G01X-515452Y1354693D01*
G01X-494268Y1360369D01*
G01X-474392Y1369637D01*
G01X-456427Y1382216D01*
G01X-440920Y1397723D01*
G01X-428341Y1415688D01*
G01X-419073Y1435564D01*
G01X-413396Y1456748D01*
G01X-411485Y1478595D01*
G01X-413396Y1500442D01*
G01X-419073Y1521626D01*
G01X-428341Y1541502D01*
G01X-440920Y1559467D01*
G01X-456427Y1574974D01*
G01X-474392Y1587553D01*
G01X-494268Y1596821D01*
G01X-515452Y1602497D01*
G01X-537299Y1604409D01*
G01X-559146Y1602497D01*
G01X-580330Y1596821D01*
G01X-600206Y1587553D01*
G01X-618170Y1574974D01*
G01X-633678Y1559467D01*
G01X-646257Y1541502D01*
G01X-655525Y1521626D01*
G01X-661201Y1500442D01*
G01X-663113Y1478595D01*
G01X-663113Y1478595D01*
G01X-1048401Y1478595D01*
G01X-1058344Y1491761D01*
G01X-1073966Y1506003D01*
G01X-1091939Y1517131D01*
G01X-1111651Y1524768D01*
G01X-1132430Y1528652D01*
G01X-1153570Y1528652D01*
G01X-1174349Y1524768D01*
G01X-1194061Y1517131D01*
G01X-1212034Y1506003D01*
G01X-1227656Y1491761D01*
G01X-1240396Y1474892D01*
G01X-1249818Y1455969D01*
G01X-1255604Y1435636D01*
G01X-1257554Y1414587D01*
G01X-1488186Y1414587D01*
G01X-1488186Y1668587D01*
G01X-1257554Y1668587D01*
G01X-1255604Y1647538D01*
G01X-1249818Y1627205D01*
G01X-1240396Y1608282D01*
G01X-1227656Y1591412D01*
G01X-1212034Y1577171D01*
G01X-1194061Y1566042D01*
G01X-1174349Y1558406D01*
G01X-1153570Y1554522D01*
G01X-1132430Y1554522D01*
G01X-1111651Y1558406D01*
G01X-1091939Y1566042D01*
G01X-1073966Y1577171D01*
G01X-1058344Y1591412D01*
G01X-1045604Y1608282D01*
G01X-1039732Y1620076D01*
G01X-861950Y1620076D01*
G01X-860043Y1599493D01*
G01X-854386Y1579612D01*
G01X-845172Y1561108D01*
G01X-832716Y1544613D01*
G01X-817440Y1530687D01*
G01X-799865Y1519805D01*
G01X-780590Y1512338D01*
G01X-760272Y1508540D01*
G01X-739601Y1508540D01*
G01X-719282Y1512338D01*
G01X-700007Y1519805D01*
G01X-682433Y1530687D01*
G01X-667157Y1544613D01*
G01X-654700Y1561108D01*
G01X-645486Y1579612D01*
G01X-639830Y1599493D01*
G01X-637922Y1620076D01*
G01X-637922Y1620076D01*
G01X-639830Y1640659D01*
G01X-645486Y1660540D01*
G01X-654700Y1679044D01*
G01X-667157Y1695539D01*
G01X-682433Y1709465D01*
G01X-700007Y1720347D01*
G01X-719282Y1727814D01*
G01X-739601Y1731612D01*
G01X-760272Y1731612D01*
G01X-780590Y1727814D01*
G01X-799865Y1720347D01*
G01X-817440Y1709465D01*
G01X-832716Y1695539D01*
G01X-845172Y1679044D01*
G01X-854386Y1660540D01*
G01X-860043Y1640659D01*
G01X-861950Y1620076D01*
G01X-1039732Y1620076D01*
G01X-1036182Y1627205D01*
G01X-1030396Y1647538D01*
G01X-1028446Y1668587D01*
G01X-1028446Y1668587D01*
G01X-1030396Y1689636D01*
G01X-1036182Y1709969D01*
G01X-1045604Y1728892D01*
G01X-1058344Y1745761D01*
G01X-1073966Y1760003D01*
G01X-1091939Y1771131D01*
G01X-1111651Y1778768D01*
G01X-1132430Y1782652D01*
G01X-1153570Y1782652D01*
G01X-1174349Y1778768D01*
G01X-1194061Y1771131D01*
G01X-1212034Y1760003D01*
G01X-1227656Y1745761D01*
G01X-1240396Y1728892D01*
G01X-1249818Y1709969D01*
G01X-1255604Y1689636D01*
G01X-1257554Y1668587D01*
G01X-1488186Y1668587D01*
G01X-1488186Y2044700D01*
G01X-1450814Y2044700D01*
G01X-1448794Y2017751D01*
G01X-1442781Y1991404D01*
G01X-1432908Y1966248D01*
G01X-1419396Y1942844D01*
G01X-1402546Y1921715D01*
G01X-1382736Y1903334D01*
G01X-1360407Y1888111D01*
G01X-1336059Y1876385D01*
G01X-1310235Y1868419D01*
G01X-1283512Y1864392D01*
G01X-1256488Y1864392D01*
G01X-1229765Y1868419D01*
G01X-1203941Y1876385D01*
G01X-1179593Y1888111D01*
G01X-1157264Y1903334D01*
G01X-1137454Y1921715D01*
G01X-1120604Y1942844D01*
G01X-1107092Y1966248D01*
G01X-1097219Y1991404D01*
G01X-1091206Y2017751D01*
G01X-1089186Y2044700D01*
G01X-1089186Y2044700D01*
G01X1089186Y2044700D01*
G01X1091206Y2017751D01*
G01X1097219Y1991404D01*
G01X1107092Y1966248D01*
G01X1120604Y1942844D01*
G01X1137454Y1921715D01*
G01X1157264Y1903334D01*
G01X1179593Y1888111D01*
G01X1203941Y1876385D01*
G01X1229765Y1868419D01*
G01X1256488Y1864392D01*
G01X1283512Y1864392D01*
G01X1310235Y1868419D01*
G01X1336059Y1876385D01*
G01X1360407Y1888111D01*
G01X1382736Y1903334D01*
G01X1402546Y1921715D01*
G01X1419396Y1942844D01*
G01X1432908Y1966248D01*
G01X1442781Y1991404D01*
G01X1448794Y2017751D01*
G01X1450814Y2044700D01*
G01X1448794Y2071649D01*
G01X1442781Y2097996D01*
G01X1432908Y2123152D01*
G01X1419396Y2146556D01*
G01X1402546Y2167685D01*
G01X1382736Y2186066D01*
G01X1360407Y2201289D01*
G01X1336059Y2213015D01*
G01X1310235Y2220981D01*
G01X1283512Y2225008D01*
G01X1256488Y2225008D01*
G01X1229765Y2220981D01*
G01X1203941Y2213015D01*
G01X1179593Y2201289D01*
G01X1157264Y2186066D01*
G01X1137454Y2167685D01*
G01X1120604Y2146556D01*
G01X1107092Y2123152D01*
G01X1097219Y2097996D01*
G01X1091206Y2071649D01*
G01X1089186Y2044700D01*
G01X1089186Y2044700D01*
G01X-1089186Y2044700D01*
G01X-1091206Y2071649D01*
G01X-1097219Y2097996D01*
G01X-1107092Y2123152D01*
G01X-1120604Y2146556D01*
G01X-1137454Y2167685D01*
G01X-1157264Y2186066D01*
G01X-1179593Y2201289D01*
G01X-1203941Y2213015D01*
G01X-1229765Y2220981D01*
G01X-1256488Y2225008D01*
G01X-1283512Y2225008D01*
G01X-1310235Y2220981D01*
G01X-1336059Y2213015D01*
G01X-1360407Y2201289D01*
G01X-1382736Y2186066D01*
G01X-1402546Y2167685D01*
G01X-1419396Y2146556D01*
G01X-1432908Y2123152D01*
G01X-1442781Y2097996D01*
G01X-1448794Y2071649D01*
G01X-1450814Y2044700D01*
G01X-1450814Y2044700D01*
G01X-1488186Y2044700D01*
G01X-1488186Y2198700D01*
G37*
G54D10*
G01X-1488186Y2198700D02*
G02X-1424000Y2262886I64186J0D01*
G01X1424000Y2262886D01*
G02X1488186Y2198700I0J-64186D01*
G01X1488186Y-2668600D01*
G02X1424000Y-2732786I-64186J0D01*
G01X-1424000Y-2732786D01*
G02X-1488186Y-2668600I0J64186D01*
G01X-1488186Y2198700D01*
G01X-1068443Y819616D02*
G03X-1066135Y737524I53205J-39582D01*
G03X-1257542Y650959I-76865J-84937D01*
G03X-1063752Y569868I114542J1628D01*
G01X-1063752Y481306D01*
G03X-1257196Y389535I-79248J-82719D01*
G03X-1051710Y329387I114196J9052D01*
G03X-1049543Y327073I36472J31991D01*
G01X-855632Y133163D01*
G03X-670730Y16870I105696J-37087D01*
G03X-787023Y201772I-79206J79206D01*
G01X-966724Y381473D01*
G01X-966724Y734824D01*
G03X-966039Y824497I-48514J45210D01*
G03X-1055324Y832861I-49199J-44463D01*
G03X-1083308Y1004359I-87676J73726D01*
G03X-1248642Y950885I-59692J-97772D01*
G01X-1248642Y1116288D01*
G03X-1031367Y1186293I105642J44298D01*
G03X-1257377Y1154221I-111633J-25706D01*
G03X-1334456Y1202314I-77079J-37721D01*
G01X-1374456Y1202314D01*
G03X-1460270Y1116500I0J-85814D01*
G01X-1460270Y946500D01*
G03X-1374456Y860686I85814J0D01*
G01X-1334456Y860686D01*
G03X-1257539Y908450I0J85814D01*
G03X-1068443Y819616I114539J-1864D01*
G01X-1334456Y-1331686D02*
G01X-1374456Y-1331686D01*
G03X-1460270Y-1417500I0J-85814D01*
G01X-1460270Y-1587500D01*
G03X-1374456Y-1673314I85814J0D01*
G01X-1334456Y-1673314D01*
G03X-1257240Y-1624940I0J85814D01*
G03X-1031604Y-1660127I114240J-8473D01*
G03X-1248658Y-1589153I-111396J26714D01*
G01X-1248642Y-1587500D01*
G01X-1248642Y-1423712D01*
G03X-1030696Y-1356820I105642J44298D01*
G03X-1257567Y-1379419I-112310J-22597D01*
G03X-1334456Y-1331686I-76910J-38093D01*
G01X-1450814Y2044700D02*
G03X-1089186Y2044700I180814J0D01*
G03X-1450814Y2044700I-180814J0D01*
G01X-1450814Y-2514600D02*
G03X-1089186Y-2514600I180814J0D01*
G03X-1450814Y-2514600I-180814J0D01*
G01X-1028446Y1668587D02*
G03X-1257554Y1668587I-114554J0D01*
G03X-1028446Y1668587I114554J0D01*
G01X-1028446Y1414587D02*
G03X-1257554Y1414587I-114554J0D01*
G03X-1028446Y1414587I114554J0D01*
G01X-1028446Y-1125413D02*
G03X-1257554Y-1125413I-114554J0D01*
G03X-1028446Y-1125413I114554J0D01*
G01X-903316Y-2022566D02*
G01X-1028851Y-1897032D01*
G03X-1224002Y-1806411I-114149J9619D01*
G03X-1133381Y-2001562I81002J-81002D01*
G01X-1099506Y-2035437D01*
G03X-1224002Y-2222415I-43494J-105976D01*
G03X-1037024Y-2097919I81002J81002D01*
G01X-986198Y-2148746D01*
G03X-933933Y-2170394I52265J52265D01*
G01X779384Y-2170394D01*
G03X981456Y-2096480I87518J73914D01*
G03X779384Y-2022566I-114554J0D01*
G01X-903316Y-2022566D01*
G01X-1028446Y-109413D02*
G03X-1257554Y-109413I-114554J0D01*
G03X-1028446Y-109413I114554J0D01*
G01X-1028446Y144587D02*
G03X-1257554Y144587I-114554J0D01*
G03X-1028446Y144587I114554J0D01*
G01X-1028446Y-871413D02*
G03X-1257554Y-871413I-114554J0D01*
G03X-1028446Y-871413I114554J0D01*
G01X-637922Y1620076D02*
G03X-861950Y1620076I-112014J0D01*
G03X-637922Y1620076I112014J0D01*
G01X-637922Y1366076D02*
G03X-861950Y1366076I-112014J0D01*
G03X-637922Y1366076I112014J0D01*
G01X-637922Y604076D02*
G03X-861950Y604076I-112014J0D01*
G03X-637922Y604076I112014J0D01*
G01X-637922Y350076D02*
G03X-861950Y350076I-112014J0D01*
G03X-637922Y350076I112014J0D01*
G01X-637922Y1112076D02*
G03X-861950Y1112076I-112014J0D01*
G03X-637922Y1112076I112014J0D01*
G01X-637922Y858076D02*
G03X-861950Y858076I-112014J0D01*
G03X-637922Y858076I112014J0D01*
G01X-663113Y1478595D02*
G03X-411485Y1478595I125814J0D01*
G03X-663113Y1478595I-125814J0D01*
G01X-424934Y788527D02*
G03X-314727Y835864I43934J49673D01*
G01X-308595Y841995D01*
G03X-294386Y876300I-34305J34305D01*
G01X-294386Y1651000D01*
G03X-301989Y1677075I-48514J0D01*
G03X-406424Y1730660I-66311J-675D01*
G03X-391414Y1614245I38124J-54260D01*
G01X-391414Y903691D01*
G03X-424934Y788527I10414J-65491D01*
G01X-398113Y478597D02*
G03X-76486Y478597I160814J0D01*
G03X-398113Y478597I-160814J0D01*
G01X-237391Y1367691D02*
G03X-192836Y1254527I46891J-46891D01*
G01X-148823Y1210514D01*
G03X-35659Y1165959I66273J2336D01*
G03X-80214Y1279123I-46891J46891D01*
G01X-124227Y1323136D01*
G03X-237391Y1367691I-66273J-2336D01*
G01X649955Y-455863D02*
G03X624586Y-517108I61245J-61245D01*
G01X624586Y-1432778D01*
G03X649955Y-1494024I86614J0D01*
G01X752644Y-1596713D01*
G03X947904Y-1669482I114258J8233D01*
G03X875135Y-1474223I-81002J81002D01*
G01X848451Y-1447539D01*
G03X978096Y-1306938I18451J113058D01*
G03X797814Y-1243105I-111194J-27542D01*
G01X797814Y-960782D01*
G03X981456Y-869406I69088J91375D01*
G03X797814Y-778031I-114554J0D01*
G01X797814Y-706782D01*
G03X978096Y-642948I69088J91375D01*
G03X848451Y-502348I-111194J27542D01*
G01X875135Y-475664D01*
G03X980930Y-372372I-8233J114258D01*
G03X896758Y-250812I-114028J10966D01*
G01X867903Y-221956D01*
G03X980350Y-91523I-1001J114550D01*
G03X836406Y3014I-113448J-15883D01*
G03X727568Y197984I-62342J93062D01*
G03X803492Y-12003I46495J-101908D01*
G03X752352Y-106406I63410J-95403D01*
G01X362014Y283933D01*
G01X362014Y352115D01*
G03X262700Y639411I-99314J126482D01*
G03X163386Y352115I0J-160814D01*
G01X163386Y242796D01*
G03X192474Y172570I99314J0D01*
G01X735431Y-370387D01*
G01X649955Y-455863D01*
G01X506885Y-1545491D02*
G03X462330Y-1432327I-46891J46891D01*
G01X423382Y-1393379D01*
G01X423382Y-921510D01*
G03X374868Y-809986I-48514J45210D01*
G03X326354Y-921510I0J-66314D01*
G01X326354Y-1413474D01*
G03X340563Y-1447779I48514J0D01*
G01X393721Y-1500936D01*
G03X506885Y-1545491I66273J2336D01*
G01X436885Y1478595D02*
G03X688513Y1478595I125814J0D01*
G03X436885Y1478595I-125814J0D01*
G01X662050Y1366076D02*
G03X886078Y1366076I112014J0D01*
G03X662050Y1366076I-112014J0D01*
G01X662050Y1620076D02*
G03X886078Y1620076I112014J0D01*
G03X662050Y1620076I-112014J0D01*
G01X662050Y1112076D02*
G03X886078Y1112076I112014J0D01*
G03X662050Y1112076I-112014J0D01*
G01X662050Y604076D02*
G03X886078Y604076I112014J0D01*
G03X662050Y604076I-112014J0D01*
G01X662050Y858076D02*
G03X886078Y858076I112014J0D01*
G03X662050Y858076I-112014J0D01*
G01X662050Y350076D02*
G03X886078Y350076I112014J0D01*
G03X662050Y350076I-112014J0D01*
G01X866902Y-1957034D02*
G03X866902Y-1727926I0J114554D01*
G03X866902Y-1957034I0J-114554D01*
G01X1257554Y1670365D02*
G03X1028446Y1670365I-114554J0D01*
G03X1257554Y1670365I114554J0D01*
G01X1257554Y1416365D02*
G03X1028446Y1416365I-114554J0D01*
G03X1257554Y1416365I114554J0D01*
G01X1257554Y-615635D02*
G03X1028446Y-615635I-114554J0D01*
G03X1257554Y-615635I114554J0D01*
G01X1257554Y-1123635D02*
G03X1028446Y-1123635I-114554J0D01*
G03X1257554Y-1123635I114554J0D01*
G01X1257554Y-2141413D02*
G03X1028446Y-2141413I-114554J0D01*
G03X1257554Y-2141413I114554J0D01*
G01X1257554Y-1887413D02*
G03X1028446Y-1887413I-114554J0D01*
G03X1257554Y-1887413I114554J0D01*
G01X1248786Y-1587500D02*
G01X1248810Y-1589516D01*
G03X1031600Y-1660108I-105810J-43897D01*
G03X1257213Y-1624586I111400J26695D01*
G03X1334600Y-1673314I77386J37086D01*
G01X1374600Y-1673314D01*
G03X1460414Y-1587500I0J85814D01*
G01X1460414Y-1417500D01*
G03X1374600Y-1331686I-85814J0D01*
G01X1334600Y-1331686D01*
G03X1257534Y-1379751I0J-85814D01*
G03X1030871Y-1354188I-114534J2116D01*
G03X1248786Y-1421589I112129J-23447D01*
G01X1248786Y-1587500D01*
G01X1334582Y860686D02*
G01X1374582Y860686D01*
G03X1460396Y946500I0J85814D01*
G01X1460396Y1116500D01*
G03X1374582Y1202314I-85814J0D01*
G01X1334582Y1202314D01*
G03X1257221Y1153640I0J-85814D01*
G03X1031594Y1189036I-114221J8725D01*
G03X1248789Y1118419I111406J-26671D01*
G01X1248768Y1116500D01*
G01X1248768Y952362D01*
G03X1030695Y885780I-105768J-43997D01*
G03X1257554Y908676I112305J22585D01*
G03X1334582Y860686I77028J37824D01*
G01X1257554Y146365D02*
G03X1028446Y146365I-114554J0D01*
G03X1257554Y146365I114554J0D01*
G01X1257554Y-107635D02*
G03X1028446Y-107635I-114554J0D01*
G03X1257554Y-107635I114554J0D01*
G01X1257554Y400365D02*
G03X1028446Y400365I-114554J0D01*
G03X1257554Y400365I114554J0D01*
G01X1257554Y-361635D02*
G03X1028446Y-361635I-114554J0D01*
G03X1257554Y-361635I114554J0D01*
G01X1257554Y-869635D02*
G03X1028446Y-869635I-114554J0D01*
G03X1257554Y-869635I114554J0D01*
G01X1257554Y654365D02*
G03X1028446Y654365I-114554J0D01*
G03X1257554Y654365I114554J0D01*
G01X1089186Y2044700D02*
G03X1450814Y2044700I180814J0D01*
G03X1089186Y2044700I-180814J0D01*
G01X1089186Y-2514600D02*
G03X1450814Y-2514600I180814J0D01*
G03X1089186Y-2514600I-180814J0D01*
G54D11*
G01X-1064514Y-2141413D02*
G01X-1038606Y-2141413D01*
G01X-1221486Y-2141413D02*
G01X-1247394Y-2141413D01*
G01X-1143000Y-2219899D02*
G01X-1143000Y-2245807D01*
G01X-1143000Y-2062927D02*
G01X-1143000Y-2037019D01*
G01X-362045Y478597D02*
G01X-387953Y478597D01*
G01X-112554Y478597D02*
G01X-86646Y478597D01*
G01X-237299Y603343D02*
G01X-237299Y629251D01*
G01X-237299Y353851D02*
G01X-237299Y327943D01*
G01X698118Y1366076D02*
G01X672210Y1366076D01*
G01X850010Y1366076D02*
G01X875918Y1366076D01*
G01X774064Y1442022D02*
G01X774064Y1467930D01*
G01X774064Y1290130D02*
G01X774064Y1264222D01*
G01X866902Y-1920966D02*
G01X866902Y-1946874D01*
G01X866902Y-1763994D02*
G01X866902Y-1738086D01*
G01X788416Y-1842480D02*
G01X762508Y-1842480D01*
G01X945388Y-1842480D02*
G01X971296Y-1842480D01*
G01X866902Y-693892D02*
G01X866902Y-719800D01*
G01X866902Y-536920D02*
G01X866902Y-511012D01*
G01X945388Y-615406D02*
G01X971296Y-615406D01*
G01X1221486Y1670365D02*
G01X1247394Y1670365D01*
G01X1064514Y1670365D02*
G01X1038606Y1670365D01*
G01X1143000Y1591879D02*
G01X1143000Y1565971D01*
G01X1143000Y1748851D02*
G01X1143000Y1774759D01*
G04 Copper End*

G04 PolygonModel Start*
G01X638810Y2133600D02*
G01X638810Y1930400D01*

G04 Pad Start*
G54D12*
G01X-1270000Y2044700D03*
G01X1270000Y2044700D03*
G01X1270000Y-2514600D03*
G01X-1270000Y-2514600D03*
G54D13*
G01X-237299Y478597D03*
G01X262700Y478597D03*
G54D14*
G01X562699Y1478595D03*
G01X-537299Y1478595D03*
G54D15*
G01X866902Y-615406D03*
G01X866902Y-869406D03*
G01X866902Y-361406D03*
G01X866902Y-107406D03*
G01X866902Y-1842480D03*
G01X866902Y-2096480D03*
G01X866902Y-1588480D03*
G01X866902Y-1334480D03*
G01X-1143000Y144587D03*
G01X-1143000Y-109413D03*
G01X-1143000Y-871413D03*
G01X-1143000Y-1125413D03*
G01X-1143000Y-1379413D03*
G01X-1143000Y-1633413D03*
G01X-1143000Y-1887413D03*
G01X-1143000Y-2141413D03*
G01X1143000Y-2141413D03*
G01X1143000Y-1887413D03*
G01X1143000Y-1633413D03*
G01X1143000Y-1377635D03*
G01X1143000Y-1123635D03*
G01X1143000Y-869635D03*
G01X1143000Y-615635D03*
G01X1143000Y-361635D03*
G01X1143000Y-107635D03*
G01X1143000Y146365D03*
G01X1143000Y400365D03*
G01X1143000Y654365D03*
G01X1143000Y908365D03*
G01X1143000Y1162365D03*
G01X1143000Y1416365D03*
G01X1143000Y1670365D03*
G01X-1143000Y398587D03*
G01X-1143000Y652587D03*
G01X-1143000Y906587D03*
G01X-1143000Y1160587D03*
G01X-1143000Y1668587D03*
G01X-1143000Y1414587D03*
G54D16*
G01X-749936Y1620076D03*
G01X-749936Y1366076D03*
G01X-749936Y1112076D03*
G01X-749936Y858076D03*
G01X-749936Y604076D03*
G01X-749936Y350076D03*
G01X-749936Y96076D03*
G01X774064Y96076D03*
G01X774064Y350076D03*
G01X774064Y604076D03*
G01X774064Y858076D03*
G01X774064Y1112076D03*
G01X774064Y1366076D03*
G01X774064Y1620076D03*
G04 Pad End*

G04 Via Start*
G54D18*
G01X86106Y-1638300D03*
G01X-292100Y-1028700D03*
G01X-292100Y-419100D03*
G01X-12700Y609600D03*
G01X-381000Y838200D03*
G01X-368300Y1676400D03*
G01X-1015238Y780034D03*
G01X-82550Y1212850D03*
G01X-190500Y1320800D03*
G01X431800Y1851050D03*
G01X148082Y1117600D03*
G01X374868Y-876300D03*
G01X459994Y-1498600D03*
G01X-812800Y-1536700D03*
G04 Via End*

G04 Track Start*
G54D19*
G01X866902Y-2096480D02*
G01X-933933Y-2096480D01*
G01X-1143000Y-1887413D01*
G54D20*
G01X262700Y478597D02*
G01X262700Y242796D01*
G01X866902Y-361406D01*
G54D21*
G01X711200Y-517108D02*
G01X866902Y-361406D01*
G01X711200Y-1432778D02*
G01X711200Y-517108D01*
G01X866902Y-1588480D02*
G01X711200Y-1432778D01*
G54D11*
G01X-342900Y1651000D02*
G01X-368300Y1676400D01*
G01X-381000Y838200D02*
G01X-342900Y876300D01*
G01X-342900Y1651000D01*
G01X-749936Y96076D02*
G01X-1015238Y361378D01*
G01X-1015238Y780034D01*
G01X374868Y-876300D02*
G01X374868Y-1413474D01*
G01X459994Y-1498600D01*
G01X-82550Y1212850D02*
G01X-190500Y1320800D01*
G04 Track End*

M02*

