G04 Layer: BottomSilkscreenLayer*
G04 EasyEDA Pro v2.2.36.7, 2025-07-16 21:13:32*
G04 Gerber Generator version 0.3*
G04 Scale: 100 percent, Rotated: No, Reflected: No*
G04 Dimensions in millimeters*
G04 Leading zeros omitted, absolute positions, 4 integers and 5 decimals*
%FSLAX45Y45*%
%MOMM*%
%ADD10C,0.1524*%
%ADD11C,0.508*%
%ADD12C,0.2032*%
%ADD13C,0.254*%
G75*


G04 Text Start*
G54D10*
G01X590804Y-2455164D02*
G01X590804Y-2503678D01*
G01X590804Y-2478278D02*
G01X595376Y-2473706D01*
G01X599948Y-2471420D01*
G01X607060Y-2471420D01*
G01X611632Y-2473706D01*
G01X616204Y-2478278D01*
G01X618490Y-2485136D01*
G01X618490Y-2489708D01*
G01X616204Y-2496566D01*
G01X611632Y-2501392D01*
G01X607060Y-2503678D01*
G01X599948Y-2503678D01*
G01X595376Y-2501392D01*
G01X590804Y-2496566D01*
G01X564388Y-2485136D02*
G01X536956Y-2485136D01*
G01X536956Y-2480564D01*
G01X539242Y-2475992D01*
G01X541528Y-2473706D01*
G01X546100Y-2471420D01*
G01X552958Y-2471420D01*
G01X557530Y-2473706D01*
G01X562102Y-2478278D01*
G01X564388Y-2485136D01*
G01X564388Y-2489708D01*
G01X562102Y-2496566D01*
G01X557530Y-2501392D01*
G01X552958Y-2503678D01*
G01X546100Y-2503678D01*
G01X541528Y-2501392D01*
G01X536956Y-2496566D01*
G01X485394Y-2478278D02*
G01X487680Y-2473706D01*
G01X494538Y-2471420D01*
G01X501396Y-2471420D01*
G01X508254Y-2473706D01*
G01X510540Y-2478278D01*
G01X508254Y-2482850D01*
G01X503682Y-2485136D01*
G01X492252Y-2487422D01*
G01X487680Y-2489708D01*
G01X485394Y-2494280D01*
G01X485394Y-2496566D01*
G01X487680Y-2501392D01*
G01X494538Y-2503678D01*
G01X501396Y-2503678D01*
G01X508254Y-2501392D01*
G01X510540Y-2496566D01*
G01X458978Y-2455164D02*
G01X456692Y-2457450D01*
G01X454406Y-2455164D01*
G01X456692Y-2452878D01*
G01X458978Y-2455164D01*
G01X456692Y-2471420D02*
G01X456692Y-2503678D01*
G01X400558Y-2471420D02*
G01X400558Y-2508250D01*
G01X402844Y-2515108D01*
G01X405130Y-2517394D01*
G01X409702Y-2519680D01*
G01X416560Y-2519680D01*
G01X421132Y-2517394D01*
G01X400558Y-2478278D02*
G01X405130Y-2473706D01*
G01X409702Y-2471420D01*
G01X416560Y-2471420D01*
G01X421132Y-2473706D01*
G01X425704Y-2478278D01*
G01X427990Y-2485136D01*
G01X427990Y-2489708D01*
G01X425704Y-2496566D01*
G01X421132Y-2501392D01*
G01X416560Y-2503678D01*
G01X409702Y-2503678D01*
G01X405130Y-2501392D01*
G01X400558Y-2496566D01*
G01X374142Y-2471420D02*
G01X374142Y-2503678D01*
G01X374142Y-2480564D02*
G01X367284Y-2473706D01*
G01X362712Y-2471420D01*
G01X355854Y-2471420D01*
G01X351282Y-2473706D01*
G01X348996Y-2480564D01*
G01X348996Y-2503678D01*
G01X322580Y-2485136D02*
G01X295148Y-2485136D01*
G01X295148Y-2480564D01*
G01X297434Y-2475992D01*
G01X299720Y-2473706D01*
G01X304292Y-2471420D01*
G01X311150Y-2471420D01*
G01X315722Y-2473706D01*
G01X320294Y-2478278D01*
G01X322580Y-2485136D01*
G01X322580Y-2489708D01*
G01X320294Y-2496566D01*
G01X315722Y-2501392D01*
G01X311150Y-2503678D01*
G01X304292Y-2503678D01*
G01X299720Y-2501392D01*
G01X295148Y-2496566D01*
G01X241300Y-2455164D02*
G01X241300Y-2503678D01*
G01X241300Y-2478278D02*
G01X245872Y-2473706D01*
G01X250444Y-2471420D01*
G01X257302Y-2471420D01*
G01X261874Y-2473706D01*
G01X266446Y-2478278D01*
G01X268732Y-2485136D01*
G01X268732Y-2489708D01*
G01X266446Y-2496566D01*
G01X261874Y-2501392D01*
G01X257302Y-2503678D01*
G01X250444Y-2503678D01*
G01X245872Y-2501392D01*
G01X241300Y-2496566D01*
G01X163322Y-2455164D02*
G01X163322Y-2503678D01*
G01X163322Y-2478278D02*
G01X158750Y-2473706D01*
G01X154178Y-2471420D01*
G01X147320Y-2471420D01*
G01X142748Y-2473706D01*
G01X138176Y-2478278D01*
G01X135890Y-2485136D01*
G01X135890Y-2489708D01*
G01X138176Y-2496566D01*
G01X142748Y-2501392D01*
G01X147320Y-2503678D01*
G01X154178Y-2503678D01*
G01X158750Y-2501392D01*
G01X163322Y-2496566D01*
G01X107188Y-2471420D02*
G01X93472Y-2503678D01*
G01X79756Y-2471420D02*
G01X93472Y-2503678D01*
G01X98044Y-2512822D01*
G01X102616Y-2517394D01*
G01X107188Y-2519680D01*
G01X109474Y-2519680D01*
G01X-14224Y-2455164D02*
G01X-14224Y-2503678D01*
G01X1778Y-2455164D02*
G01X-30226Y-2455164D01*
G01X-84074Y-2471420D02*
G01X-84074Y-2503678D01*
G01X-84074Y-2478278D02*
G01X-79502Y-2473706D01*
G01X-74930Y-2471420D01*
G01X-68072Y-2471420D01*
G01X-63500Y-2473706D01*
G01X-58928Y-2478278D01*
G01X-56642Y-2485136D01*
G01X-56642Y-2489708D01*
G01X-58928Y-2496566D01*
G01X-63500Y-2501392D01*
G01X-68072Y-2503678D01*
G01X-74930Y-2503678D01*
G01X-79502Y-2501392D01*
G01X-84074Y-2496566D01*
G01X-137922Y-2455164D02*
G01X-137922Y-2503678D01*
G01X-137922Y-2478278D02*
G01X-133350Y-2473706D01*
G01X-128778Y-2471420D01*
G01X-121920Y-2471420D01*
G01X-117348Y-2473706D01*
G01X-112776Y-2478278D01*
G01X-110490Y-2485136D01*
G01X-110490Y-2489708D01*
G01X-112776Y-2496566D01*
G01X-117348Y-2501392D01*
G01X-121920Y-2503678D01*
G01X-128778Y-2503678D01*
G01X-133350Y-2501392D01*
G01X-137922Y-2496566D01*
G01X-164338Y-2485136D02*
G01X-191770Y-2485136D01*
G01X-191770Y-2480564D01*
G01X-189484Y-2475992D01*
G01X-187198Y-2473706D01*
G01X-182626Y-2471420D01*
G01X-175768Y-2471420D01*
G01X-171196Y-2473706D01*
G01X-166624Y-2478278D01*
G01X-164338Y-2485136D01*
G01X-164338Y-2489708D01*
G01X-166624Y-2496566D01*
G01X-171196Y-2501392D01*
G01X-175768Y-2503678D01*
G01X-182626Y-2503678D01*
G01X-187198Y-2501392D01*
G01X-191770Y-2496566D01*
G01X-245618Y-2471420D02*
G01X-245618Y-2503678D01*
G01X-245618Y-2478278D02*
G01X-241046Y-2473706D01*
G01X-236474Y-2471420D01*
G01X-229616Y-2471420D01*
G01X-225044Y-2473706D01*
G01X-220472Y-2478278D01*
G01X-218186Y-2485136D01*
G01X-218186Y-2489708D01*
G01X-220472Y-2496566D01*
G01X-225044Y-2501392D01*
G01X-229616Y-2503678D01*
G01X-236474Y-2503678D01*
G01X-241046Y-2501392D01*
G01X-245618Y-2496566D01*
G01X-297180Y-2478278D02*
G01X-294894Y-2473706D01*
G01X-288036Y-2471420D01*
G01X-281178Y-2471420D01*
G01X-274320Y-2473706D01*
G01X-272034Y-2478278D01*
G01X-274320Y-2482850D01*
G01X-278892Y-2485136D01*
G01X-290322Y-2487422D01*
G01X-294894Y-2489708D01*
G01X-297180Y-2494280D01*
G01X-297180Y-2496566D01*
G01X-294894Y-2501392D01*
G01X-288036Y-2503678D01*
G01X-281178Y-2503678D01*
G01X-274320Y-2501392D01*
G01X-272034Y-2496566D01*
G01X-391160Y-2455164D02*
G01X-391160Y-2503678D01*
G01X-375158Y-2455164D02*
G01X-407162Y-2455164D01*
G01X-433578Y-2485136D02*
G01X-461010Y-2485136D01*
G01X-461010Y-2480564D01*
G01X-458724Y-2475992D01*
G01X-456438Y-2473706D01*
G01X-451866Y-2471420D01*
G01X-445008Y-2471420D01*
G01X-440436Y-2473706D01*
G01X-435864Y-2478278D01*
G01X-433578Y-2485136D01*
G01X-433578Y-2489708D01*
G01X-435864Y-2496566D01*
G01X-440436Y-2501392D01*
G01X-445008Y-2503678D01*
G01X-451866Y-2503678D01*
G01X-456438Y-2501392D01*
G01X-461010Y-2496566D01*
G01X-487426Y-2455164D02*
G01X-487426Y-2503678D01*
G01X-487426Y-2480564D02*
G01X-494284Y-2473706D01*
G01X-498856Y-2471420D01*
G01X-505714Y-2471420D01*
G01X-510286Y-2473706D01*
G01X-512572Y-2480564D01*
G01X-512572Y-2503678D01*
G01X-566420Y-2471420D02*
G01X-566420Y-2503678D01*
G01X-566420Y-2478278D02*
G01X-561848Y-2473706D01*
G01X-557276Y-2471420D01*
G01X-550418Y-2471420D01*
G01X-545846Y-2473706D01*
G01X-541274Y-2478278D01*
G01X-538988Y-2485136D01*
G01X-538988Y-2489708D01*
G01X-541274Y-2496566D01*
G01X-545846Y-2501392D01*
G01X-550418Y-2503678D01*
G01X-557276Y-2503678D01*
G01X-561848Y-2501392D01*
G01X-566420Y-2496566D01*
G01X-592836Y-2471420D02*
G01X-592836Y-2503678D01*
G01X-592836Y-2480564D02*
G01X-599694Y-2473706D01*
G01X-604266Y-2471420D01*
G01X-611124Y-2471420D01*
G01X-615696Y-2473706D01*
G01X-617982Y-2480564D01*
G01X-617982Y-2503678D01*
G01X604520Y-2594864D02*
G01X611378Y-2597150D01*
G01X615950Y-2604262D01*
G01X618236Y-2615692D01*
G01X618236Y-2622550D01*
G01X615950Y-2633980D01*
G01X611378Y-2641092D01*
G01X604520Y-2643378D01*
G01X599694Y-2643378D01*
G01X592836Y-2641092D01*
G01X588264Y-2633980D01*
G01X585978Y-2622550D01*
G01X585978Y-2615692D01*
G01X588264Y-2604262D01*
G01X592836Y-2597150D01*
G01X599694Y-2594864D01*
G01X604520Y-2594864D01*
G01X532130Y-2594864D02*
G01X554990Y-2594864D01*
G01X557276Y-2615692D01*
G01X554990Y-2613406D01*
G01X548132Y-2611120D01*
G01X541274Y-2611120D01*
G01X534416Y-2613406D01*
G01X529844Y-2617978D01*
G01X527558Y-2624836D01*
G01X527558Y-2629408D01*
G01X529844Y-2636266D01*
G01X534416Y-2641092D01*
G01X541274Y-2643378D01*
G01X548132Y-2643378D01*
G01X554990Y-2641092D01*
G01X557276Y-2638552D01*
G01X559562Y-2633980D01*
G01X459740Y-2585720D02*
G01X501142Y-2659380D01*
G01X431038Y-2606548D02*
G01X431038Y-2604262D01*
G01X428752Y-2599436D01*
G01X426466Y-2597150D01*
G01X421894Y-2594864D01*
G01X412750Y-2594864D01*
G01X408178Y-2597150D01*
G01X405892Y-2599436D01*
G01X403606Y-2604262D01*
G01X403606Y-2608834D01*
G01X405892Y-2613406D01*
G01X410464Y-2620264D01*
G01X433324Y-2643378D01*
G01X401320Y-2643378D01*
G01X347472Y-2594864D02*
G01X370332Y-2594864D01*
G01X372618Y-2615692D01*
G01X370332Y-2613406D01*
G01X363474Y-2611120D01*
G01X356616Y-2611120D01*
G01X349758Y-2613406D01*
G01X345186Y-2617978D01*
G01X342900Y-2624836D01*
G01X342900Y-2629408D01*
G01X345186Y-2636266D01*
G01X349758Y-2641092D01*
G01X356616Y-2643378D01*
G01X363474Y-2643378D01*
G01X370332Y-2641092D01*
G01X372618Y-2638552D01*
G01X374904Y-2633980D01*
G01X-226314Y-2594864D02*
G01X-226314Y-2643378D01*
G01X-226314Y-2594864D02*
G01X-247142Y-2594864D01*
G01X-254000Y-2597150D01*
G01X-256286Y-2599436D01*
G01X-258572Y-2604262D01*
G01X-258572Y-2608834D01*
G01X-256286Y-2613406D01*
G01X-254000Y-2615692D01*
G01X-247142Y-2617978D01*
G01X-226314Y-2617978D01*
G01X-242316Y-2617978D02*
G01X-258572Y-2643378D01*
G01X-284988Y-2624836D02*
G01X-312420Y-2624836D01*
G01X-312420Y-2620264D01*
G01X-310134Y-2615692D01*
G01X-307848Y-2613406D01*
G01X-303276Y-2611120D01*
G01X-296418Y-2611120D01*
G01X-291846Y-2613406D01*
G01X-287274Y-2617978D01*
G01X-284988Y-2624836D01*
G01X-284988Y-2629408D01*
G01X-287274Y-2636266D01*
G01X-291846Y-2641092D01*
G01X-296418Y-2643378D01*
G01X-303276Y-2643378D01*
G01X-307848Y-2641092D01*
G01X-312420Y-2636266D01*
G01X-338836Y-2611120D02*
G01X-352552Y-2643378D01*
G01X-366268Y-2611120D02*
G01X-352552Y-2643378D01*
G01X-394970Y-2631694D02*
G01X-392684Y-2633980D01*
G01X-394970Y-2636266D01*
G01X-397256Y-2633980D01*
G01X-394970Y-2631694D01*
G01X-423672Y-2604262D02*
G01X-428244Y-2601722D01*
G01X-435102Y-2594864D01*
G01X-435102Y-2643378D01*
G01X-463804Y-2631694D02*
G01X-461518Y-2633980D01*
G01X-463804Y-2636266D01*
G01X-466090Y-2633980D01*
G01X-463804Y-2631694D01*
G01X-506222Y-2594864D02*
G01X-499364Y-2597150D01*
G01X-494792Y-2604262D01*
G01X-492506Y-2615692D01*
G01X-492506Y-2622550D01*
G01X-494792Y-2633980D01*
G01X-499364Y-2641092D01*
G01X-506222Y-2643378D01*
G01X-510794Y-2643378D01*
G01X-517652Y-2641092D01*
G01X-522224Y-2633980D01*
G01X-524510Y-2622550D01*
G01X-524510Y-2615692D01*
G01X-522224Y-2604262D01*
G01X-517652Y-2597150D01*
G01X-510794Y-2594864D01*
G01X-506222Y-2594864D01*
G01X-553212Y-2631694D02*
G01X-550926Y-2633980D01*
G01X-553212Y-2636266D01*
G01X-555498Y-2633980D01*
G01X-553212Y-2631694D01*
G01X-595630Y-2594864D02*
G01X-588772Y-2597150D01*
G01X-584200Y-2604262D01*
G01X-581914Y-2615692D01*
G01X-581914Y-2622550D01*
G01X-584200Y-2633980D01*
G01X-588772Y-2641092D01*
G01X-595630Y-2643378D01*
G01X-600202Y-2643378D01*
G01X-607060Y-2641092D01*
G01X-611632Y-2633980D01*
G01X-613918Y-2622550D01*
G01X-613918Y-2615692D01*
G01X-611632Y-2604262D01*
G01X-607060Y-2597150D01*
G01X-600202Y-2594864D01*
G01X-595630Y-2594864D01*
G54D11*
G01X262636Y2104898D02*
G01X262636Y1933448D01*
G01X348488Y2019300D02*
G01X177038Y2019300D01*
G01X-156210Y2019300D02*
G01X-327660Y2019300D01*
G54D10*
G01X796925Y2120138D02*
G01X796925Y2046732D01*
G01X796925Y2120138D02*
G01X768985Y2046732D01*
G01X741045Y2120138D02*
G01X768985Y2046732D01*
G01X741045Y2120138D02*
G01X741045Y2046732D01*
G01X681101Y2120138D02*
G01X709041Y2046732D01*
G01X681101Y2120138D02*
G01X653161Y2046732D01*
G01X698627Y2071116D02*
G01X663575Y2071116D01*
G01X621157Y2120138D02*
G01X572135Y2046732D01*
G01X572135Y2120138D02*
G01X621157Y2046732D01*
G01X796925Y1979168D02*
G01X789813Y1982724D01*
G01X779399Y1993138D01*
G01X779399Y1919732D01*
G01X729869Y1993138D02*
G01X740283Y1989582D01*
G01X743839Y1982724D01*
G01X743839Y1975612D01*
G01X740283Y1968754D01*
G01X733425Y1965198D01*
G01X719455Y1961642D01*
G01X709041Y1958086D01*
G01X701929Y1951228D01*
G01X698373Y1944116D01*
G01X698373Y1933702D01*
G01X701929Y1926844D01*
G01X705485Y1923288D01*
G01X715899Y1919732D01*
G01X729869Y1919732D01*
G01X740283Y1923288D01*
G01X743839Y1926844D01*
G01X747395Y1933702D01*
G01X747395Y1944116D01*
G01X743839Y1951228D01*
G01X736981Y1958086D01*
G01X726313Y1961642D01*
G01X712343Y1965198D01*
G01X705485Y1968754D01*
G01X701929Y1975612D01*
G01X701929Y1982724D01*
G01X705485Y1989582D01*
G01X715899Y1993138D01*
G01X729869Y1993138D01*
G01X666369Y1993138D02*
G01X638429Y1919732D01*
G01X610489Y1993138D02*
G01X638429Y1919732D01*
G01X512318Y-894654D02*
G01X530860Y-846140D01*
G01X549148Y-894654D02*
G01X530860Y-846140D01*
G01X589280Y-894654D02*
G01X584708Y-892368D01*
G01X580136Y-887796D01*
G01X577850Y-882970D01*
G01X575564Y-876112D01*
G01X575564Y-864682D01*
G01X577850Y-857824D01*
G01X580136Y-853252D01*
G01X584708Y-848426D01*
G01X589280Y-846140D01*
G01X598424Y-846140D01*
G01X602996Y-848426D01*
G01X607568Y-853252D01*
G01X609854Y-857824D01*
G01X612394Y-864682D01*
G01X612394Y-876112D01*
G01X609854Y-882970D01*
G01X607568Y-887796D01*
G01X602996Y-892368D01*
G01X598424Y-894654D01*
G01X589280Y-894654D01*
G01X659384Y-887796D02*
G01X659384Y-846140D01*
G01X638810Y-866968D02*
G01X680212Y-866968D01*
G01X534162Y-616270D02*
G01X531876Y-621096D01*
G01X527304Y-625668D01*
G01X522732Y-627954D01*
G01X513334Y-627954D01*
G01X508762Y-625668D01*
G01X504190Y-621096D01*
G01X501904Y-616270D01*
G01X499618Y-609412D01*
G01X499618Y-597982D01*
G01X501904Y-591124D01*
G01X504190Y-586552D01*
G01X508762Y-581726D01*
G01X513334Y-579440D01*
G01X522732Y-579440D01*
G01X527304Y-581726D01*
G01X531876Y-586552D01*
G01X534162Y-591124D01*
G01X534162Y-597982D01*
G01X522732Y-597982D02*
G01X534162Y-597982D01*
G01X560578Y-627954D02*
G01X560578Y-579440D01*
G01X560578Y-627954D02*
G01X592582Y-579440D01*
G01X592582Y-627954D02*
G01X592582Y-579440D01*
G01X618998Y-627954D02*
G01X618998Y-579440D01*
G01X618998Y-627954D02*
G01X635000Y-627954D01*
G01X641858Y-625668D01*
G01X646430Y-621096D01*
G01X648716Y-616270D01*
G01X651002Y-609412D01*
G01X651002Y-597982D01*
G01X648716Y-591124D01*
G01X646430Y-586552D01*
G01X641858Y-581726D01*
G01X635000Y-579440D01*
G01X618998Y-579440D01*
G01X550418Y-386654D02*
G01X550418Y-338140D01*
G01X576834Y-386654D02*
G01X576834Y-338140D01*
G01X576834Y-386654D02*
G01X608838Y-338140D01*
G01X608838Y-386654D02*
G01X608838Y-338140D01*
G01X655828Y-379796D02*
G01X655828Y-338140D01*
G01X635254Y-358968D02*
G01X676656Y-358968D01*
G01X588518Y-132654D02*
G01X588518Y-84140D01*
G01X588518Y-132654D02*
G01X618490Y-132654D01*
G01X588518Y-109540D02*
G01X607060Y-109540D01*
G01X588518Y-84140D02*
G01X618490Y-84140D01*
G01X644906Y-132654D02*
G01X644906Y-84140D01*
G01X644906Y-132654D02*
G01X676910Y-84140D01*
G01X676910Y-132654D02*
G01X676910Y-84140D01*
G54D12*
G01X-717042Y-926658D02*
G01X-821690Y-926658D01*
G01X-717042Y-926658D02*
G01X-821690Y-886780D01*
G01X-717042Y-846902D02*
G01X-821690Y-886780D01*
G01X-717042Y-846902D02*
G01X-821690Y-846902D01*
G01X-717042Y-802706D02*
G01X-821690Y-802706D01*
G01X-717042Y-802706D02*
G01X-717042Y-757748D01*
G01X-722122Y-742762D01*
G01X-726948Y-737682D01*
G01X-737108Y-732856D01*
G01X-751840Y-732856D01*
G01X-762000Y-737682D01*
G01X-766826Y-742762D01*
G01X-771906Y-757748D01*
G01X-771906Y-802706D01*
G01X-741934Y-683580D02*
G01X-737108Y-683580D01*
G01X-726948Y-678500D01*
G01X-722122Y-673674D01*
G01X-717042Y-663514D01*
G01X-717042Y-643702D01*
G01X-722122Y-633796D01*
G01X-726948Y-628716D01*
G01X-737108Y-623636D01*
G01X-747014Y-623636D01*
G01X-756920Y-628716D01*
G01X-771906Y-638622D01*
G01X-821690Y-688660D01*
G01X-821690Y-618810D01*
G01X-717042Y-564454D02*
G01X-717042Y-509590D01*
G01X-756920Y-539562D01*
G01X-756920Y-524576D01*
G01X-762000Y-514670D01*
G01X-766826Y-509590D01*
G01X-781812Y-504764D01*
G01X-791972Y-504764D01*
G01X-806958Y-509590D01*
G01X-816864Y-519750D01*
G01X-821690Y-534736D01*
G01X-821690Y-549468D01*
G01X-816864Y-564454D01*
G01X-811784Y-569534D01*
G01X-801878Y-574614D01*
G01X-737108Y-460568D02*
G01X-732028Y-450408D01*
G01X-717042Y-435422D01*
G01X-821690Y-435422D01*
G01X-717042Y-331282D02*
G01X-717042Y-381066D01*
G01X-762000Y-386146D01*
G01X-756920Y-381066D01*
G01X-751840Y-366080D01*
G01X-751840Y-351348D01*
G01X-756920Y-336362D01*
G01X-766826Y-326202D01*
G01X-781812Y-321376D01*
G01X-791972Y-321376D01*
G01X-806958Y-326202D01*
G01X-816864Y-336362D01*
G01X-821690Y-351348D01*
G01X-821690Y-366080D01*
G01X-816864Y-381066D01*
G01X-811784Y-386146D01*
G01X-801878Y-391226D01*
G54D10*
G01X512318Y-2121728D02*
G01X530860Y-2073214D01*
G01X549148Y-2121728D02*
G01X530860Y-2073214D01*
G01X589280Y-2121728D02*
G01X584708Y-2119442D01*
G01X580136Y-2114870D01*
G01X577850Y-2110044D01*
G01X575564Y-2103186D01*
G01X575564Y-2091756D01*
G01X577850Y-2084898D01*
G01X580136Y-2080326D01*
G01X584708Y-2075500D01*
G01X589280Y-2073214D01*
G01X598424Y-2073214D01*
G01X602996Y-2075500D01*
G01X607568Y-2080326D01*
G01X609854Y-2084898D01*
G01X612394Y-2091756D01*
G01X612394Y-2103186D01*
G01X609854Y-2110044D01*
G01X607568Y-2114870D01*
G01X602996Y-2119442D01*
G01X598424Y-2121728D01*
G01X589280Y-2121728D01*
G01X659384Y-2114870D02*
G01X659384Y-2073214D01*
G01X638810Y-2094042D02*
G01X680212Y-2094042D01*
G01X534162Y-1843344D02*
G01X531876Y-1848170D01*
G01X527304Y-1852742D01*
G01X522732Y-1855028D01*
G01X513334Y-1855028D01*
G01X508762Y-1852742D01*
G01X504190Y-1848170D01*
G01X501904Y-1843344D01*
G01X499618Y-1836486D01*
G01X499618Y-1825056D01*
G01X501904Y-1818198D01*
G01X504190Y-1813626D01*
G01X508762Y-1808800D01*
G01X513334Y-1806514D01*
G01X522732Y-1806514D01*
G01X527304Y-1808800D01*
G01X531876Y-1813626D01*
G01X534162Y-1818198D01*
G01X534162Y-1825056D01*
G01X522732Y-1825056D02*
G01X534162Y-1825056D01*
G01X560578Y-1855028D02*
G01X560578Y-1806514D01*
G01X560578Y-1855028D02*
G01X592582Y-1806514D01*
G01X592582Y-1855028D02*
G01X592582Y-1806514D01*
G01X618998Y-1855028D02*
G01X618998Y-1806514D01*
G01X618998Y-1855028D02*
G01X635000Y-1855028D01*
G01X641858Y-1852742D01*
G01X646430Y-1848170D01*
G01X648716Y-1843344D01*
G01X651002Y-1836486D01*
G01X651002Y-1825056D01*
G01X648716Y-1818198D01*
G01X646430Y-1813626D01*
G01X641858Y-1808800D01*
G01X635000Y-1806514D01*
G01X618998Y-1806514D01*
G01X550418Y-1613728D02*
G01X550418Y-1565214D01*
G01X576834Y-1613728D02*
G01X576834Y-1565214D01*
G01X576834Y-1613728D02*
G01X608838Y-1565214D01*
G01X608838Y-1613728D02*
G01X608838Y-1565214D01*
G01X655828Y-1606870D02*
G01X655828Y-1565214D01*
G01X635254Y-1586042D02*
G01X676656Y-1586042D01*
G01X588518Y-1359728D02*
G01X588518Y-1311214D01*
G01X588518Y-1359728D02*
G01X618490Y-1359728D01*
G01X588518Y-1336614D02*
G01X607060Y-1336614D01*
G01X588518Y-1311214D02*
G01X618490Y-1311214D01*
G01X644906Y-1359728D02*
G01X644906Y-1311214D01*
G01X644906Y-1359728D02*
G01X676910Y-1311214D01*
G01X676910Y-1359728D02*
G01X676910Y-1311214D01*
G54D12*
G01X-717042Y-2153732D02*
G01X-821690Y-2153732D01*
G01X-717042Y-2153732D02*
G01X-821690Y-2113854D01*
G01X-717042Y-2073976D02*
G01X-821690Y-2113854D01*
G01X-717042Y-2073976D02*
G01X-821690Y-2073976D01*
G01X-717042Y-2029780D02*
G01X-821690Y-2029780D01*
G01X-717042Y-2029780D02*
G01X-717042Y-1984822D01*
G01X-722122Y-1969836D01*
G01X-726948Y-1964756D01*
G01X-737108Y-1959930D01*
G01X-751840Y-1959930D01*
G01X-762000Y-1964756D01*
G01X-766826Y-1969836D01*
G01X-771906Y-1984822D01*
G01X-771906Y-2029780D01*
G01X-741934Y-1910654D02*
G01X-737108Y-1910654D01*
G01X-726948Y-1905574D01*
G01X-722122Y-1900748D01*
G01X-717042Y-1890588D01*
G01X-717042Y-1870776D01*
G01X-722122Y-1860870D01*
G01X-726948Y-1855790D01*
G01X-737108Y-1850710D01*
G01X-747014Y-1850710D01*
G01X-756920Y-1855790D01*
G01X-771906Y-1865696D01*
G01X-821690Y-1915734D01*
G01X-821690Y-1845884D01*
G01X-717042Y-1791528D02*
G01X-717042Y-1736664D01*
G01X-756920Y-1766636D01*
G01X-756920Y-1751650D01*
G01X-762000Y-1741744D01*
G01X-766826Y-1736664D01*
G01X-781812Y-1731838D01*
G01X-791972Y-1731838D01*
G01X-806958Y-1736664D01*
G01X-816864Y-1746824D01*
G01X-821690Y-1761810D01*
G01X-821690Y-1776542D01*
G01X-816864Y-1791528D01*
G01X-811784Y-1796608D01*
G01X-801878Y-1801688D01*
G01X-737108Y-1687642D02*
G01X-732028Y-1677482D01*
G01X-717042Y-1662496D01*
G01X-821690Y-1662496D01*
G01X-717042Y-1558356D02*
G01X-717042Y-1608140D01*
G01X-762000Y-1613220D01*
G01X-756920Y-1608140D01*
G01X-751840Y-1593154D01*
G01X-751840Y-1578422D01*
G01X-756920Y-1563436D01*
G01X-766826Y-1553276D01*
G01X-781812Y-1548450D01*
G01X-791972Y-1548450D01*
G01X-806958Y-1553276D01*
G01X-816864Y-1563436D01*
G01X-821690Y-1578422D01*
G01X-821690Y-1593154D01*
G01X-816864Y-1608140D01*
G01X-811784Y-1613220D01*
G01X-801878Y-1618300D01*
G04 Text End*

G04 PolygonModel Start*
G54D13*
G01X-495313Y1626677D02*
G01X-492265Y1793555D01*
G01X-492265Y1793555D02*
G01X520687Y1787713D01*
G01X520687Y1787713D02*
G01X520687Y1633535D01*
G01X-139700Y597596D02*
G01X-139700Y673796D01*
G01X-139700Y673796D02*
G01X-101600Y673796D01*
G01X-101600Y673796D02*
G01X-101600Y876996D01*
G01X-101600Y876996D02*
G01X139700Y876996D01*
G01X139700Y876996D02*
G01X139700Y673796D01*
G01X139700Y673796D02*
G01X165100Y673796D01*
G01X165100Y673796D02*
G01X165100Y597596D01*
G01X355600Y610296D02*
G01X355600Y673796D01*
G01X355600Y673796D02*
G01X393700Y673796D01*
G01X393700Y673796D02*
G01X393700Y876996D01*
G01X393700Y876996D02*
G01X520700Y876996D01*
G01X520700Y876996D02*
G01X520687Y973897D01*
G01X-330200Y610296D02*
G01X-330200Y673796D01*
G01X-330200Y673796D02*
G01X-368300Y673796D01*
G01X-368300Y673796D02*
G01X-368300Y864296D01*
G01X-368300Y864296D02*
G01X-495300Y864296D01*
G01X-495300Y864296D02*
G01X-495313Y973897D01*
G01X520687Y1373589D02*
G01X520687Y973897D01*
G01X-495313Y1373589D02*
G01X-495313Y973897D01*
G01X677687Y1334529D02*
G01X677687Y1633606D01*
G01X-652313Y1337069D02*
G01X-652313Y1626629D01*
G01X520687Y1633606D02*
G01X677687Y1633606D01*
G01X-652313Y1626629D02*
G01X-495313Y1626629D01*
G01X520687Y1334529D02*
G01X677687Y1334529D01*
G01X-652313Y1337069D02*
G01X-495313Y1337069D01*
G01X999998Y-1038418D02*
G01X999998Y61580D01*
G01X999998Y61580D02*
G01X-999998Y61580D01*
G01X-999998Y61580D02*
G01X-999998Y-1038418D01*
G01X-999998Y-1038418D02*
G01X999998Y-1038418D01*
G01X999998Y-2265492D02*
G01X999998Y-1165494D01*
G01X999998Y-1165494D02*
G01X-999998Y-1165494D01*
G01X-999998Y-1165494D02*
G01X-999998Y-2265492D01*
G01X-999998Y-2265492D02*
G01X999998Y-2265492D01*

G04 Rect Start*
G01X1270000Y1794469D02*
G01X1270000Y-2265517D01*
G01X-1270000Y-2265517D01*
G01X-1270000Y1794469D01*
G01X1270000Y1794469D01*
G04 Rect End*

G04 Circle Start*
G01X-1490000Y2044700D02*
G03X-1050000Y2044700I220000J0D01*
G03X-1490000Y2044700I-220000J0D01*
G01X1050000Y2044700D02*
G03X1490000Y2044700I220000J0D01*
G03X1050000Y2044700I-220000J0D01*
G01X1050000Y-2514600D02*
G03X1490000Y-2514600I220000J0D01*
G03X1050000Y-2514600I-220000J0D01*
G01X-1490000Y-2514600D02*
G03X-1050000Y-2514600I220000J0D01*
G03X-1490000Y-2514600I-220000J0D01*
G04 Circle End*

M02*

