G04 Layer: TopSolderMaskLayer*
G04 EasyEDA Pro v2.2.36.7, 2025-07-16 21:13:32*
G04 Gerber Generator version 0.3*
G04 Scale: 100 percent, Rotated: No, Reflected: No*
G04 Dimensions in millimeters*
G04 Leading zeros omitted, absolute positions, 4 integers and 5 decimals*
%FSLAX45Y45*%
%MOMM*%
%AMRoundRect*1,1,$1,$2,$3*1,1,$1,$4,$5*1,1,$1,0-$2,0-$3*1,1,$1,0-$4,0-$5*20,1,$1,$2,$3,$4,$5,0*20,1,$1,$4,$5,0-$2,0-$3,0*20,1,$1,0-$2,0-$3,0-$4,0-$5,0*20,1,$1,0-$4,0-$5,$2,$3,0*4,1,4,$2,$3,$4,$5,0-$2,0-$3,0-$4,0-$5,$2,$3,0*%
%ADD10C,3.002*%
%ADD11RoundRect,0.08906X-0.30647X0.78148X0.30647X0.78148*%
%ADD12RoundRect,0.09459X-0.6037X0.9037X0.6037X0.9037*%
%ADD13RoundRect,0.09049X0.63076X-0.35575X-0.63076X-0.35575*%
%ADD14RoundRect,0.09138X-0.43712X-0.40835X-0.43712X0.40835*%
%ADD15RoundRect,0.09138X0.40835X-0.43712X-0.40835X-0.43712*%
%ADD16RoundRect,0.09138X-0.40835X0.43712X0.40835X0.43712*%
%ADD17C,2.602*%
%ADD18C,1.902*%
%ADD19C,1.6768*%
%ADD20RoundRect,0.08906X-0.30647X0.75647X0.30647X0.75647*%
%ADD21RoundRect,0.09164X-0.40518X0.45518X0.40518X0.45518*%
%ADD22RoundRect,0.08906X0.30647X-0.78148X-0.30647X-0.78148*%
%ADD23RoundRect,0.09459X0.6037X-0.9037X-0.6037X-0.9037*%
%ADD24C,1.6748*%
%ADD25C,1.524*%
%ADD26RoundRect,0.09049X0.45575X-0.35575X-0.45575X-0.35575*%
%ADD27RoundRect,0.09164X0.45518X0.40518X0.45518X-0.40518*%
G75*


G04 Pad Start*
G54D10*
G01X-1270000Y2044700D03*
G01X1270000Y2044700D03*
G01X1270000Y-2514600D03*
G01X-1270000Y-2514600D03*
G54D11*
G01X-668871Y-1683347D03*
G01X-768871Y-1683347D03*
G54D12*
G01X-539077Y-1933359D03*
G01X-899071Y-1933359D03*
G54D13*
G01X-87300Y933196D03*
G01X-87300Y743204D03*
G01X112700Y838200D03*
G54D14*
G01X-254000Y913536D03*
G01X-254000Y762864D03*
G54D15*
G01X292964Y736600D03*
G01X443636Y736600D03*
G54D16*
G01X443636Y922020D03*
G01X292964Y922020D03*
G54D11*
G01X492925Y-1683347D03*
G01X392925Y-1683347D03*
G54D12*
G01X622719Y-1933359D03*
G01X262725Y-1933359D03*
G54D17*
G01X-237299Y478597D03*
G01X262700Y478597D03*
G54D18*
G01X562699Y1478595D03*
G01X-537299Y1478595D03*
G54D19*
G01X866902Y-615406D03*
G01X866902Y-869406D03*
G01X866902Y-361406D03*
G01X866902Y-107406D03*
G01X866902Y-1842480D03*
G01X866902Y-2096480D03*
G01X866902Y-1588480D03*
G01X866902Y-1334480D03*
G54D12*
G01X91834Y-1933407D03*
G01X-368186Y-1933382D03*
G54D20*
G01X-238188Y-1673393D03*
G01X-138189Y-1673393D03*
G01X-38163Y-1673393D03*
G54D21*
G01X438297Y1117600D03*
G01X298293Y1117600D03*
G54D22*
G01X-380098Y-445249D03*
G01X-480098Y-445249D03*
G01X-580098Y-445249D03*
G01X-680098Y-445249D03*
G54D23*
G01X-250101Y-697751D03*
G01X-810095Y-697751D03*
G54D22*
G01X404000Y-445249D03*
G01X304000Y-445249D03*
G01X204000Y-445249D03*
G01X104000Y-445249D03*
G54D23*
G01X533997Y-697751D03*
G01X-25997Y-697751D03*
G54D22*
G01X404000Y-1060183D03*
G01X304000Y-1060183D03*
G01X204000Y-1060183D03*
G01X104000Y-1060183D03*
G54D23*
G01X533997Y-1312685D03*
G01X-25997Y-1312685D03*
G54D22*
G01X-380098Y-1060183D03*
G01X-480098Y-1060183D03*
G01X-580098Y-1060183D03*
G01X-680098Y-1060183D03*
G54D23*
G01X-250101Y-1312685D03*
G01X-810095Y-1312685D03*
G54D24*
G01X-1143000Y144587D03*
G01X-1143000Y-109413D03*
G01X-1143000Y-871413D03*
G01X-1143000Y-1125413D03*
G01X-1143000Y-1379413D03*
G01X-1143000Y-1633413D03*
G01X-1143000Y-1887413D03*
G01X-1143000Y-2141413D03*
G01X1143000Y-2141413D03*
G01X1143000Y-1887413D03*
G01X1143000Y-1633413D03*
G01X1143000Y-1377635D03*
G01X1143000Y-1123635D03*
G01X1143000Y-869635D03*
G01X1143000Y-615635D03*
G01X1143000Y-361635D03*
G01X1143000Y-107635D03*
G01X1143000Y146365D03*
G01X1143000Y400365D03*
G01X1143000Y654365D03*
G01X1143000Y908365D03*
G01X1143000Y1162365D03*
G01X1143000Y1416365D03*
G01X1143000Y1670365D03*
G01X-1143000Y398587D03*
G01X-1143000Y652587D03*
G01X-1143000Y906587D03*
G01X-1143000Y1160587D03*
G01X-1143000Y1668587D03*
G01X-1143000Y1414587D03*
G54D25*
G01X-749936Y1620076D03*
G01X-749936Y1366076D03*
G01X-749936Y1112076D03*
G01X-749936Y858076D03*
G01X-749936Y604076D03*
G01X-749936Y350076D03*
G01X-749936Y96076D03*
G01X774064Y96076D03*
G01X774064Y350076D03*
G01X774064Y604076D03*
G01X774064Y858076D03*
G01X774064Y1112076D03*
G01X774064Y1366076D03*
G01X774064Y1620076D03*
G54D26*
G01X91504Y1745856D03*
G01X91504Y1855864D03*
G01X-91503Y1855864D03*
G01X-91503Y1745856D03*
G54D15*
G01X-422300Y1844548D03*
G01X-271628Y1844548D03*
G54D27*
G01X283210Y1711046D03*
G01X283210Y1851050D03*
G04 Pad End*

M02*

