G04 Layer: BoardOutlineLayer*
G04 EasyEDA Pro v2.2.36.7, 2025-07-16 21:13:32*
G04 Gerber Generator version 0.3*
G04 Scale: 100 percent, Rotated: No, Reflected: No*
G04 Dimensions in millimeters*
G04 Leading zeros omitted, absolute positions, 4 integers and 5 decimals*
%FSLAX45Y45*%
%MOMM*%
%ADD10C,0.254*%
%ADD11C,0.0254*%
G75*


G04 Rect Start*
G54D10*
G01X-1524000Y-2668600D02*
G01X-1524000Y2198700D01*
G02X-1424000Y2298700I100000J0D01*
G01X1424000Y2298700D01*
G02X1524000Y2198700I0J-100000D01*
G01X1524000Y-2668600D01*
G02X1424000Y-2768600I-100000J0D01*
G01X-1424000Y-2768600D01*
G02X-1524000Y-2668600I0J100000D01*
G54D11*
G01X-1334456Y896500D02*
G01X-1374456Y896500D01*
G02X-1424456Y946500I0J50000D01*
G01X-1424456Y1116500D01*
G02X-1374456Y1166500I50000J0D01*
G01X-1334456Y1166500D01*
G02X-1284456Y1116500I0J-50000D01*
G01X-1284456Y946500D01*
G02X-1334456Y896500I-50000J0D01*
G01X-1334456Y-1637500D02*
G01X-1374456Y-1637500D01*
G02X-1424456Y-1587500I0J50000D01*
G01X-1424456Y-1417500D01*
G02X-1374456Y-1367500I50000J0D01*
G01X-1334456Y-1367500D01*
G02X-1284456Y-1417500I0J-50000D01*
G01X-1284456Y-1587500D01*
G02X-1334456Y-1637500I-50000J0D01*
G01X1374600Y-1637500D02*
G01X1334600Y-1637500D01*
G02X1284600Y-1587500I0J50000D01*
G01X1284600Y-1417500D01*
G02X1334600Y-1367500I50000J0D01*
G01X1374600Y-1367500D01*
G02X1424600Y-1417500I0J-50000D01*
G01X1424600Y-1587500D01*
G02X1374600Y-1637500I-50000J0D01*
G01X1374582Y896500D02*
G01X1334582Y896500D01*
G02X1284582Y946500I0J50000D01*
G01X1284582Y1116500D01*
G02X1334582Y1166500I50000J0D01*
G01X1374582Y1166500D01*
G02X1424582Y1116500I0J-50000D01*
G01X1424582Y946500D01*
G02X1374582Y896500I-50000J0D01*
G04 Rect End*

M02*

