G04 Layer: DrillDrawingLayer*
G04 EasyEDA Pro v2.2.36.7, 2025-07-16 21:13:32*
G04 Gerber Generator version 0.3*
G04 Scale: 100 percent, Rotated: No, Reflected: No*
G04 Dimensions in millimeters*
G04 Leading zeros omitted, absolute positions, 4 integers and 5 decimals*
%FSLAX45Y45*%
%MOMM*%
%AMIconRect*4,1,4,0.2,-0.2,-0.2,-0.2,-0.2,0.2,0.2,0.2,0.2,-0.2,0*4,0,4,0.166667,-0.166667,0.166667,0.166667,-0.166667,0.166667,-0.166667,-0.166667,0.166667,-0.166667,0*%
%AMIconTriangle*4,1,3,-0.242567,0.171767,0.242567,0.171767,0,-0.2706,-0.242567,0.171767,0*4,0,3,-0.189767,0.1386,0,-0.1953,0.190167,0.1386,-0.189767,0.1386,0*%
%AMIconStar6*4,1,12,0.0862,0.1492,0.213233,0.123367,0.172367,0,0.213233,-0.1229,0.0862,-0.148733,0,-0.245767,-0.085767,-0.148733,-0.213267,-0.1229,-0.171933,0,-0.213267,0.1229,-0.085767,0.1492,0,0.245767,0.0862,0.1492,0*4,0,12,-0.000333,0.195333,-0.064333,0.122667,-0.169667,0.097667,-0.138333,-0.005333,-0.169667,-0.098,-0.064333,-0.122667,-0.000333,-0.195667,0.064333,-0.122667,0.169667,-0.098,0.138667,0.005,0.169667,0.098,0.064333,0.122333,-0.000333,0.195333,0*%
%AMIconStar4*4,1,8,-0.222667,0.222667,0,0.144667,0.222667,0.222667,0.144667,0,0.222667,-0.222667,0,-0.144667,-0.217433,-0.222667,-0.144667,0,-0.222667,0.222667,0*4,0,8,0.166667,-0.166667,0.108,0,0.166667,0.166667,0,0.108,-0.166667,0.166667,-0.108,0,-0.166667,-0.166667,0,-0.108,0.166667,-0.166667,0*%
%ADD10IconRect*%
%ADD11C,0.44X0.373333*%
%ADD12IconTriangle*%
%ADD13IconStar6*%
%ADD14IconStar4*%
G75*


G04 Drill Drawing Start*
G54D10*
G01X-237312Y478597D03*
G01X262687Y478597D03*
G54D11*
G01X-537312Y1478598D03*
G01X562686Y1478598D03*
G54D12*
G01X-1270000Y-2514600D03*
G01X-1270000Y2044700D03*
G01X1270000Y-2514600D03*
G01X1270000Y2044700D03*
G54D13*
G01X-1015238Y780034D03*
G01X-812800Y-1536700D03*
G01X-381000Y838200D03*
G01X-368300Y1676400D03*
G01X-292100Y-1028700D03*
G01X-292100Y-419100D03*
G01X-190500Y1320800D03*
G01X-82550Y1212850D03*
G01X-12700Y609600D03*
G01X86106Y-1638300D03*
G01X148082Y1117600D03*
G01X374868Y-876300D03*
G01X431800Y1851050D03*
G01X459994Y-1498600D03*
G54D14*
G01X-1143008Y-2141413D03*
G01X-1143008Y-1887413D03*
G01X-1143008Y-1633413D03*
G01X-1143008Y-1379413D03*
G01X-1143008Y-1125413D03*
G01X-1143008Y-871413D03*
G01X-1143008Y-109413D03*
G01X-1143008Y144587D03*
G01X-1143008Y398587D03*
G01X-1143008Y652587D03*
G01X-1143008Y906587D03*
G01X-1143008Y1160587D03*
G01X-1142985Y1414587D03*
G01X-1142985Y1668587D03*
G01X-749936Y96076D03*
G01X-749936Y350076D03*
G01X-749936Y604076D03*
G01X-749936Y858076D03*
G01X-749936Y1112076D03*
G01X-749936Y1366076D03*
G01X-749936Y1620076D03*
G01X774064Y96076D03*
G01X774064Y350076D03*
G01X774064Y604076D03*
G01X774064Y858076D03*
G01X774064Y1112076D03*
G01X774064Y1366076D03*
G01X774064Y1620076D03*
G01X866905Y-2096468D03*
G01X866905Y-1842468D03*
G01X866905Y-1588463D03*
G01X866905Y-1334468D03*
G01X866905Y-869394D03*
G01X866905Y-615394D03*
G01X866905Y-361389D03*
G01X866905Y-107394D03*
G01X1142992Y-2141413D03*
G01X1142992Y-1887413D03*
G01X1142992Y-1633413D03*
G01X1142992Y-1377635D03*
G01X1142992Y-1123635D03*
G01X1142992Y-869635D03*
G01X1142992Y-615635D03*
G01X1142992Y-361635D03*
G01X1142992Y-107635D03*
G01X1142992Y146365D03*
G01X1142992Y400365D03*
G01X1142992Y654365D03*
G01X1142992Y908365D03*
G01X1142992Y1162365D03*
G01X1142992Y1416365D03*
G01X1143000Y1670365D03*
G04 Drill Drawing End*

M02*

