G04 Layer: BottomSolderMaskLayer*
G04 EasyEDA Pro v2.2.36.7, 2025-07-16 21:13:32*
G04 Gerber Generator version 0.3*
G04 Scale: 100 percent, Rotated: No, Reflected: No*
G04 Dimensions in millimeters*
G04 Leading zeros omitted, absolute positions, 4 integers and 5 decimals*
%FSLAX45Y45*%
%MOMM*%
%ADD10C,3.002*%
%ADD11C,2.602*%
%ADD12C,1.902*%
%ADD13C,1.6768*%
%ADD14C,1.6748*%
%ADD15C,1.524*%
G75*


G04 Pad Start*
G54D10*
G01X-1270000Y2044700D03*
G01X1270000Y2044700D03*
G01X1270000Y-2514600D03*
G01X-1270000Y-2514600D03*
G54D11*
G01X-237299Y478597D03*
G01X262700Y478597D03*
G54D12*
G01X562699Y1478595D03*
G01X-537299Y1478595D03*
G54D13*
G01X866902Y-615406D03*
G01X866902Y-869406D03*
G01X866902Y-361406D03*
G01X866902Y-107406D03*
G01X866902Y-1842480D03*
G01X866902Y-2096480D03*
G01X866902Y-1588480D03*
G01X866902Y-1334480D03*
G54D14*
G01X-1143000Y144587D03*
G01X-1143000Y-109413D03*
G01X-1143000Y-871413D03*
G01X-1143000Y-1125413D03*
G01X-1143000Y-1379413D03*
G01X-1143000Y-1633413D03*
G01X-1143000Y-1887413D03*
G01X-1143000Y-2141413D03*
G01X1143000Y-2141413D03*
G01X1143000Y-1887413D03*
G01X1143000Y-1633413D03*
G01X1143000Y-1377635D03*
G01X1143000Y-1123635D03*
G01X1143000Y-869635D03*
G01X1143000Y-615635D03*
G01X1143000Y-361635D03*
G01X1143000Y-107635D03*
G01X1143000Y146365D03*
G01X1143000Y400365D03*
G01X1143000Y654365D03*
G01X1143000Y908365D03*
G01X1143000Y1162365D03*
G01X1143000Y1416365D03*
G01X1143000Y1670365D03*
G01X-1143000Y398587D03*
G01X-1143000Y652587D03*
G01X-1143000Y906587D03*
G01X-1143000Y1160587D03*
G01X-1143000Y1668587D03*
G01X-1143000Y1414587D03*
G54D15*
G01X-749936Y1620076D03*
G01X-749936Y1366076D03*
G01X-749936Y1112076D03*
G01X-749936Y858076D03*
G01X-749936Y604076D03*
G01X-749936Y350076D03*
G01X-749936Y96076D03*
G01X774064Y96076D03*
G01X774064Y350076D03*
G01X774064Y604076D03*
G01X774064Y858076D03*
G01X774064Y1112076D03*
G01X774064Y1366076D03*
G01X774064Y1620076D03*
G04 Pad End*

M02*

