G04 Layer: TopSilkscreenLayer*
G04 EasyEDA Pro v2.2.36.7, 2025-07-16 21:13:32*
G04 Gerber Generator version 0.3*
G04 Scale: 100 percent, Rotated: No, Reflected: No*
G04 Dimensions in millimeters*
G04 Leading zeros omitted, absolute positions, 4 integers and 5 decimals*
%FSLAX45Y45*%
%MOMM*%
%ADD10C,0.254*%
%ADD11C,0.1524*%
%ADD12C,0.11999*%
%ADD13C,0.381*%
%ADD14C,0.127*%
%ADD15C,0.1*%
%ADD16C,0.15199*%
%ADD17C,0.5019*%
%ADD18C,0.5*%
G75*


G04 Text Start*
G54D10*
G01X-614426Y-2482850D02*
G01X-614426Y-2582926D01*
G01X-647700Y-2482850D02*
G01X-580898Y-2482850D01*
G01X-532638Y-2516124D02*
G01X-532638Y-2582926D01*
G01X-532638Y-2544826D02*
G01X-527812Y-2530602D01*
G01X-518414Y-2520950D01*
G01X-508762Y-2516124D01*
G01X-494538Y-2516124D01*
G01X-446278Y-2482850D02*
G01X-441452Y-2487676D01*
G01X-436626Y-2482850D01*
G01X-441452Y-2478024D01*
G01X-446278Y-2482850D01*
G01X-441452Y-2516124D02*
G01X-441452Y-2582926D01*
G01X-388366Y-2516124D02*
G01X-388366Y-2582926D01*
G01X-388366Y-2535174D02*
G01X-374142Y-2520950D01*
G01X-364490Y-2516124D01*
G01X-350266Y-2516124D01*
G01X-340614Y-2520950D01*
G01X-336042Y-2535174D01*
G01X-336042Y-2582926D01*
G01X-287782Y-2482850D02*
G01X-282956Y-2487676D01*
G01X-278130Y-2482850D01*
G01X-282956Y-2478024D01*
G01X-287782Y-2482850D01*
G01X-282956Y-2516124D02*
G01X-282956Y-2582926D01*
G01X-215646Y-2482850D02*
G01X-215646Y-2563876D01*
G01X-210820Y-2578100D01*
G01X-201168Y-2582926D01*
G01X-191770Y-2582926D01*
G01X-229870Y-2516124D02*
G01X-196596Y-2516124D01*
G01X-138684Y-2516124D02*
G01X-110236Y-2582926D01*
G01X-81534Y-2516124D02*
G01X-110236Y-2582926D01*
G01X-119634Y-2601976D01*
G01X-129286Y-2611374D01*
G01X-138684Y-2616200D01*
G01X-143510Y-2616200D01*
G01X111506Y-2482850D02*
G01X73406Y-2582926D01*
G01X111506Y-2482850D02*
G01X149606Y-2582926D01*
G01X87630Y-2549652D02*
G01X135382Y-2549652D01*
G01X197866Y-2516124D02*
G01X226568Y-2582926D01*
G01X255016Y-2516124D02*
G01X226568Y-2582926D01*
G01X303276Y-2482850D02*
G01X308102Y-2487676D01*
G01X312928Y-2482850D01*
G01X308102Y-2478024D01*
G01X303276Y-2482850D01*
G01X308102Y-2516124D02*
G01X308102Y-2582926D01*
G01X385064Y-2516124D02*
G01X375412Y-2520950D01*
G01X366014Y-2530602D01*
G01X361188Y-2544826D01*
G01X361188Y-2554224D01*
G01X366014Y-2568702D01*
G01X375412Y-2578100D01*
G01X385064Y-2582926D01*
G01X399288Y-2582926D01*
G01X408940Y-2578100D01*
G01X418338Y-2568702D01*
G01X423164Y-2554224D01*
G01X423164Y-2544826D01*
G01X418338Y-2530602D01*
G01X408940Y-2520950D01*
G01X399288Y-2516124D01*
G01X385064Y-2516124D01*
G01X471424Y-2516124D02*
G01X471424Y-2582926D01*
G01X471424Y-2535174D02*
G01X485648Y-2520950D01*
G01X495300Y-2516124D01*
G01X509524Y-2516124D01*
G01X519176Y-2520950D01*
G01X523748Y-2535174D01*
G01X523748Y-2582926D01*
G01X572008Y-2482850D02*
G01X576834Y-2487676D01*
G01X581660Y-2482850D01*
G01X576834Y-2478024D01*
G01X572008Y-2482850D01*
G01X576834Y-2516124D02*
G01X576834Y-2582926D01*
G01X687070Y-2530602D02*
G01X677672Y-2520950D01*
G01X668020Y-2516124D01*
G01X653796Y-2516124D01*
G01X644144Y-2520950D01*
G01X634746Y-2530602D01*
G01X629920Y-2544826D01*
G01X629920Y-2554224D01*
G01X634746Y-2568702D01*
G01X644144Y-2578100D01*
G01X653796Y-2582926D01*
G01X668020Y-2582926D01*
G01X677672Y-2578100D01*
G01X687070Y-2568702D01*
G01X787654Y-2530602D02*
G01X783082Y-2520950D01*
G01X768604Y-2516124D01*
G01X754380Y-2516124D01*
G01X740156Y-2520950D01*
G01X735330Y-2530602D01*
G01X740156Y-2540000D01*
G01X749554Y-2544826D01*
G01X773430Y-2549652D01*
G01X783082Y-2554224D01*
G01X787654Y-2563876D01*
G01X787654Y-2568702D01*
G01X783082Y-2578100D01*
G01X768604Y-2582926D01*
G01X754380Y-2582926D01*
G01X740156Y-2578100D01*
G01X735330Y-2568702D01*
G36*
G01X-575141Y-2207509D02*
G01X-863007Y-2207509D01*
G01X-863007Y-2178645D01*
G01X-859736Y-2178645D01*
G01X-858630Y-2178934D01*
G01X-854926Y-2179030D01*
G01X-851125Y-2178838D01*
G01X-849730Y-2178260D01*
G01X-849153Y-2176913D01*
G01X-846844Y-2172295D01*
G01X-846074Y-2170371D01*
G01X-843765Y-2165753D01*
G01X-842226Y-2162289D01*
G01X-839917Y-2157671D01*
G01X-839147Y-2155747D01*
G01X-836838Y-2151129D01*
G01X-836068Y-2149782D01*
G01X-830873Y-2149204D01*
G01X-816056Y-2149012D01*
G01X-801287Y-2149204D01*
G01X-796236Y-2149782D01*
G01X-795659Y-2151129D01*
G01X-793350Y-2155747D01*
G01X-791810Y-2159210D01*
G01X-788732Y-2165368D01*
G01X-787962Y-2167292D01*
G01X-784883Y-2173450D01*
G01X-784113Y-2175374D01*
G01X-783344Y-2176913D01*
G01X-782574Y-2178260D01*
G01X-781083Y-2178838D01*
G01X-777379Y-2179030D01*
G01X-772568Y-2179030D01*
G01X-772760Y-2178260D01*
G01X-773338Y-2176913D01*
G01X-774877Y-2173835D01*
G01X-776032Y-2171141D01*
G01X-777571Y-2168062D01*
G01X-778726Y-2165368D01*
G01X-780265Y-2162289D01*
G01X-781420Y-2159595D01*
G01X-782959Y-2156516D01*
G01X-784113Y-2153822D01*
G01X-785653Y-2150744D01*
G01X-786807Y-2148050D01*
G01X-788347Y-2144971D01*
G01X-789501Y-2142277D01*
G01X-791041Y-2139198D01*
G01X-792195Y-2136504D01*
G01X-793638Y-2133618D01*
G01X-757559Y-2133618D01*
G01X-757559Y-2179030D01*
G01X-748707Y-2179030D01*
G01X-748707Y-2136697D01*
G01X-746013Y-2136697D01*
G01X-743849Y-2136937D01*
G01X-742742Y-2137659D01*
G01X-741780Y-2139006D01*
G01X-739471Y-2141892D01*
G01X-737162Y-2144971D01*
G01X-735623Y-2146895D01*
G01X-734468Y-2148435D01*
G01X-732929Y-2150359D01*
G01X-731774Y-2151898D01*
G01X-730235Y-2153822D01*
G01X-727926Y-2156901D01*
G01X-726386Y-2158826D01*
G01X-725232Y-2160365D01*
G01X-723692Y-2162289D01*
G01X-722538Y-2163829D01*
G01X-720998Y-2165753D01*
G01X-718689Y-2168832D01*
G01X-717150Y-2170756D01*
G01X-715995Y-2172295D01*
G01X-714456Y-2174219D01*
G01X-713301Y-2175759D01*
G01X-711762Y-2177683D01*
G01X-710800Y-2178645D01*
G01X-705027Y-2179030D01*
G01X-699832Y-2179030D01*
G01X-685207Y-2179030D01*
G01X-676356Y-2179030D01*
G01X-676356Y-2178068D01*
G01X-675779Y-2173450D01*
G01X-675009Y-2168062D01*
G01X-674624Y-2164983D01*
G01X-673854Y-2159595D01*
G01X-673470Y-2156516D01*
G01X-672700Y-2151129D01*
G01X-672315Y-2148050D01*
G01X-671545Y-2142662D01*
G01X-671160Y-2139583D01*
G01X-670391Y-2134195D01*
G01X-670006Y-2131116D01*
G01X-669236Y-2125729D01*
G01X-668851Y-2122650D01*
G01X-668082Y-2117262D01*
G01X-667889Y-2115722D01*
G01X-667745Y-2114953D01*
G01X-667312Y-2114568D01*
G01X-666831Y-2114616D01*
G01X-666542Y-2115145D01*
G01X-665965Y-2116492D01*
G01X-662117Y-2124189D01*
G01X-660577Y-2127653D01*
G01X-635947Y-2176913D01*
G01X-634985Y-2178453D01*
G01X-633445Y-2179030D01*
G01X-632627Y-2178790D01*
G01X-632098Y-2178068D01*
G01X-626710Y-2167292D01*
G01X-625171Y-2163829D01*
G01X-609007Y-2131501D01*
G01X-608238Y-2129577D01*
G01X-601310Y-2115722D01*
G01X-600541Y-2114953D01*
G01X-600204Y-2115241D01*
G01X-599963Y-2116492D01*
G01X-598809Y-2124574D01*
G01X-598617Y-2126306D01*
G01X-597270Y-2135735D01*
G01X-596885Y-2138813D01*
G01X-595730Y-2146895D01*
G01X-595345Y-2149974D01*
G01X-593806Y-2160750D01*
G01X-593421Y-2163829D01*
G01X-592267Y-2171910D01*
G01X-591882Y-2174989D01*
G01X-591497Y-2177683D01*
G01X-591112Y-2178645D01*
G01X-586686Y-2179030D01*
G01X-582453Y-2179030D01*
G01X-582453Y-2178068D01*
G01X-582645Y-2176529D01*
G01X-586109Y-2152283D01*
G01X-586494Y-2149974D01*
G01X-593421Y-2101483D01*
G01X-593806Y-2099174D01*
G01X-595153Y-2089745D01*
G01X-595730Y-2088591D01*
G01X-596692Y-2088398D01*
G01X-597462Y-2089553D01*
G01X-599001Y-2092632D01*
G01X-600541Y-2096095D01*
G01X-609007Y-2113029D01*
G01X-610547Y-2116492D01*
G01X-619013Y-2133426D01*
G01X-620553Y-2136889D01*
G01X-629789Y-2155362D01*
G01X-630559Y-2157286D01*
G01X-632098Y-2160365D01*
G01X-633060Y-2161904D01*
G01X-633590Y-2162193D01*
G01X-634023Y-2161904D01*
G01X-650956Y-2128038D01*
G01X-652110Y-2125344D01*
G01X-669813Y-2089938D01*
G01X-670776Y-2088591D01*
G01X-671738Y-2088398D01*
G01X-672315Y-2090322D01*
G01X-672700Y-2093016D01*
G01X-673085Y-2095326D01*
G01X-684630Y-2176144D01*
G01X-684630Y-2176144D01*
G01X-685015Y-2178260D01*
G01X-685207Y-2179030D01*
G01X-699832Y-2179030D01*
G01X-700217Y-2178260D01*
G01X-700986Y-2177106D01*
G01X-701756Y-2176144D01*
G01X-702910Y-2174604D01*
G01X-704450Y-2172680D01*
G01X-705604Y-2171141D01*
G01X-707144Y-2169216D01*
G01X-708298Y-2167677D01*
G01X-709838Y-2165753D01*
G01X-712147Y-2162674D01*
G01X-713686Y-2160750D01*
G01X-714841Y-2159210D01*
G01X-716380Y-2157286D01*
G01X-717535Y-2155747D01*
G01X-719074Y-2153822D01*
G01X-721383Y-2150744D01*
G01X-722923Y-2148819D01*
G01X-724077Y-2147280D01*
G01X-725617Y-2145356D01*
G01X-726771Y-2143816D01*
G01X-728310Y-2141892D01*
G01X-729465Y-2140353D01*
G01X-731004Y-2138429D01*
G01X-731582Y-2137274D01*
G01X-731004Y-2136841D01*
G01X-728888Y-2136697D01*
G01X-725424Y-2136504D01*
G01X-721960Y-2136119D01*
G01X-718497Y-2135350D01*
G01X-714456Y-2134003D01*
G01X-712532Y-2133041D01*
G01X-710992Y-2132079D01*
G01X-709838Y-2131309D01*
G01X-708876Y-2130539D01*
G01X-705989Y-2127653D01*
G01X-704835Y-2126113D01*
G01X-703680Y-2124189D01*
G01X-702910Y-2122650D01*
G01X-702141Y-2120918D01*
G01X-701563Y-2118801D01*
G01X-701179Y-2116877D01*
G01X-700794Y-2114183D01*
G01X-700601Y-2111297D01*
G01X-700794Y-2109565D01*
G01X-701179Y-2106486D01*
G01X-701756Y-2104562D01*
G01X-702526Y-2102638D01*
G01X-703295Y-2101098D01*
G01X-704257Y-2099366D01*
G01X-705220Y-2098019D01*
G01X-706759Y-2096095D01*
G01X-707721Y-2095133D01*
G01X-709260Y-2093979D01*
G01X-711185Y-2092632D01*
G01X-714648Y-2090900D01*
G01X-716573Y-2090130D01*
G01X-719267Y-2089360D01*
G01X-721383Y-2088976D01*
G01X-722730Y-2088783D01*
G01X-726579Y-2088398D01*
G01X-742357Y-2088206D01*
G01X-757559Y-2088206D01*
G01X-757559Y-2133618D01*
G01X-757559Y-2133618D01*
G01X-793638Y-2133618D01*
G01X-793735Y-2133426D01*
G01X-794889Y-2130732D01*
G01X-796429Y-2127653D01*
G01X-797583Y-2124959D01*
G01X-799123Y-2121880D01*
G01X-800277Y-2119186D01*
G01X-801817Y-2116108D01*
G01X-802971Y-2113413D01*
G01X-803741Y-2111874D01*
G01X-805280Y-2108410D01*
G01X-806820Y-2105332D01*
G01X-807589Y-2103408D01*
G01X-809129Y-2100329D01*
G01X-810668Y-2096865D01*
G01X-812207Y-2093786D01*
G01X-812977Y-2091862D01*
G01X-813747Y-2090322D01*
G01X-814517Y-2088976D01*
G01X-815094Y-2088398D01*
G01X-816056Y-2088206D01*
G01X-816970Y-2088398D01*
G01X-817403Y-2088976D01*
G01X-817980Y-2090322D01*
G01X-819520Y-2093786D01*
G01X-821829Y-2098404D01*
G01X-822598Y-2100329D01*
G01X-824907Y-2104947D01*
G01X-826062Y-2107641D01*
G01X-828371Y-2112259D01*
G01X-829141Y-2114183D01*
G01X-831450Y-2118801D01*
G01X-832989Y-2122265D01*
G01X-834529Y-2125344D01*
G01X-836068Y-2128808D01*
G01X-838377Y-2133426D01*
G01X-839147Y-2135350D01*
G01X-841456Y-2139968D01*
G01X-842610Y-2142662D01*
G01X-844920Y-2147280D01*
G01X-845689Y-2149204D01*
G01X-847998Y-2153822D01*
G01X-849153Y-2156516D01*
G01X-851462Y-2161135D01*
G01X-852232Y-2163059D01*
G01X-854541Y-2167677D01*
G01X-856080Y-2171141D01*
G01X-857620Y-2174219D01*
G01X-859159Y-2177683D01*
G01X-859159Y-2177683D01*
G01X-859736Y-2178645D01*
G01X-863007Y-2178645D01*
G01X-863007Y-2056263D01*
G01X-575141Y-2056263D01*
G01X-575141Y-2207509D01*
G37*
G36*
G01X-816441Y-2140545D02*
G01X-831257Y-2140353D01*
G01X-831257Y-2139391D01*
G01X-830680Y-2138044D01*
G01X-829910Y-2136504D01*
G01X-828371Y-2133041D01*
G01X-826062Y-2128422D01*
G01X-824907Y-2125729D01*
G01X-822598Y-2121110D01*
G01X-821829Y-2119186D01*
G01X-819520Y-2114568D01*
G01X-817980Y-2111104D01*
G01X-817210Y-2109565D01*
G01X-816248Y-2108218D01*
G01X-815719Y-2108218D01*
G01X-815286Y-2108988D01*
G01X-814517Y-2110719D01*
G01X-812977Y-2113798D01*
G01X-811438Y-2117262D01*
G01X-809129Y-2121880D01*
G01X-808359Y-2123804D01*
G01X-806050Y-2128422D01*
G01X-804895Y-2131116D01*
G01X-803356Y-2134195D01*
G01X-801817Y-2137659D01*
G01X-801047Y-2139198D01*
G01X-800902Y-2139968D01*
G01X-801239Y-2140353D01*
G01X-816441Y-2140545D01*
G37*
G36*
G01X-735430Y-2128230D02*
G01X-739279Y-2128038D01*
G01X-744089Y-2127845D01*
G01X-748707Y-2127845D01*
G01X-748707Y-2097058D01*
G01X-736970Y-2097058D01*
G01X-724654Y-2097250D01*
G01X-721960Y-2097635D01*
G01X-720421Y-2098019D01*
G01X-718689Y-2098597D01*
G01X-717150Y-2099366D01*
G01X-715995Y-2100136D01*
G01X-715033Y-2100906D01*
G01X-714071Y-2101868D01*
G01X-712917Y-2103408D01*
G01X-711762Y-2105332D01*
G01X-710992Y-2107063D01*
G01X-710415Y-2109565D01*
G01X-710030Y-2112066D01*
G01X-710030Y-2113413D01*
G01X-710223Y-2115145D01*
G01X-710607Y-2117069D01*
G01X-711185Y-2118609D01*
G01X-711762Y-2119956D01*
G01X-712532Y-2121110D01*
G01X-713686Y-2122650D01*
G01X-715226Y-2123997D01*
G01X-716380Y-2124766D01*
G01X-717727Y-2125536D01*
G01X-719459Y-2126306D01*
G01X-721383Y-2126883D01*
G01X-723115Y-2127268D01*
G01X-725424Y-2127653D01*
G01X-728888Y-2127845D01*
G01X-731197Y-2128038D01*
G01X-735430Y-2128230D01*
G37*
G36*
G01X610901Y-2128230D02*
G01X607245Y-2128038D01*
G01X602434Y-2127845D01*
G01X597816Y-2127845D01*
G01X597816Y-2097058D01*
G01X609361Y-2097058D01*
G01X621484Y-2097250D01*
G01X624178Y-2097635D01*
G01X625718Y-2098019D01*
G01X627449Y-2098597D01*
G01X628989Y-2099366D01*
G01X630721Y-2100521D01*
G01X632068Y-2101868D01*
G01X632837Y-2102830D01*
G01X633799Y-2104177D01*
G01X634761Y-2106101D01*
G01X635339Y-2107641D01*
G01X635724Y-2109180D01*
G01X636108Y-2111489D01*
G01X636108Y-2114568D01*
G01X635724Y-2116877D01*
G01X635146Y-2118416D01*
G01X634377Y-2119956D01*
G01X633607Y-2121110D01*
G01X632452Y-2122650D01*
G01X630721Y-2124189D01*
G01X629181Y-2125151D01*
G01X627642Y-2125921D01*
G01X626102Y-2126498D01*
G01X624178Y-2127076D01*
G01X622061Y-2127460D01*
G01X620715Y-2127653D01*
G01X614942Y-2128038D01*
G01X610901Y-2128230D01*
G37*
G36*
G01X654389Y-2207509D02*
G01X231055Y-2207509D01*
G01X231055Y-2133618D01*
G01X242216Y-2133618D01*
G01X242216Y-2179030D01*
G01X257225Y-2179030D01*
G01X272811Y-2178838D01*
G01X277045Y-2178068D01*
G01X278777Y-2177491D01*
G01X280701Y-2176721D01*
G01X282433Y-2175951D01*
G01X284165Y-2174989D01*
G01X285896Y-2173835D01*
G01X287243Y-2172872D01*
G01X288205Y-2172103D01*
G01X290130Y-2170179D01*
G01X291092Y-2169024D01*
G01X291861Y-2167869D01*
G01X292824Y-2166522D01*
G01X293786Y-2164983D01*
G01X294555Y-2163444D01*
G01X295325Y-2161327D01*
G01X296095Y-2158826D01*
G01X296480Y-2156516D01*
G01X296672Y-2154977D01*
G01X296865Y-2152476D01*
G01X296672Y-2149974D01*
G01X295902Y-2146126D01*
G01X295325Y-2144586D01*
G01X294555Y-2142662D01*
G01X293786Y-2141315D01*
G01X291861Y-2138429D01*
G01X289552Y-2136119D01*
G01X288205Y-2134965D01*
G01X286858Y-2134003D01*
G01X285704Y-2133233D01*
G01X284357Y-2132463D01*
G01X282818Y-2131694D01*
G01X281086Y-2130924D01*
G01X279161Y-2130154D01*
G01X278344Y-2129769D01*
G01X278199Y-2129385D01*
G01X279354Y-2128422D01*
G01X281278Y-2127076D01*
G01X284357Y-2123997D01*
G01X285319Y-2122842D01*
G01X286089Y-2121688D01*
G01X286858Y-2120341D01*
G01X287628Y-2118801D01*
G01X288205Y-2117262D01*
G01X288590Y-2115722D01*
G01X288975Y-2113798D01*
G01X289360Y-2110912D01*
G01X289360Y-2108795D01*
G01X288975Y-2105716D01*
G01X288590Y-2104177D01*
G01X288013Y-2102445D01*
G01X287243Y-2100713D01*
G01X286474Y-2099174D01*
G01X285704Y-2098019D01*
G01X284549Y-2096480D01*
G01X282240Y-2094171D01*
G01X281086Y-2093209D01*
G01X279931Y-2092439D01*
G01X278584Y-2091669D01*
G01X277045Y-2090900D01*
G01X275698Y-2090322D01*
G01X274158Y-2089745D01*
G01X272619Y-2089360D01*
G01X271272Y-2089168D01*
G01X269348Y-2088783D01*
G01X266269Y-2088398D01*
G01X253377Y-2088206D01*
G01X315337Y-2088206D01*
G01X315337Y-2120726D01*
G01X315530Y-2153822D01*
G01X315915Y-2158056D01*
G01X316684Y-2161904D01*
G01X317261Y-2163636D01*
G01X318031Y-2165368D01*
G01X318801Y-2166908D01*
G01X319763Y-2168639D01*
G01X320725Y-2169986D01*
G01X322265Y-2171910D01*
G01X323227Y-2172872D01*
G01X326113Y-2175182D01*
G01X327460Y-2176144D01*
G01X329384Y-2177298D01*
G01X331308Y-2178260D01*
G01X333040Y-2179030D01*
G01X334772Y-2179608D01*
G01X337851Y-2180377D01*
G01X337851Y-2180377D01*
G01X339968Y-2180954D01*
G01X345933Y-2181339D01*
G01X351321Y-2181147D01*
G01X353245Y-2180762D01*
G01X355361Y-2180185D01*
G01X358440Y-2179030D01*
G01X390383Y-2179030D01*
G01X440798Y-2179030D01*
G01X440798Y-2178645D01*
G01X451766Y-2178645D01*
G01X457875Y-2178934D01*
G01X476589Y-2179030D01*
G01X501604Y-2179030D01*
G01X501604Y-2170179D01*
G01X465813Y-2170179D01*
G01X466005Y-2169216D01*
G01X466583Y-2167485D01*
G01X467352Y-2165753D01*
G01X468892Y-2162674D01*
G01X469661Y-2160750D01*
G01X471201Y-2157671D01*
G01X471971Y-2155747D01*
G01X473510Y-2152668D01*
G01X474280Y-2150744D01*
G01X475819Y-2147665D01*
G01X476589Y-2145741D01*
G01X478128Y-2142662D01*
G01X479668Y-2139198D01*
G01X480437Y-2137659D01*
G01X481977Y-2134195D01*
G01X482265Y-2133618D01*
G01X520077Y-2133618D01*
G01X520077Y-2179030D01*
G01X572031Y-2179030D01*
G01X572031Y-2170179D01*
G01X528928Y-2170179D01*
G01X528928Y-2134388D01*
G01X572031Y-2134388D01*
G01X572031Y-2133618D01*
G01X588580Y-2133618D01*
G01X588580Y-2179030D01*
G01X597816Y-2179030D01*
G01X597816Y-2136697D01*
G01X600318Y-2136697D01*
G01X602338Y-2136937D01*
G01X603396Y-2137659D01*
G01X604551Y-2139006D01*
G01X605321Y-2139968D01*
G01X605898Y-2140930D01*
G01X608207Y-2143816D01*
G01X609361Y-2145356D01*
G01X610901Y-2147280D01*
G01X613210Y-2150359D01*
G01X614749Y-2152283D01*
G01X615904Y-2153822D01*
G01X617443Y-2155747D01*
G01X618598Y-2157286D01*
G01X620137Y-2159210D01*
G01X622446Y-2162289D01*
G01X623986Y-2164213D01*
G01X625140Y-2165753D01*
G01X626680Y-2167677D01*
G01X627834Y-2169216D01*
G01X629374Y-2171141D01*
G01X630528Y-2172680D01*
G01X632068Y-2174604D01*
G01X634377Y-2177683D01*
G01X635531Y-2178645D01*
G01X641304Y-2179030D01*
G01X645008Y-2178886D01*
G01X646115Y-2178453D01*
G01X645537Y-2177491D01*
G01X643228Y-2174604D01*
G01X642074Y-2173065D01*
G01X640534Y-2171141D01*
G01X638225Y-2168062D01*
G01X636686Y-2166138D01*
G01X635531Y-2164598D01*
G01X633992Y-2162674D01*
G01X632837Y-2161135D01*
G01X631298Y-2159210D01*
G01X628989Y-2156132D01*
G01X627449Y-2154208D01*
G01X626295Y-2152668D01*
G01X624755Y-2150744D01*
G01X623601Y-2149204D01*
G01X622061Y-2147280D01*
G01X619752Y-2144201D01*
G01X618213Y-2142277D01*
G01X617058Y-2140738D01*
G01X615519Y-2138813D01*
G01X614749Y-2137659D01*
G01X614605Y-2137178D01*
G01X614942Y-2136889D01*
G01X620715Y-2136504D01*
G01X624178Y-2136119D01*
G01X628027Y-2135350D01*
G01X629566Y-2134772D01*
G01X631683Y-2134003D01*
G01X633415Y-2133233D01*
G01X634954Y-2132271D01*
G01X636878Y-2130924D01*
G01X640534Y-2127268D01*
G01X641496Y-2125921D01*
G01X642458Y-2124189D01*
G01X643228Y-2122650D01*
G01X643998Y-2120918D01*
G01X644768Y-2118416D01*
G01X645345Y-2115338D01*
G01X645537Y-2111489D01*
G01X645345Y-2108795D01*
G01X644575Y-2104947D01*
G01X643998Y-2103408D01*
G01X643228Y-2101483D01*
G01X642458Y-2100136D01*
G01X641496Y-2098789D01*
G01X640149Y-2096865D01*
G01X638802Y-2095518D01*
G01X636878Y-2093979D01*
G01X635339Y-2092824D01*
G01X633415Y-2091669D01*
G01X631875Y-2090900D01*
G01X630336Y-2090322D01*
G01X628796Y-2089938D01*
G01X627065Y-2089360D01*
G01X624948Y-2088976D01*
G01X623408Y-2088783D01*
G01X619560Y-2088398D01*
G01X603781Y-2088206D01*
G01X588580Y-2088206D01*
G01X588580Y-2133618D01*
G01X588580Y-2133618D01*
G01X572031Y-2133618D01*
G01X572031Y-2125536D01*
G01X528928Y-2125536D01*
G01X528928Y-2097058D01*
G01X572031Y-2097058D01*
G01X572224Y-2096095D01*
G01X572416Y-2091669D01*
G01X572416Y-2088206D01*
G01X520077Y-2088206D01*
G01X520077Y-2133618D01*
G01X520077Y-2133618D01*
G01X482265Y-2133618D01*
G01X482746Y-2132656D01*
G01X484286Y-2129192D01*
G01X485825Y-2126113D01*
G01X486595Y-2124189D01*
G01X488134Y-2121110D01*
G01X488904Y-2119186D01*
G01X490443Y-2116108D01*
G01X491213Y-2114183D01*
G01X492752Y-2111104D01*
G01X493522Y-2109180D01*
G01X495061Y-2106101D01*
G01X496601Y-2102638D01*
G01X497371Y-2101098D01*
G01X498910Y-2097635D01*
G01X499680Y-2096095D01*
G01X501219Y-2092632D01*
G01X501989Y-2091092D01*
G01X502758Y-2089360D01*
G01X503143Y-2088206D01*
G01X455422Y-2088206D01*
G01X455422Y-2096672D01*
G01X489674Y-2096672D01*
G01X489481Y-2097635D01*
G01X488904Y-2099174D01*
G01X487365Y-2102638D01*
G01X485825Y-2105716D01*
G01X484671Y-2108410D01*
G01X483131Y-2111489D01*
G01X481977Y-2114183D01*
G01X480437Y-2117262D01*
G01X479283Y-2119956D01*
G01X477743Y-2123035D01*
G01X476589Y-2125729D01*
G01X475049Y-2128808D01*
G01X473895Y-2131501D01*
G01X472355Y-2134580D01*
G01X471201Y-2137274D01*
G01X469661Y-2140353D01*
G01X468507Y-2143047D01*
G01X466968Y-2146126D01*
G01X465813Y-2148819D01*
G01X464274Y-2151898D01*
G01X463119Y-2154592D01*
G01X461580Y-2157671D01*
G01X460425Y-2160365D01*
G01X458886Y-2163444D01*
G01X457731Y-2166138D01*
G01X456192Y-2169216D01*
G01X455037Y-2171910D01*
G01X453498Y-2174989D01*
G01X452343Y-2177683D01*
G01X452343Y-2177683D01*
G01X451766Y-2178645D01*
G01X440798Y-2178645D01*
G01X440798Y-2170179D01*
G01X404622Y-2170179D01*
G01X404815Y-2169409D01*
G01X405392Y-2168062D01*
G01X406931Y-2164598D01*
G01X408471Y-2161519D01*
G01X409625Y-2158826D01*
G01X410395Y-2157286D01*
G01X411934Y-2153822D01*
G01X412704Y-2152283D01*
G01X414243Y-2148819D01*
G01X415013Y-2147280D01*
G01X416552Y-2143816D01*
G01X418092Y-2140738D01*
G01X418861Y-2138813D01*
G01X420401Y-2135735D01*
G01X421171Y-2133810D01*
G01X422710Y-2130732D01*
G01X423480Y-2128808D01*
G01X425019Y-2125729D01*
G01X425789Y-2123804D01*
G01X427328Y-2120726D01*
G01X428868Y-2117262D01*
G01X429637Y-2115722D01*
G01X431177Y-2112259D01*
G01X431946Y-2110719D01*
G01X433486Y-2107256D01*
G01X435025Y-2104177D01*
G01X435795Y-2102253D01*
G01X437334Y-2099174D01*
G01X438104Y-2097250D01*
G01X439643Y-2094171D01*
G01X440413Y-2092247D01*
G01X441952Y-2089168D01*
G01X442337Y-2088206D01*
G01X394616Y-2088206D01*
G01X394616Y-2096672D01*
G01X428868Y-2096672D01*
G01X428675Y-2097442D01*
G01X426943Y-2101483D01*
G01X425404Y-2104562D01*
G01X424249Y-2107256D01*
G01X422710Y-2110335D01*
G01X421555Y-2113029D01*
G01X420016Y-2116108D01*
G01X418861Y-2118801D01*
G01X417322Y-2121880D01*
G01X416168Y-2124574D01*
G01X414628Y-2127653D01*
G01X413474Y-2130347D01*
G01X411934Y-2133426D01*
G01X410780Y-2136119D01*
G01X409240Y-2139198D01*
G01X408086Y-2141892D01*
G01X406546Y-2144971D01*
G01X405392Y-2147665D01*
G01X403852Y-2150744D01*
G01X402698Y-2153438D01*
G01X401158Y-2156516D01*
G01X400004Y-2159210D01*
G01X398465Y-2162289D01*
G01X397310Y-2164983D01*
G01X395771Y-2168062D01*
G01X394616Y-2170756D01*
G01X393077Y-2173835D01*
G01X391922Y-2176529D01*
G01X391922Y-2176529D01*
G01X390960Y-2178068D01*
G01X390383Y-2179030D01*
G01X358440Y-2179030D01*
G01X359980Y-2178260D01*
G01X361519Y-2177298D01*
G01X363251Y-2176144D01*
G01X364598Y-2174989D01*
G01X368446Y-2171141D01*
G01X369408Y-2169794D01*
G01X370563Y-2168062D01*
G01X371525Y-2166330D01*
G01X372295Y-2164598D01*
G01X373065Y-2162674D01*
G01X373642Y-2160558D01*
G01X374027Y-2158826D01*
G01X374411Y-2156901D01*
G01X374796Y-2154592D01*
G01X374989Y-2152668D01*
G01X375181Y-2151129D01*
G01X375566Y-2142662D01*
G01X375758Y-2115145D01*
G01X375758Y-2088206D01*
G01X366522Y-2088206D01*
G01X366522Y-2119763D01*
G01X366330Y-2151898D01*
G01X365945Y-2156516D01*
G01X365560Y-2158056D01*
G01X364983Y-2159788D01*
G01X364213Y-2161519D01*
G01X363443Y-2163059D01*
G01X362674Y-2164213D01*
G01X361519Y-2165753D01*
G01X359210Y-2168062D01*
G01X358248Y-2168832D01*
G01X356901Y-2169601D01*
G01X355169Y-2170563D01*
G01X353437Y-2171333D01*
G01X351705Y-2171910D01*
G01X350166Y-2172295D01*
G01X347857Y-2172680D01*
G01X344393Y-2172872D01*
G01X342084Y-2172680D01*
G01X340352Y-2172295D01*
G01X338428Y-2171718D01*
G01X336889Y-2171141D01*
G01X335542Y-2170563D01*
G01X334002Y-2169794D01*
G01X332655Y-2169024D01*
G01X331308Y-2168062D01*
G01X329961Y-2166908D01*
G01X328999Y-2165945D01*
G01X328230Y-2164983D01*
G01X327652Y-2164021D01*
G01X326883Y-2162674D01*
G01X326113Y-2160942D01*
G01X325536Y-2159210D01*
G01X325151Y-2157671D01*
G01X324766Y-2155362D01*
G01X324574Y-2152283D01*
G01X324381Y-2150359D01*
G01X324189Y-2118994D01*
G01X324189Y-2088206D01*
G01X315337Y-2088206D01*
G01X253377Y-2088206D01*
G01X242216Y-2088206D01*
G01X242216Y-2133618D01*
G01X242216Y-2133618D01*
G01X231055Y-2133618D01*
G01X231055Y-2056263D01*
G01X654389Y-2056263D01*
G01X654389Y-2207509D01*
G37*
G36*
G01X259919Y-2170179D02*
G01X251260Y-2169986D01*
G01X251068Y-2152476D01*
G01X251068Y-2135158D01*
G01X256071Y-2135158D01*
G01X261651Y-2135350D01*
G01X268578Y-2135735D01*
G01X271657Y-2136119D01*
G01X273196Y-2136504D01*
G01X274928Y-2137082D01*
G01X276468Y-2137659D01*
G01X277815Y-2138236D01*
G01X279354Y-2139198D01*
G01X281278Y-2140545D01*
G01X283587Y-2142854D01*
G01X284357Y-2143816D01*
G01X284934Y-2144779D01*
G01X285704Y-2146126D01*
G01X286474Y-2147858D01*
G01X287051Y-2150359D01*
G01X287243Y-2154400D01*
G01X287051Y-2157286D01*
G01X286474Y-2159018D01*
G01X285704Y-2160750D01*
G01X284742Y-2162289D01*
G01X283587Y-2163636D01*
G01X281663Y-2165560D01*
G01X280124Y-2166715D01*
G01X278199Y-2167869D01*
G01X276083Y-2168639D01*
G01X273966Y-2169216D01*
G01X272042Y-2169601D01*
G01X270310Y-2169794D01*
G01X268963Y-2169986D01*
G01X259919Y-2170179D01*
G37*
G36*
G01X254339Y-2126306D02*
G01X251260Y-2126113D01*
G01X251068Y-2111489D01*
G01X251068Y-2097058D01*
G01X258957Y-2097058D01*
G01X267424Y-2097250D01*
G01X269348Y-2097635D01*
G01X271465Y-2098212D01*
G01X273004Y-2098789D01*
G01X274736Y-2099751D01*
G01X276275Y-2100906D01*
G01X277237Y-2102060D01*
G01X278199Y-2103600D01*
G01X279161Y-2105524D01*
G01X279739Y-2107641D01*
G01X279931Y-2111104D01*
G01X279739Y-2114183D01*
G01X279161Y-2115915D01*
G01X278199Y-2117839D01*
G01X277237Y-2119186D01*
G01X276083Y-2120726D01*
G01X274736Y-2121880D01*
G01X273774Y-2122458D01*
G01X272427Y-2123419D01*
G01X270310Y-2124382D01*
G01X268193Y-2124959D01*
G01X266269Y-2125344D01*
G01X263960Y-2125729D01*
G01X260496Y-2125921D01*
G01X257802Y-2126113D01*
G01X254339Y-2126306D01*
G37*
G36*
G01X64885Y-2207514D02*
G01X-343439Y-2207514D01*
G01X-343439Y-2162487D01*
G01X-341611Y-2162487D01*
G01X-341515Y-2163064D01*
G01X-340553Y-2164603D01*
G01X-339398Y-2166528D01*
G01X-338051Y-2168452D01*
G01X-335742Y-2171531D01*
G01X-333433Y-2173840D01*
G01X-332086Y-2174994D01*
G01X-330739Y-2175957D01*
G01X-329777Y-2176726D01*
G01X-328623Y-2177496D01*
G01X-325544Y-2179035D01*
G01X-324197Y-2179613D01*
G01X-322657Y-2180190D01*
G01X-320541Y-2180767D01*
G01X-320541Y-2180767D01*
G01X-319001Y-2181152D01*
G01X-314576Y-2181344D01*
G01X-309765Y-2181152D01*
G01X-308033Y-2180767D01*
G01X-306109Y-2180190D01*
G01X-304570Y-2179613D01*
G01X-303223Y-2179035D01*
G01X-301683Y-2178265D01*
G01X-300336Y-2177496D01*
G01X-298989Y-2176534D01*
G01X-297642Y-2175379D01*
G01X-294756Y-2172493D01*
G01X-293601Y-2171146D01*
G01X-292639Y-2169799D01*
G01X-291870Y-2168644D01*
G01X-291100Y-2167297D01*
G01X-290330Y-2165565D01*
G01X-289561Y-2163257D01*
G01X-288983Y-2160370D01*
G01X-288791Y-2155944D01*
G01X-288983Y-2152673D01*
G01X-289561Y-2150749D01*
G01X-290330Y-2148440D01*
G01X-291100Y-2146708D01*
G01X-292639Y-2144014D01*
G01X-293601Y-2142475D01*
G01X-294564Y-2141128D01*
G01X-296103Y-2139203D01*
G01X-299951Y-2135355D01*
G01X-301972Y-2133623D01*
G01X-269164Y-2133623D01*
G01X-269164Y-2179035D01*
G01X-217209Y-2179035D01*
G01X-217209Y-2170184D01*
G01X-260312Y-2170184D01*
G01X-260312Y-2134393D01*
G01X-217209Y-2134393D01*
G01X-217209Y-2133623D01*
G01X-200661Y-2133623D01*
G01X-200661Y-2179035D01*
G01X-191424Y-2179035D01*
G01X-191424Y-2136702D01*
G01X-188923Y-2136702D01*
G01X-186902Y-2136942D01*
G01X-185844Y-2137664D01*
G01X-184689Y-2139011D01*
G01X-183920Y-2139973D01*
G01X-183342Y-2140935D01*
G01X-181033Y-2143821D01*
G01X-179879Y-2145361D01*
G01X-178339Y-2147285D01*
G01X-176030Y-2150364D01*
G01X-174491Y-2152288D01*
G01X-173336Y-2153828D01*
G01X-171797Y-2155752D01*
G01X-170642Y-2157291D01*
G01X-169103Y-2159215D01*
G01X-166794Y-2162294D01*
G01X-165254Y-2164218D01*
G01X-164100Y-2165758D01*
G01X-162561Y-2167682D01*
G01X-161406Y-2169221D01*
G01X-159867Y-2171146D01*
G01X-158712Y-2172685D01*
G01X-157173Y-2174610D01*
G01X-154864Y-2177688D01*
G01X-153709Y-2178650D01*
G01X-147936Y-2179035D01*
G01X-144232Y-2178891D01*
G01X-143126Y-2178458D01*
G01X-143703Y-2177496D01*
G01X-146012Y-2174610D01*
G01X-147167Y-2173070D01*
G01X-148706Y-2171146D01*
G01X-151015Y-2168067D01*
G01X-152554Y-2166143D01*
G01X-153709Y-2164603D01*
G01X-155248Y-2162679D01*
G01X-156403Y-2161140D01*
G01X-157942Y-2159215D01*
G01X-160251Y-2156137D01*
G01X-161791Y-2154213D01*
G01X-162945Y-2152673D01*
G01X-164485Y-2150749D01*
G01X-165639Y-2149210D01*
G01X-167179Y-2147285D01*
G01X-168333Y-2145746D01*
G01X-169873Y-2143821D01*
G01X-172182Y-2140743D01*
G01X-173721Y-2138818D01*
G01X-174491Y-2137664D01*
G01X-174635Y-2137183D01*
G01X-174298Y-2136894D01*
G01X-168526Y-2136510D01*
G01X-165062Y-2136125D01*
G01X-161214Y-2135355D01*
G01X-159674Y-2134778D01*
G01X-157557Y-2134008D01*
G01X-155826Y-2133238D01*
G01X-154286Y-2132276D01*
G01X-152362Y-2130929D01*
G01X-149091Y-2127658D01*
G01X-148321Y-2126696D01*
G01X-147359Y-2125349D01*
G01X-145627Y-2121885D01*
G01X-145050Y-2120346D01*
G01X-144280Y-2117267D01*
G01X-143895Y-2115343D01*
G01X-143703Y-2111879D01*
G01X-143895Y-2108800D01*
G01X-144665Y-2104952D01*
G01X-145242Y-2103413D01*
G01X-146012Y-2101488D01*
G01X-146782Y-2100141D01*
G01X-147744Y-2098794D01*
G01X-149091Y-2096870D01*
G01X-150438Y-2095523D01*
G01X-152362Y-2093984D01*
G01X-153901Y-2092829D01*
G01X-155826Y-2091675D01*
G01X-157365Y-2090905D01*
G01X-158904Y-2090328D01*
G01X-160444Y-2089943D01*
G01X-162176Y-2089365D01*
G01X-164292Y-2088981D01*
G01X-165832Y-2088788D01*
G01X-169680Y-2088403D01*
G01X-185459Y-2088211D01*
G01X-131003Y-2088211D01*
G01X-130618Y-2089173D01*
G01X-129079Y-2092637D01*
G01X-128309Y-2094561D01*
G01X-126770Y-2098025D01*
G01X-126000Y-2099949D01*
G01X-124461Y-2103413D01*
G01X-123691Y-2105337D01*
G01X-122151Y-2108800D01*
G01X-121382Y-2110725D01*
G01X-119842Y-2114188D01*
G01X-119073Y-2116113D01*
G01X-117533Y-2119576D01*
G01X-116764Y-2121500D01*
G01X-115224Y-2124964D01*
G01X-114454Y-2126888D01*
G01X-112915Y-2130352D01*
G01X-112145Y-2132276D01*
G01X-110606Y-2135740D01*
G01X-109836Y-2137664D01*
G01X-108297Y-2141128D01*
G01X-107527Y-2143052D01*
G01X-105988Y-2146515D01*
G01X-105218Y-2148440D01*
G01X-103679Y-2151903D01*
G01X-102909Y-2153828D01*
G01X-101370Y-2157291D01*
G01X-100600Y-2159215D01*
G01X-99061Y-2162679D01*
G01X-98291Y-2164603D01*
G01X-96751Y-2168067D01*
G01X-95982Y-2169991D01*
G01X-94442Y-2173455D01*
G01X-93673Y-2175379D01*
G01X-92903Y-2177111D01*
G01X-92903Y-2177111D01*
G01X-92326Y-2178458D01*
G01X-91893Y-2178891D01*
G01X-90979Y-2179035D01*
G01X-90065Y-2178843D01*
G01X-89632Y-2178265D01*
G01X-89054Y-2176726D01*
G01X-86745Y-2171531D01*
G01X-85976Y-2169607D01*
G01X-82897Y-2162679D01*
G01X-82127Y-2160755D01*
G01X-81357Y-2159215D01*
G01X-77894Y-2151134D01*
G01X-76354Y-2147670D01*
G01X-74045Y-2142282D01*
G01X-72506Y-2138818D01*
G01X-70527Y-2134200D01*
G01X-39024Y-2134200D01*
G01X-38832Y-2136894D01*
G01X-38447Y-2141128D01*
G01X-38062Y-2143821D01*
G01X-37485Y-2145746D01*
G01X-36907Y-2148055D01*
G01X-35753Y-2151518D01*
G01X-35176Y-2153058D01*
G01X-33636Y-2156137D01*
G01X-32674Y-2157676D01*
G01X-31520Y-2159600D01*
G01X-30173Y-2161525D01*
G01X-27094Y-2165373D01*
G01X-23823Y-2168644D01*
G01X-21898Y-2170184D01*
G01X-20936Y-2171146D01*
G01X-19974Y-2171915D01*
G01X-19012Y-2172493D01*
G01X-17665Y-2173455D01*
G01X-14586Y-2175379D01*
G01X-11123Y-2177111D01*
G01X-9391Y-2177881D01*
G01X-5157Y-2179420D01*
G01X-2656Y-2179997D01*
G01X-2656Y-2179997D01*
G01X3117Y-2181152D01*
G01X9274Y-2181344D01*
G01X15432Y-2181152D01*
G01X18126Y-2180767D01*
G01X21974Y-2179997D01*
G01X26015Y-2178650D01*
G01X28132Y-2177881D01*
G01X31211Y-2176341D01*
G01X32943Y-2175379D01*
G01X36021Y-2173455D01*
G01X37368Y-2172493D01*
G01X39293Y-2170953D01*
G01X40255Y-2169991D01*
G01X42564Y-2168067D01*
G01X43526Y-2167105D01*
G01X46989Y-2163064D01*
G01X47952Y-2161717D01*
G01X48721Y-2160755D01*
G01X49491Y-2159600D01*
G01X50453Y-2158061D01*
G01X51608Y-2156137D01*
G01X52377Y-2154405D01*
G01X52955Y-2153058D01*
G01X53724Y-2151326D01*
G01X54494Y-2149210D01*
G01X55264Y-2146900D01*
G01X55841Y-2144207D01*
G01X56226Y-2142282D01*
G01X56611Y-2139588D01*
G01X56996Y-2135740D01*
G01X57188Y-2132853D01*
G01X56996Y-2129967D01*
G01X56611Y-2125734D01*
G01X56226Y-2123040D01*
G01X55649Y-2121115D01*
G01X55071Y-2118807D01*
G01X53339Y-2114188D01*
G01X51800Y-2111110D01*
G01X50261Y-2108415D01*
G01X49299Y-2106876D01*
G01X48336Y-2105529D01*
G01X47567Y-2104567D01*
G01X46412Y-2103028D01*
G01X40447Y-2097063D01*
G01X37368Y-2094753D01*
G01X36021Y-2093791D01*
G01X34482Y-2092829D01*
G01X31788Y-2091290D01*
G01X30056Y-2090520D01*
G01X28517Y-2089750D01*
G01X26785Y-2088981D01*
G01X24476Y-2088211D01*
G01X22359Y-2087634D01*
G01X20050Y-2087057D01*
G01X16971Y-2086479D01*
G01X13893Y-2086094D01*
G01X7735Y-2085902D01*
G01X2347Y-2086094D01*
G01X-1886Y-2086864D01*
G01X-4965Y-2087634D01*
G01X-6697Y-2088211D01*
G01X-10545Y-2089750D01*
G01X-12277Y-2090520D01*
G01X-13817Y-2091290D01*
G01X-15164Y-2092060D01*
G01X-16318Y-2092829D01*
G01X-17857Y-2093791D01*
G01X-19204Y-2094753D01*
G01X-20744Y-2095908D01*
G01X-22668Y-2097447D01*
G01X-26901Y-2101681D01*
G01X-29211Y-2104567D01*
G01X-29788Y-2105529D01*
G01X-30750Y-2106876D01*
G01X-32674Y-2109955D01*
G01X-34406Y-2113418D01*
G01X-34983Y-2114765D01*
G01X-35561Y-2116305D01*
G01X-36330Y-2118229D01*
G01X-36907Y-2120346D01*
G01X-37677Y-2123425D01*
G01X-38062Y-2125349D01*
G01X-38447Y-2127658D01*
G01X-38639Y-2129967D01*
G01X-38832Y-2131507D01*
G01X-39024Y-2134200D01*
G01X-70527Y-2134200D01*
G01X-70197Y-2133431D01*
G01X-68657Y-2129967D01*
G01X-66348Y-2124579D01*
G01X-64809Y-2121115D01*
G01X-62500Y-2115728D01*
G01X-60961Y-2112264D01*
G01X-58651Y-2106876D01*
G01X-57112Y-2103413D01*
G01X-55957Y-2100718D01*
G01X-54418Y-2097255D01*
G01X-52109Y-2091867D01*
G01X-51339Y-2090135D01*
G01X-50570Y-2088596D01*
G01X-51532Y-2088307D01*
G01X-55188Y-2088211D01*
G01X-60191Y-2088211D01*
G01X-60576Y-2089365D01*
G01X-61345Y-2091097D01*
G01X-63654Y-2096485D01*
G01X-65194Y-2099949D01*
G01X-66348Y-2102643D01*
G01X-67888Y-2106107D01*
G01X-70197Y-2111494D01*
G01X-71736Y-2114958D01*
G01X-72891Y-2117652D01*
G01X-74430Y-2121115D01*
G01X-76739Y-2126503D01*
G01X-78279Y-2129967D01*
G01X-79433Y-2132661D01*
G01X-80973Y-2136125D01*
G01X-83282Y-2141513D01*
G01X-84821Y-2144976D01*
G01X-85976Y-2147670D01*
G01X-87515Y-2151134D01*
G01X-89824Y-2156521D01*
G01X-90594Y-2157676D01*
G01X-90979Y-2157917D01*
G01X-91364Y-2157484D01*
G01X-92133Y-2155752D01*
G01X-92903Y-2153828D01*
G01X-94442Y-2150364D01*
G01X-95212Y-2148440D01*
G01X-96751Y-2144976D01*
G01X-97521Y-2143052D01*
G01X-99061Y-2139588D01*
G01X-99830Y-2137664D01*
G01X-101370Y-2134200D01*
G01X-102139Y-2132276D01*
G01X-103679Y-2128813D01*
G01X-104448Y-2126888D01*
G01X-105988Y-2123425D01*
G01X-106757Y-2121500D01*
G01X-108297Y-2118037D01*
G01X-109067Y-2116113D01*
G01X-110606Y-2112649D01*
G01X-111376Y-2110725D01*
G01X-112915Y-2107261D01*
G01X-113685Y-2105337D01*
G01X-115224Y-2101873D01*
G01X-115994Y-2099949D01*
G01X-117533Y-2096485D01*
G01X-118303Y-2094561D01*
G01X-119842Y-2091097D01*
G01X-120997Y-2088211D01*
G01X-131003Y-2088211D01*
G01X-185459Y-2088211D01*
G01X-200661Y-2088211D01*
G01X-200661Y-2133623D01*
G01X-200661Y-2133623D01*
G01X-217209Y-2133623D01*
G01X-217209Y-2125541D01*
G01X-260312Y-2125541D01*
G01X-260312Y-2097063D01*
G01X-217209Y-2097063D01*
G01X-217017Y-2096100D01*
G01X-216824Y-2091675D01*
G01X-216824Y-2088211D01*
G01X-269164Y-2088211D01*
G01X-269164Y-2133623D01*
G01X-269164Y-2133623D01*
G01X-301972Y-2133623D01*
G01X-305339Y-2130737D01*
G01X-306301Y-2129967D01*
G01X-307264Y-2129390D01*
G01X-308226Y-2128620D01*
G01X-317462Y-2121693D01*
G01X-319386Y-2120153D01*
G01X-323235Y-2116305D01*
G01X-324004Y-2115343D01*
G01X-324582Y-2114188D01*
G01X-325351Y-2112841D01*
G01X-326121Y-2110917D01*
G01X-326506Y-2108800D01*
G01X-326698Y-2107261D01*
G01X-326698Y-2104952D01*
G01X-326121Y-2102450D01*
G01X-325351Y-2100911D01*
G01X-324582Y-2099757D01*
G01X-323812Y-2098794D01*
G01X-322657Y-2097832D01*
G01X-321503Y-2097063D01*
G01X-320156Y-2096293D01*
G01X-317847Y-2095523D01*
G01X-314191Y-2095138D01*
G01X-311304Y-2095331D01*
G01X-309765Y-2095715D01*
G01X-308226Y-2096293D01*
G01X-306686Y-2097063D01*
G01X-305339Y-2097832D01*
G01X-304377Y-2098602D01*
G01X-300529Y-2102450D01*
G01X-298220Y-2105337D01*
G01X-297450Y-2105914D01*
G01X-296488Y-2105337D01*
G01X-295526Y-2104567D01*
G01X-294564Y-2103990D01*
G01X-293601Y-2103220D01*
G01X-292062Y-2102065D01*
G01X-290715Y-2100718D01*
G01X-290571Y-2100189D01*
G01X-290907Y-2099757D01*
G01X-291870Y-2098602D01*
G01X-292639Y-2097447D01*
G01X-293409Y-2096485D01*
G01X-297257Y-2092637D01*
G01X-298604Y-2091482D01*
G01X-301298Y-2089558D01*
G01X-304762Y-2087826D01*
G01X-306494Y-2087057D01*
G01X-308995Y-2086479D01*
G01X-310920Y-2086094D01*
G01X-314768Y-2085902D01*
G01X-318617Y-2086094D01*
G01X-320156Y-2086479D01*
G01X-321888Y-2087057D01*
G01X-323812Y-2087826D01*
G01X-325736Y-2088788D01*
G01X-327468Y-2089943D01*
G01X-328815Y-2091097D01*
G01X-330739Y-2093021D01*
G01X-331509Y-2093984D01*
G01X-332471Y-2095331D01*
G01X-333433Y-2096870D01*
G01X-334203Y-2098410D01*
G01X-334973Y-2100526D01*
G01X-335550Y-2103028D01*
G01X-335935Y-2104952D01*
G01X-336127Y-2107646D01*
G01X-335935Y-2110340D01*
G01X-335550Y-2112264D01*
G01X-334973Y-2114381D01*
G01X-333433Y-2117844D01*
G01X-332471Y-2119384D01*
G01X-331317Y-2121115D01*
G01X-330162Y-2122463D01*
G01X-327276Y-2125349D01*
G01X-322657Y-2129197D01*
G01X-319771Y-2131507D01*
G01X-318809Y-2132084D01*
G01X-315923Y-2134393D01*
G01X-314383Y-2135547D01*
G01X-312459Y-2137087D01*
G01X-311112Y-2138241D01*
G01X-310150Y-2139011D01*
G01X-308226Y-2140935D01*
G01X-306301Y-2142475D01*
G01X-303992Y-2145168D01*
G01X-303030Y-2146131D01*
G01X-302068Y-2147478D01*
G01X-300914Y-2149210D01*
G01X-299951Y-2150941D01*
G01X-299182Y-2152865D01*
G01X-298604Y-2155367D01*
G01X-298412Y-2158253D01*
G01X-298604Y-2160370D01*
G01X-298989Y-2161717D01*
G01X-299567Y-2163257D01*
G01X-300529Y-2164988D01*
G01X-301876Y-2166913D01*
G01X-303223Y-2168260D01*
G01X-304570Y-2169221D01*
G01X-306301Y-2170376D01*
G01X-308033Y-2171146D01*
G01X-309573Y-2171723D01*
G01X-312074Y-2172300D01*
G01X-316307Y-2172493D01*
G01X-319579Y-2172108D01*
G01X-321118Y-2171531D01*
G01X-322465Y-2170953D01*
G01X-324004Y-2169991D01*
G01X-325929Y-2168644D01*
G01X-328238Y-2166335D01*
G01X-330162Y-2164026D01*
G01X-330932Y-2163064D01*
G01X-331701Y-2161717D01*
G01X-332856Y-2159985D01*
G01X-333818Y-2158446D01*
G01X-334251Y-2158061D01*
G01X-334780Y-2158061D01*
G01X-335935Y-2158638D01*
G01X-337474Y-2159600D01*
G01X-339398Y-2160755D01*
G01X-341130Y-2161910D01*
G01X-341611Y-2162487D01*
G01X-343439Y-2162487D01*
G01X-343439Y-2056269D01*
G01X64885Y-2056269D01*
G01X64885Y-2207514D01*
G37*
G36*
G01X-178339Y-2128235D02*
G01X-181995Y-2128043D01*
G01X-186806Y-2127850D01*
G01X-191424Y-2127850D01*
G01X-191424Y-2097063D01*
G01X-179879Y-2097063D01*
G01X-167756Y-2097255D01*
G01X-165062Y-2097640D01*
G01X-163523Y-2098025D01*
G01X-161791Y-2098602D01*
G01X-160251Y-2099371D01*
G01X-158520Y-2100526D01*
G01X-157173Y-2101873D01*
G01X-156403Y-2102835D01*
G01X-155441Y-2104182D01*
G01X-154479Y-2106107D01*
G01X-153901Y-2107646D01*
G01X-153517Y-2109185D01*
G01X-153132Y-2111494D01*
G01X-153132Y-2114573D01*
G01X-153517Y-2116882D01*
G01X-154094Y-2118421D01*
G01X-154864Y-2119961D01*
G01X-155633Y-2121115D01*
G01X-156788Y-2122655D01*
G01X-158520Y-2124194D01*
G01X-160059Y-2125157D01*
G01X-161598Y-2125926D01*
G01X-163138Y-2126503D01*
G01X-165062Y-2127081D01*
G01X-167179Y-2127465D01*
G01X-168526Y-2127658D01*
G01X-174298Y-2128043D01*
G01X-178339Y-2128235D01*
G37*
G36*
G01X8889Y-2172493D02*
G01X3886Y-2172300D01*
G01X2347Y-2172108D01*
G01X423Y-2171915D01*
G01X-1501Y-2171338D01*
G01X-4003Y-2170568D01*
G01X-6120Y-2169799D01*
G01X-7851Y-2169029D01*
G01X-9583Y-2168067D01*
G01X-11507Y-2166913D01*
G01X-13047Y-2165950D01*
G01X-14586Y-2164796D01*
G01X-15933Y-2163641D01*
G01X-16895Y-2162871D01*
G01X-19782Y-2159985D01*
G01X-20936Y-2158446D01*
G01X-22476Y-2156521D01*
G01X-23630Y-2154790D01*
G01X-25170Y-2152096D01*
G01X-25939Y-2150364D01*
G01X-26709Y-2148825D01*
G01X-27286Y-2147285D01*
G01X-27864Y-2145553D01*
G01X-28441Y-2143437D01*
G01X-28826Y-2141513D01*
G01X-29211Y-2138818D01*
G01X-29403Y-2133238D01*
G01X-29211Y-2127658D01*
G01X-28441Y-2123425D01*
G01X-27094Y-2119384D01*
G01X-26324Y-2117652D01*
G01X-25170Y-2114958D01*
G01X-24207Y-2113418D01*
G01X-21898Y-2109955D01*
G01X-20744Y-2108608D01*
G01X-18820Y-2106299D01*
G01X-17857Y-2105337D01*
G01X-15933Y-2103797D01*
G01X-14586Y-2102643D01*
G01X-11123Y-2100334D01*
G01X-6120Y-2097832D01*
G01X-4388Y-2097063D01*
G01X-2656Y-2096485D01*
G01X-1117Y-2096100D01*
G01X808Y-2095523D01*
G01X3886Y-2094946D01*
G01X10044Y-2094753D01*
G01X15047Y-2094946D01*
G01X18896Y-2095715D01*
G01X22936Y-2097063D01*
G01X24668Y-2097832D01*
G01X27747Y-2099371D01*
G01X29094Y-2100141D01*
G01X30633Y-2101103D01*
G01X32365Y-2102258D01*
G01X36406Y-2105721D01*
G01X37368Y-2106684D01*
G01X40255Y-2110147D01*
G01X41217Y-2111687D01*
G01X42371Y-2113418D01*
G01X44873Y-2118421D01*
G01X45643Y-2120538D01*
G01X46412Y-2123040D01*
G01X46989Y-2126118D01*
G01X47374Y-2128428D01*
G01X47567Y-2134200D01*
G01X47374Y-2139973D01*
G01X46989Y-2141897D01*
G01X46412Y-2144399D01*
G01X45643Y-2146708D01*
G01X45065Y-2148632D01*
G01X44488Y-2149979D01*
G01X42949Y-2153058D01*
G01X42179Y-2154405D01*
G01X41217Y-2155944D01*
G01X40255Y-2157291D01*
G01X39100Y-2158831D01*
G01X34867Y-2163064D01*
G01X33520Y-2164218D01*
G01X30826Y-2166143D01*
G01X28902Y-2167297D01*
G01X23899Y-2169799D01*
G01X21782Y-2170568D01*
G01X19280Y-2171338D01*
G01X16394Y-2171915D01*
G01X14277Y-2172300D01*
G01X8889Y-2172493D01*
G37*
G36*
G01X-333440Y-952754D02*
G01X-726755Y-952754D01*
G01X-726755Y-880210D01*
G01X-719828Y-880210D01*
G01X-719636Y-882134D01*
G01X-719251Y-887522D01*
G01X-718866Y-889061D01*
G01X-718481Y-890986D01*
G01X-717904Y-892910D01*
G01X-717327Y-894642D01*
G01X-716172Y-897721D01*
G01X-715595Y-899068D01*
G01X-714825Y-900607D01*
G01X-714055Y-901954D01*
G01X-713286Y-903108D01*
G01X-712516Y-904455D01*
G01X-711554Y-905995D01*
G01X-710592Y-907342D01*
G01X-709822Y-908304D01*
G01X-708668Y-909843D01*
G01X-704434Y-914077D01*
G01X-700971Y-916963D01*
G01X-699816Y-917733D01*
G01X-698469Y-918695D01*
G01X-695390Y-920619D01*
G01X-693659Y-921581D01*
G01X-690195Y-923121D01*
G01X-688271Y-923890D01*
G01X-685962Y-924660D01*
G01X-683652Y-925237D01*
G01X-681921Y-925622D01*
G01X-679996Y-926007D01*
G01X-673839Y-926777D01*
G01X-670760Y-926969D01*
G01X-668451Y-926777D01*
G01X-664987Y-926392D01*
G01X-662678Y-926007D01*
G01X-659792Y-925430D01*
G01X-657675Y-924853D01*
G01X-654596Y-923698D01*
G01X-652865Y-923121D01*
G01X-651133Y-922351D01*
G01X-648054Y-920811D01*
G01X-646515Y-920234D01*
G01X-646034Y-920234D01*
G01X-645745Y-920619D01*
G01X-642666Y-924468D01*
G01X-642089Y-925430D01*
G01X-640934Y-926777D01*
G01X-639780Y-928316D01*
G01X-638240Y-930240D01*
G01X-638240Y-930240D01*
G01X-637278Y-931395D01*
G01X-635594Y-931828D01*
G01X-631698Y-931972D01*
G01X-626502Y-931587D01*
G01X-626695Y-930625D01*
G01X-629004Y-927547D01*
G01X-629966Y-926584D01*
G01X-630736Y-925622D01*
G01X-631698Y-924083D01*
G01X-632852Y-922736D01*
G01X-633622Y-921774D01*
G01X-634777Y-920234D01*
G01X-635931Y-918887D01*
G01X-636701Y-917925D01*
G01X-637855Y-916386D01*
G01X-638818Y-914654D01*
G01X-638818Y-913980D01*
G01X-638433Y-913500D01*
G01X-635546Y-910613D01*
G01X-633237Y-907534D01*
G01X-632468Y-906572D01*
G01X-631505Y-905225D01*
G01X-630351Y-903493D01*
G01X-629389Y-901761D01*
G01X-627849Y-898683D01*
G01X-627080Y-896951D01*
G01X-626310Y-895027D01*
G01X-625733Y-893295D01*
G01X-625348Y-891371D01*
G01X-624771Y-889447D01*
G01X-624386Y-887330D01*
G01X-624193Y-885213D01*
G01X-623809Y-883674D01*
G01X-623616Y-878093D01*
G01X-623809Y-872898D01*
G01X-624193Y-870974D01*
G01X-624578Y-868472D01*
G01X-624963Y-866740D01*
G01X-625540Y-864816D01*
G01X-626310Y-862315D01*
G01X-627080Y-860390D01*
G01X-628234Y-857697D01*
G01X-629004Y-856157D01*
G01X-629966Y-854425D01*
G01X-632275Y-850961D01*
G01X-633430Y-849615D01*
G01X-634969Y-847690D01*
G01X-635931Y-846728D01*
G01X-637086Y-845189D01*
G01X-638818Y-843650D01*
G01X-641512Y-841340D01*
G01X-642859Y-840378D01*
G01X-643821Y-839608D01*
G01X-645168Y-838647D01*
G01X-646707Y-837684D01*
G01X-648054Y-836915D01*
G01X-652672Y-834605D01*
G01X-654789Y-833836D01*
G01X-657098Y-833066D01*
G01X-610146Y-833066D01*
G01X-610146Y-834028D01*
G01X-609762Y-835760D01*
G01X-608607Y-839608D01*
G01X-608222Y-841148D01*
G01X-606683Y-846536D01*
G01X-606298Y-848075D01*
G01X-605143Y-851924D01*
G01X-604759Y-853463D01*
G01X-604374Y-854810D01*
G01X-603796Y-856542D01*
G01X-603412Y-858274D01*
G01X-602834Y-860198D01*
G01X-600525Y-868280D01*
G01X-599563Y-872128D01*
G01X-598986Y-873668D01*
G01X-598409Y-875592D01*
G01X-597639Y-878671D01*
G01X-597062Y-880403D01*
G01X-596677Y-881942D01*
G01X-595137Y-887330D01*
G01X-594752Y-888869D01*
G01X-593598Y-892718D01*
G01X-593213Y-894257D01*
G01X-592828Y-895604D01*
G01X-592251Y-897336D01*
G01X-591866Y-899068D01*
G01X-591289Y-900992D01*
G01X-588980Y-909074D01*
G01X-588210Y-911575D01*
G01X-587633Y-913692D01*
G01X-587248Y-915231D01*
G01X-586478Y-917925D01*
G01X-586093Y-919465D01*
G01X-585516Y-921197D01*
G01X-584939Y-923121D01*
G01X-584939Y-923121D01*
G01X-584362Y-924468D01*
G01X-583207Y-924275D01*
G01X-582245Y-923121D01*
G01X-581668Y-921581D01*
G01X-580898Y-919657D01*
G01X-580128Y-917540D01*
G01X-577049Y-909843D01*
G01X-576280Y-908111D01*
G01X-574740Y-904263D01*
G01X-573586Y-901184D01*
G01X-572046Y-897336D01*
G01X-571277Y-895604D01*
G01X-568968Y-889831D01*
G01X-568198Y-887715D01*
G01X-566659Y-883866D01*
G01X-565889Y-882134D01*
G01X-565312Y-880787D01*
G01X-564734Y-879248D01*
G01X-563195Y-875400D01*
G01X-562040Y-872321D01*
G01X-561271Y-870397D01*
G01X-560501Y-868665D01*
G01X-559924Y-867318D01*
G01X-559346Y-865778D01*
G01X-557037Y-860005D01*
G01X-556268Y-857889D01*
G01X-555498Y-856734D01*
G01X-554728Y-857311D01*
G01X-553189Y-860775D01*
G01X-552419Y-862700D01*
G01X-551842Y-864431D01*
G01X-551265Y-865971D01*
G01X-550495Y-867703D01*
G01X-549725Y-869627D01*
G01X-549148Y-871358D01*
G01X-548571Y-872705D01*
G01X-544722Y-882327D01*
G01X-543952Y-884443D01*
G01X-542413Y-888292D01*
G01X-541643Y-890408D01*
G01X-538565Y-898105D01*
G01X-537795Y-900222D01*
G01X-536255Y-904071D01*
G01X-535486Y-906187D01*
G01X-533177Y-911960D01*
G01X-532407Y-913692D01*
G01X-531830Y-915424D01*
G01X-531252Y-916963D01*
G01X-530483Y-918887D01*
G01X-529713Y-920619D01*
G01X-529136Y-921966D01*
G01X-528366Y-923505D01*
G01X-527019Y-924275D01*
G01X-526394Y-923986D01*
G01X-526057Y-923121D01*
G01X-525480Y-921197D01*
G01X-524325Y-916963D01*
G01X-523748Y-915231D01*
G01X-522978Y-912153D01*
G01X-522401Y-910421D01*
G01X-521824Y-908497D01*
G01X-521439Y-906765D01*
G01X-520862Y-905033D01*
G01X-520284Y-902916D01*
G01X-519899Y-901377D01*
G01X-518745Y-897528D01*
G01X-516436Y-889447D01*
G01X-515859Y-887522D01*
G01X-515089Y-884828D01*
G01X-514512Y-882904D01*
G01X-514127Y-881365D01*
G01X-513549Y-879633D01*
G01X-513261Y-878671D01*
G01X-484686Y-878671D01*
G01X-484686Y-924275D01*
G01X-475449Y-924275D01*
G01X-475449Y-878671D01*
G01X-455822Y-878671D01*
G01X-455822Y-924275D01*
G01X-446971Y-924275D01*
G01X-446971Y-879248D01*
G01X-430037Y-879248D01*
G01X-429845Y-884058D01*
G01X-429460Y-887137D01*
G01X-428690Y-891371D01*
G01X-428113Y-893103D01*
G01X-427343Y-895604D01*
G01X-426574Y-897528D01*
G01X-425419Y-900222D01*
G01X-423880Y-903301D01*
G01X-422918Y-904840D01*
G01X-421763Y-906572D01*
G01X-420801Y-907919D01*
G01X-419262Y-909843D01*
G01X-418299Y-910805D01*
G01X-416760Y-912730D01*
G01X-415798Y-913692D01*
G01X-413104Y-916001D01*
G01X-411949Y-916963D01*
G01X-410795Y-917733D01*
G01X-409448Y-918695D01*
G01X-406369Y-920619D01*
G01X-402905Y-922351D01*
G01X-398287Y-924083D01*
G01X-396748Y-924468D01*
G01X-394824Y-925045D01*
G01X-392130Y-925622D01*
G01X-389436Y-926007D01*
G01X-389436Y-926007D01*
G01X-387704Y-926392D01*
G01X-380969Y-926584D01*
G01X-374042Y-926392D01*
G01X-371348Y-926007D01*
G01X-369231Y-925622D01*
G01X-366922Y-925045D01*
G01X-364805Y-924468D01*
G01X-362881Y-923890D01*
G01X-359802Y-922736D01*
G01X-357109Y-921581D01*
G01X-355569Y-920619D01*
G01X-353645Y-919657D01*
G01X-352298Y-918887D01*
G01X-351336Y-918118D01*
G01X-348642Y-916193D01*
G01X-347680Y-915231D01*
G01X-345371Y-913307D01*
G01X-344409Y-912345D01*
G01X-342099Y-909651D01*
G01X-341522Y-908689D01*
G01X-342292Y-907727D01*
G01X-343446Y-906765D01*
G01X-344409Y-905995D01*
G01X-345371Y-905418D01*
G01X-346333Y-904648D01*
G01X-347487Y-903686D01*
G01X-348017Y-903397D01*
G01X-348449Y-903686D01*
G01X-352298Y-907534D01*
G01X-354992Y-909843D01*
G01X-355954Y-910613D01*
G01X-357301Y-911383D01*
G01X-359033Y-912537D01*
G01X-362496Y-914269D01*
G01X-364228Y-915039D01*
G01X-366152Y-915808D01*
G01X-368077Y-916386D01*
G01X-369809Y-916771D01*
G01X-371348Y-917155D01*
G01X-373272Y-917540D01*
G01X-375966Y-917925D01*
G01X-381546Y-918118D01*
G01X-385972Y-917925D01*
G01X-388666Y-917540D01*
G01X-390590Y-917155D01*
G01X-392707Y-916578D01*
G01X-394631Y-916001D01*
G01X-396363Y-915424D01*
G01X-399827Y-913884D01*
G01X-401366Y-912922D01*
G01X-403290Y-911768D01*
G01X-405215Y-910421D01*
G01X-406754Y-909266D01*
G01X-411565Y-904455D01*
G01X-412719Y-902916D01*
G01X-414066Y-900992D01*
G01X-415221Y-899260D01*
G01X-416183Y-897528D01*
G01X-416952Y-895989D01*
G01X-417722Y-894257D01*
G01X-418492Y-891948D01*
G01X-419262Y-889447D01*
G01X-419839Y-886368D01*
G01X-420224Y-883674D01*
G01X-420416Y-878478D01*
G01X-420224Y-873668D01*
G01X-419839Y-870974D01*
G01X-419454Y-869242D01*
G01X-418877Y-867318D01*
G01X-417722Y-863854D01*
G01X-416952Y-862122D01*
G01X-415413Y-859043D01*
G01X-414451Y-857697D01*
G01X-413681Y-856734D01*
G01X-412912Y-855387D01*
G01X-411949Y-854040D01*
G01X-408101Y-850192D01*
G01X-405792Y-848268D01*
G01X-404830Y-847498D01*
G01X-403483Y-846728D01*
G01X-401751Y-845574D01*
G01X-396748Y-843072D01*
G01X-394631Y-842303D01*
G01X-392322Y-841533D01*
G01X-389628Y-840955D01*
G01X-387512Y-840571D01*
G01X-384818Y-840186D01*
G01X-380007Y-839993D01*
G01X-375196Y-840186D01*
G01X-370578Y-840955D01*
G01X-368654Y-841533D01*
G01X-366152Y-842303D01*
G01X-364228Y-843072D01*
G01X-362496Y-843842D01*
G01X-360957Y-844611D01*
G01X-359610Y-845381D01*
G01X-358071Y-846343D01*
G01X-356724Y-847305D01*
G01X-355184Y-848460D01*
G01X-353260Y-850000D01*
G01X-350951Y-852308D01*
G01X-349027Y-854618D01*
G01X-348257Y-855195D01*
G01X-347102Y-854810D01*
G01X-345755Y-853848D01*
G01X-342869Y-851539D01*
G01X-341715Y-850577D01*
G01X-341474Y-849903D01*
G01X-341907Y-849037D01*
G01X-343446Y-847113D01*
G01X-347680Y-842880D01*
G01X-348834Y-841918D01*
G01X-349989Y-841148D01*
G01X-350951Y-840378D01*
G01X-352298Y-839416D01*
G01X-354030Y-838261D01*
G01X-355954Y-837300D01*
G01X-357301Y-836530D01*
G01X-358840Y-835760D01*
G01X-360572Y-834990D01*
G01X-361919Y-834413D01*
G01X-363459Y-833836D01*
G01X-365383Y-833258D01*
G01X-367115Y-832874D01*
G01X-368654Y-832489D01*
G01X-370578Y-832104D01*
G01X-375196Y-831334D01*
G01X-381546Y-831142D01*
G01X-387512Y-831334D01*
G01X-390590Y-831719D01*
G01X-394439Y-832489D01*
G01X-400789Y-834605D01*
G01X-402521Y-835375D01*
G01X-405599Y-836915D01*
G01X-407139Y-837877D01*
G01X-409063Y-839031D01*
G01X-411757Y-840955D01*
G01X-413104Y-842110D01*
G01X-414066Y-843072D01*
G01X-415605Y-844227D01*
G01X-417145Y-845958D01*
G01X-418299Y-847305D01*
G01X-419262Y-848268D01*
G01X-421571Y-851347D01*
G01X-422533Y-852693D01*
G01X-423495Y-854233D01*
G01X-424265Y-855580D01*
G01X-425804Y-858658D01*
G01X-426574Y-860390D01*
G01X-427921Y-864431D01*
G01X-428498Y-866355D01*
G01X-429075Y-869050D01*
G01X-429460Y-871358D01*
G01X-429652Y-873090D01*
G01X-429845Y-874437D01*
G01X-430037Y-879248D01*
G01X-446971Y-879248D01*
G01X-446971Y-833066D01*
G01X-455822Y-833066D01*
G01X-455822Y-878671D01*
G01X-455822Y-878671D01*
G01X-475449Y-878671D01*
G01X-475449Y-833066D01*
G01X-484686Y-833066D01*
G01X-484686Y-878671D01*
G01X-484686Y-878671D01*
G01X-513261Y-878671D01*
G01X-512972Y-877708D01*
G01X-512587Y-875977D01*
G01X-512010Y-874245D01*
G01X-511433Y-872128D01*
G01X-511048Y-870589D01*
G01X-510471Y-868665D01*
G01X-509701Y-865971D01*
G01X-509124Y-864047D01*
G01X-508354Y-861353D01*
G01X-507777Y-859428D01*
G01X-506237Y-854040D01*
G01X-505660Y-852116D01*
G01X-505275Y-850577D01*
G01X-504698Y-848845D01*
G01X-504121Y-846921D01*
G01X-503736Y-845189D01*
G01X-502966Y-842495D01*
G01X-502389Y-840763D01*
G01X-501812Y-838454D01*
G01X-501234Y-836530D01*
G01X-500657Y-834798D01*
G01X-500465Y-833451D01*
G01X-504890Y-833066D01*
G01X-509316Y-833066D01*
G01X-509701Y-834028D01*
G01X-510278Y-835953D01*
G01X-510663Y-837492D01*
G01X-511240Y-839031D01*
G01X-511818Y-841148D01*
G01X-512202Y-842880D01*
G01X-512780Y-844611D01*
G01X-513549Y-847113D01*
G01X-515859Y-855195D01*
G01X-516436Y-857311D01*
G01X-517590Y-861353D01*
G01X-518168Y-863084D01*
G01X-518745Y-865393D01*
G01X-519322Y-867125D01*
G01X-520862Y-872513D01*
G01X-521439Y-874437D01*
G01X-522016Y-876554D01*
G01X-522593Y-878478D01*
G01X-522978Y-880210D01*
G01X-523555Y-881942D01*
G01X-524133Y-884058D01*
G01X-524710Y-885790D01*
G01X-525095Y-887330D01*
G01X-525480Y-888677D01*
G01X-526057Y-890408D01*
G01X-526442Y-892140D01*
G01X-527019Y-893872D01*
G01X-527596Y-896181D01*
G01X-527933Y-897047D01*
G01X-528559Y-897336D01*
G01X-529184Y-897095D01*
G01X-529521Y-896374D01*
G01X-530098Y-894642D01*
G01X-530868Y-892718D01*
G01X-531637Y-890601D01*
G01X-533177Y-886753D01*
G01X-533946Y-884636D01*
G01X-537025Y-876939D01*
G01X-537795Y-874822D01*
G01X-538565Y-872898D01*
G01X-539334Y-871166D01*
G01X-540104Y-869242D01*
G01X-540681Y-867510D01*
G01X-541259Y-866163D01*
G01X-541836Y-864624D01*
G01X-542990Y-861930D01*
G01X-543568Y-860390D01*
G01X-545107Y-856542D01*
G01X-546262Y-853463D01*
G01X-548571Y-847690D01*
G01X-549340Y-845574D01*
G01X-550880Y-841725D01*
G01X-551649Y-839608D01*
G01X-553189Y-835760D01*
G01X-554343Y-833836D01*
G01X-555065Y-833307D01*
G01X-555690Y-833258D01*
G01X-556652Y-834413D01*
G01X-559731Y-842110D01*
G01X-560501Y-844227D01*
G01X-561271Y-846151D01*
G01X-562040Y-847883D01*
G01X-565119Y-855580D01*
G01X-565889Y-857697D01*
G01X-568198Y-863469D01*
G01X-568968Y-865201D01*
G01X-569545Y-866740D01*
G01X-570122Y-868087D01*
G01X-571277Y-871166D01*
G01X-573586Y-876939D01*
G01X-574355Y-879055D01*
G01X-576665Y-884828D01*
G01X-577434Y-886560D01*
G01X-578974Y-890408D01*
G01X-580128Y-893487D01*
G01X-580898Y-895411D01*
G01X-581668Y-897143D01*
G01X-582052Y-897480D01*
G01X-582437Y-897336D01*
G01X-583207Y-895604D01*
G01X-583784Y-893487D01*
G01X-585709Y-886753D01*
G01X-586093Y-885213D01*
G01X-586671Y-883481D01*
G01X-587055Y-881942D01*
G01X-587440Y-880595D01*
G01X-588018Y-878863D01*
G01X-588402Y-877131D01*
G01X-588980Y-875207D01*
G01X-592059Y-864431D01*
G01X-592636Y-862315D01*
G01X-593790Y-858274D01*
G01X-594560Y-855195D01*
G01X-595715Y-851347D01*
G01X-597254Y-845958D01*
G01X-597639Y-844419D01*
G01X-598216Y-842687D01*
G01X-598793Y-840763D01*
G01X-599178Y-839031D01*
G01X-599755Y-837300D01*
G01X-600333Y-835183D01*
G01X-601102Y-833643D01*
G01X-602594Y-833210D01*
G01X-605913Y-833066D01*
G01X-610146Y-833066D01*
G01X-657098Y-833066D01*
G01X-659407Y-832489D01*
G01X-664602Y-831334D01*
G01X-669990Y-830950D01*
G01X-671722Y-830757D01*
G01X-673454Y-830950D01*
G01X-676533Y-831142D01*
G01X-679804Y-831527D01*
G01X-681728Y-831911D01*
G01X-683460Y-832104D01*
G01X-685192Y-832681D01*
G01X-687116Y-833258D01*
G01X-690195Y-834413D01*
G01X-691542Y-834990D01*
G01X-694621Y-836530D01*
G01X-695968Y-837300D01*
G01X-697507Y-838261D01*
G01X-699239Y-839416D01*
G01X-701163Y-840763D01*
G01X-702510Y-841918D01*
G01X-703472Y-842687D01*
G01X-707321Y-846536D01*
G01X-709245Y-848845D01*
G01X-710015Y-849807D01*
G01X-710784Y-851154D01*
G01X-711939Y-852886D01*
G01X-712901Y-854425D01*
G01X-713671Y-855772D01*
G01X-714633Y-857504D01*
G01X-715595Y-859428D01*
G01X-716172Y-860968D01*
G01X-717327Y-864431D01*
G01X-717904Y-865971D01*
G01X-718289Y-867703D01*
G01X-718481Y-869050D01*
G01X-719251Y-872513D01*
G01X-719636Y-878286D01*
G01X-719828Y-880210D01*
G01X-726755Y-880210D01*
G01X-726755Y-801509D01*
G01X-333440Y-801509D01*
G01X-333440Y-952754D01*
G37*
G36*
G01X-672107Y-917733D02*
G01X-677302Y-917540D01*
G01X-678457Y-917348D01*
G01X-679996Y-917155D01*
G01X-681728Y-916771D01*
G01X-683652Y-916193D01*
G01X-685384Y-915616D01*
G01X-686924Y-915039D01*
G01X-690002Y-913500D01*
G01X-692696Y-911960D01*
G01X-693851Y-911190D01*
G01X-695390Y-910036D01*
G01X-696737Y-908689D01*
G01X-698662Y-907150D01*
G01X-699624Y-906187D01*
G01X-701933Y-903493D01*
G01X-703472Y-901569D01*
G01X-704242Y-900415D01*
G01X-704819Y-899260D01*
G01X-705589Y-897913D01*
G01X-706359Y-896374D01*
G01X-707128Y-894642D01*
G01X-707898Y-892718D01*
G01X-708475Y-890986D01*
G01X-708860Y-889447D01*
G01X-709245Y-887522D01*
G01X-709630Y-885021D01*
G01X-710015Y-883289D01*
G01X-710207Y-878863D01*
G01X-710015Y-874437D01*
G01X-709630Y-872513D01*
G01X-709245Y-870204D01*
G01X-708860Y-868472D01*
G01X-708090Y-865778D01*
G01X-707513Y-864239D01*
G01X-706743Y-862507D01*
G01X-705012Y-859043D01*
G01X-704434Y-858081D01*
G01X-703472Y-856734D01*
G01X-702510Y-855195D01*
G01X-700971Y-853271D01*
G01X-700009Y-852308D01*
G01X-699046Y-851154D01*
G01X-698084Y-850192D01*
G01X-697122Y-849422D01*
G01X-695775Y-848268D01*
G01X-692312Y-845958D01*
G01X-690772Y-844997D01*
G01X-686539Y-842880D01*
G01X-685384Y-842495D01*
G01X-683845Y-841918D01*
G01X-681921Y-841340D01*
G01X-679612Y-840763D01*
G01X-676533Y-840186D01*
G01X-670568Y-839993D01*
G01X-665757Y-840186D01*
G01X-662293Y-840955D01*
G01X-660754Y-841340D01*
G01X-656136Y-843072D01*
G01X-654596Y-843842D01*
G01X-652865Y-844804D01*
G01X-649786Y-846728D01*
G01X-648054Y-847883D01*
G01X-646707Y-849037D01*
G01X-645552Y-850192D01*
G01X-644205Y-851347D01*
G01X-643243Y-852501D01*
G01X-642281Y-853463D01*
G01X-641127Y-854810D01*
G01X-640165Y-856350D01*
G01X-639202Y-857697D01*
G01X-638240Y-859428D01*
G01X-636701Y-862507D01*
G01X-635931Y-864239D01*
G01X-634777Y-867703D01*
G01X-634007Y-871166D01*
G01X-633622Y-873668D01*
G01X-633430Y-875977D01*
G01X-633237Y-879825D01*
G01X-633430Y-883674D01*
G01X-633622Y-885405D01*
G01X-634007Y-887330D01*
G01X-634392Y-888869D01*
G01X-634584Y-890216D01*
G01X-635162Y-891755D01*
G01X-635739Y-893487D01*
G01X-636316Y-894834D01*
G01X-636893Y-895989D01*
G01X-637471Y-897336D01*
G01X-638433Y-899068D01*
G01X-639395Y-900607D01*
G01X-640165Y-901761D01*
G01X-640934Y-902724D01*
G01X-641896Y-904071D01*
G01X-643051Y-905418D01*
G01X-644013Y-906380D01*
G01X-644494Y-906765D01*
G01X-645168Y-906765D01*
G01X-646322Y-905803D01*
G01X-647092Y-904648D01*
G01X-647862Y-903686D01*
G01X-648824Y-902724D01*
G01X-649593Y-901761D01*
G01X-650171Y-900800D01*
G01X-650940Y-899837D01*
G01X-651902Y-898875D01*
G01X-652672Y-897913D01*
G01X-653249Y-896951D01*
G01X-654019Y-895989D01*
G01X-655174Y-894450D01*
G01X-656328Y-893103D01*
G01X-657098Y-892140D01*
G01X-658252Y-890601D01*
G01X-659792Y-888677D01*
G01X-661139Y-887330D01*
G01X-662293Y-886753D01*
G01X-667296Y-886560D01*
G01X-670616Y-886704D01*
G01X-671722Y-887137D01*
G01X-671145Y-888484D01*
G01X-670183Y-889831D01*
G01X-668643Y-891755D01*
G01X-667681Y-892718D01*
G01X-666912Y-893680D01*
G01X-666334Y-894642D01*
G01X-665565Y-895604D01*
G01X-664410Y-897143D01*
G01X-659792Y-902916D01*
G01X-657483Y-905995D01*
G01X-656328Y-907342D01*
G01X-655559Y-908304D01*
G01X-654404Y-909843D01*
G01X-653249Y-911190D01*
G01X-652672Y-912153D01*
G01X-652768Y-912682D01*
G01X-653442Y-913115D01*
G01X-655174Y-914077D01*
G01X-656713Y-914847D01*
G01X-658252Y-915424D01*
G01X-659984Y-916001D01*
G01X-661524Y-916386D01*
G01X-663448Y-916771D01*
G01X-665949Y-917348D01*
G01X-672107Y-917733D01*
G37*
G36*
G01X221673Y-885790D02*
G01X206856Y-885598D01*
G01X206856Y-884636D01*
G01X207433Y-883289D01*
G01X208203Y-881750D01*
G01X209743Y-878286D01*
G01X212052Y-873668D01*
G01X213206Y-870974D01*
G01X215515Y-866355D01*
G01X216285Y-864431D01*
G01X218594Y-859813D01*
G01X220133Y-856350D01*
G01X220903Y-854810D01*
G01X221865Y-853463D01*
G01X222394Y-853463D01*
G01X222827Y-854233D01*
G01X223597Y-855965D01*
G01X225136Y-859043D01*
G01X226676Y-862507D01*
G01X228985Y-867125D01*
G01X229755Y-869050D01*
G01X232064Y-873668D01*
G01X233218Y-876361D01*
G01X234757Y-879440D01*
G01X236297Y-882904D01*
G01X237067Y-884443D01*
G01X237211Y-885213D01*
G01X236874Y-885598D01*
G01X221673Y-885790D01*
G37*
G36*
G01X643467Y-952754D02*
G01X175106Y-952754D01*
G01X175106Y-923890D01*
G01X178377Y-923890D01*
G01X179484Y-924179D01*
G01X183188Y-924275D01*
G01X186988Y-924083D01*
G01X188383Y-923505D01*
G01X188961Y-922158D01*
G01X191270Y-917540D01*
G01X192039Y-915616D01*
G01X194349Y-910998D01*
G01X195888Y-907534D01*
G01X198197Y-902916D01*
G01X198967Y-900992D01*
G01X201276Y-896374D01*
G01X202046Y-895027D01*
G01X207241Y-894450D01*
G01X222057Y-894257D01*
G01X236826Y-894450D01*
G01X241877Y-895027D01*
G01X242455Y-896374D01*
G01X244764Y-900992D01*
G01X246303Y-904455D01*
G01X249382Y-910613D01*
G01X250152Y-912537D01*
G01X253230Y-918695D01*
G01X254000Y-920619D01*
G01X254770Y-922158D01*
G01X255539Y-923505D01*
G01X257031Y-924083D01*
G01X260735Y-924275D01*
G01X265546Y-924275D01*
G01X265353Y-923505D01*
G01X264776Y-922158D01*
G01X263236Y-919080D01*
G01X262082Y-916386D01*
G01X260543Y-913307D01*
G01X259388Y-910613D01*
G01X257849Y-907534D01*
G01X256694Y-904840D01*
G01X255155Y-901761D01*
G01X254000Y-899068D01*
G01X252461Y-895989D01*
G01X251306Y-893295D01*
G01X249767Y-890216D01*
G01X248612Y-887522D01*
G01X247073Y-884443D01*
G01X245918Y-881750D01*
G01X244379Y-878671D01*
G01X243224Y-875977D01*
G01X241685Y-872898D01*
G01X240530Y-870204D01*
G01X238991Y-867125D01*
G01X237836Y-864431D01*
G01X236297Y-861353D01*
G01X235637Y-859813D01*
G01X275167Y-859813D01*
G01X275359Y-863661D01*
G01X275744Y-865586D01*
G01X276321Y-867703D01*
G01X276899Y-869434D01*
G01X277476Y-870974D01*
G01X279015Y-873668D01*
G01X279785Y-874822D01*
G01X280939Y-876361D01*
G01X282479Y-878286D01*
G01X283826Y-879440D01*
G01X284788Y-880210D01*
G01X285943Y-881172D01*
G01X288252Y-882711D01*
G01X289599Y-883481D01*
G01X291330Y-884251D01*
G01X293639Y-885021D01*
G01X296141Y-885598D01*
G01X298450Y-885983D01*
G01X301529Y-886175D01*
G01X304223Y-885983D01*
G01X306339Y-885598D01*
G01X308649Y-885021D01*
G01X309803Y-884828D01*
G01X309803Y-885790D01*
G01X308841Y-887330D01*
G01X296141Y-906380D01*
G01X294986Y-908304D01*
G01X286905Y-920427D01*
G01X286327Y-921774D01*
G01X287097Y-922736D01*
G01X288636Y-923698D01*
G01X288636Y-923698D01*
G01X292100Y-926007D01*
G01X292822Y-926344D01*
G01X293447Y-926200D01*
G01X294217Y-925237D01*
G01X294986Y-923890D01*
G01X309996Y-901377D01*
G01X311920Y-898683D01*
G01X321156Y-884828D01*
G01X325005Y-878671D01*
G01X346556Y-878671D01*
G01X346556Y-879825D01*
G01X346941Y-885213D01*
G01X347326Y-887907D01*
G01X348096Y-891371D01*
G01X349443Y-895411D01*
G01X350212Y-897143D01*
G01X351367Y-899837D01*
G01X352906Y-902531D01*
G01X353868Y-904071D01*
G01X355215Y-905995D01*
G01X357524Y-909074D01*
G01X362720Y-914269D01*
G01X365606Y-916578D01*
G01X366953Y-917540D01*
G01X370417Y-919850D01*
G01X375420Y-922351D01*
G01X379653Y-923890D01*
G01X381770Y-924468D01*
G01X383502Y-924853D01*
G01X385426Y-925430D01*
G01X387735Y-925815D01*
G01X389274Y-926007D01*
G01X389274Y-926007D01*
G01X390621Y-926392D01*
G01X397741Y-926584D01*
G01X404668Y-926392D01*
G01X407747Y-926007D01*
G01X411596Y-925237D01*
G01X413327Y-924660D01*
G01X415829Y-923890D01*
G01X417753Y-923121D01*
G01X420447Y-921966D01*
G01X423141Y-920427D01*
G01X424680Y-919465D01*
G01X426605Y-918118D01*
G01X428144Y-916963D01*
G01X432762Y-912345D01*
G01X433917Y-910998D01*
G01X435841Y-908304D01*
G01X436081Y-907919D01*
G01X487218Y-907919D01*
G01X487603Y-908881D01*
G01X488373Y-910036D01*
G01X489143Y-911383D01*
G01X489912Y-912537D01*
G01X492221Y-915616D01*
G01X493183Y-916578D01*
G01X494723Y-918503D01*
G01X495685Y-919465D01*
G01X498571Y-921774D01*
G01X499918Y-922543D01*
G01X501650Y-923505D01*
G01X503189Y-924275D01*
G01X504536Y-924853D01*
G01X506076Y-925430D01*
G01X506076Y-925430D01*
G01X509155Y-926200D01*
G01X514157Y-926584D01*
G01X518968Y-926392D01*
G01X520700Y-926007D01*
G01X522624Y-925430D01*
G01X525703Y-924275D01*
G01X527435Y-923313D01*
G01X528974Y-922351D01*
G01X530514Y-921197D01*
G01X531861Y-920042D01*
G01X532823Y-919272D01*
G01X534362Y-917348D01*
G01X535517Y-916001D01*
G01X536671Y-914269D01*
G01X537633Y-912537D01*
G01X538403Y-910805D01*
G01X539173Y-908689D01*
G01X539750Y-905995D01*
G01X540135Y-903108D01*
G01X540135Y-900992D01*
G01X539750Y-897528D01*
G01X539173Y-895797D01*
G01X538403Y-893680D01*
G01X537633Y-891755D01*
G01X536671Y-890024D01*
G01X535709Y-888484D01*
G01X534939Y-887330D01*
G01X534170Y-886368D01*
G01X533015Y-884828D01*
G01X527820Y-879633D01*
G01X526793Y-878863D01*
G01X559570Y-878863D01*
G01X559570Y-924275D01*
G01X578043Y-924275D01*
G01X597093Y-924083D01*
G01X600941Y-923698D01*
G01X605174Y-922928D01*
G01X608253Y-922158D01*
G01X609985Y-921581D01*
G01X612102Y-920811D01*
G01X613833Y-920042D01*
G01X617297Y-918118D01*
G01X618452Y-917348D01*
G01X619799Y-916386D01*
G01X621146Y-915231D01*
G01X622107Y-914269D01*
G01X623455Y-913115D01*
G01X624609Y-911768D01*
G01X625571Y-910805D01*
G01X626533Y-909651D01*
G01X627303Y-908497D01*
G01X628073Y-907534D01*
G01X628843Y-906380D01*
G01X629805Y-904840D01*
G01X630767Y-902916D01*
G01X631536Y-901569D01*
G01X632114Y-900415D01*
G01X632691Y-899068D01*
G01X633268Y-897528D01*
G01X633846Y-895797D01*
G01X634423Y-893872D01*
G01X634807Y-892140D01*
G01X635193Y-890601D01*
G01X635577Y-888292D01*
G01X635962Y-885598D01*
G01X636155Y-879055D01*
G01X635962Y-873283D01*
G01X635577Y-870204D01*
G01X634807Y-866355D01*
G01X633461Y-862315D01*
G01X632691Y-860198D01*
G01X631921Y-858274D01*
G01X630382Y-855195D01*
G01X629612Y-853848D01*
G01X628650Y-852501D01*
G01X627303Y-850577D01*
G01X626149Y-849037D01*
G01X621338Y-844227D01*
G01X619414Y-842687D01*
G01X618067Y-841725D01*
G01X616335Y-840571D01*
G01X614411Y-839416D01*
G01X612679Y-838647D01*
G01X611332Y-838069D01*
G01X609600Y-837300D01*
G01X607676Y-836530D01*
G01X605752Y-835953D01*
G01X604020Y-835568D01*
G01X600171Y-834798D01*
G01X597862Y-834413D01*
G01X594399Y-834028D01*
G01X591512Y-833836D01*
G01X589780Y-833643D01*
G01X574386Y-833451D01*
G01X559570Y-833451D01*
G01X559570Y-878863D01*
G01X559570Y-878863D01*
G01X526793Y-878863D01*
G01X526280Y-878478D01*
G01X524933Y-877324D01*
G01X522047Y-875015D01*
G01X520507Y-873860D01*
G01X518776Y-872513D01*
G01X517429Y-871551D01*
G01X512811Y-868087D01*
G01X510886Y-866548D01*
G01X509347Y-865393D01*
G01X506461Y-862507D01*
G01X504921Y-860583D01*
G01X504152Y-859428D01*
G01X503382Y-857889D01*
G01X502612Y-855772D01*
G01X502227Y-853655D01*
G01X502035Y-852116D01*
G01X502035Y-850961D01*
G01X502227Y-849615D01*
G01X502612Y-848075D01*
G01X503382Y-846343D01*
G01X504344Y-844997D01*
G01X505114Y-844034D01*
G01X505883Y-843265D01*
G01X506846Y-842687D01*
G01X508193Y-841918D01*
G01X509924Y-841148D01*
G01X512041Y-840571D01*
G01X515312Y-840378D01*
G01X517814Y-840571D01*
G01X519546Y-841148D01*
G01X521470Y-841918D01*
G01X523009Y-842880D01*
G01X524356Y-843842D01*
G01X528205Y-847690D01*
G01X529167Y-848845D01*
G01X529936Y-850000D01*
G01X530706Y-850961D01*
G01X531235Y-851202D01*
G01X532053Y-850769D01*
G01X536671Y-847305D01*
G01X537826Y-846343D01*
G01X538163Y-845766D01*
G01X538018Y-845189D01*
G01X536864Y-843650D01*
G01X535324Y-841725D01*
G01X531091Y-837492D01*
G01X529744Y-836337D01*
G01X526280Y-834028D01*
G01X524356Y-833066D01*
G01X522239Y-832297D01*
G01X519738Y-831719D01*
G01X517814Y-831334D01*
G01X514157Y-831142D01*
G01X510502Y-831334D01*
G01X508770Y-831719D01*
G01X506846Y-832297D01*
G01X505114Y-833066D01*
G01X503189Y-834028D01*
G01X501650Y-834990D01*
G01X500111Y-836145D01*
G01X497802Y-838454D01*
G01X496839Y-839608D01*
G01X495877Y-841148D01*
G01X494915Y-842880D01*
G01X494146Y-844611D01*
G01X493568Y-846536D01*
G01X493183Y-848268D01*
G01X492799Y-850577D01*
G01X492606Y-853463D01*
G01X492799Y-855195D01*
G01X493568Y-859043D01*
G01X494146Y-860583D01*
G01X494915Y-862122D01*
G01X496455Y-864816D01*
G01X497224Y-865971D01*
G01X498379Y-867510D01*
G01X500688Y-869819D01*
G01X506076Y-874437D01*
G01X508962Y-876747D01*
G01X509924Y-877324D01*
G01X510886Y-878093D01*
G01X512426Y-879248D01*
G01X514350Y-880787D01*
G01X515889Y-881942D01*
G01X516852Y-882904D01*
G01X518776Y-884443D01*
G01X519738Y-885405D01*
G01X521277Y-886560D01*
G01X523586Y-888869D01*
G01X526473Y-892333D01*
G01X528012Y-894642D01*
G01X528782Y-895989D01*
G01X529359Y-897528D01*
G01X529936Y-899260D01*
G01X530321Y-902724D01*
G01X530129Y-905995D01*
G01X529552Y-907727D01*
G01X528782Y-909458D01*
G01X527820Y-910998D01*
G01X526665Y-912345D01*
G01X525703Y-913307D01*
G01X524549Y-914269D01*
G01X523009Y-915231D01*
G01X521277Y-916193D01*
G01X519161Y-916963D01*
G01X516659Y-917540D01*
G01X512618Y-917733D01*
G01X509155Y-917348D01*
G01X507615Y-916771D01*
G01X506268Y-916193D01*
G01X504729Y-915231D01*
G01X503382Y-914269D01*
G01X502420Y-913500D01*
G01X500496Y-911575D01*
G01X498186Y-908689D01*
G01X497609Y-907727D01*
G01X496647Y-906380D01*
G01X495493Y-904455D01*
G01X494723Y-903301D01*
G01X493568Y-903493D01*
G01X492221Y-904263D01*
G01X491067Y-905033D01*
G01X489720Y-905803D01*
G01X488180Y-906765D01*
G01X487218Y-907919D01*
G01X436081Y-907919D01*
G01X437765Y-905225D01*
G01X438727Y-903301D01*
G01X440267Y-899837D01*
G01X441036Y-897721D01*
G01X441614Y-895604D01*
G01X441999Y-894065D01*
G01X442768Y-890216D01*
G01X443153Y-887522D01*
G01X443538Y-883674D01*
G01X443730Y-881942D01*
G01X443730Y-880787D01*
G01X404476Y-880787D01*
G01X404476Y-889639D01*
G01X433339Y-889639D01*
G01X433339Y-890601D01*
G01X433147Y-892140D01*
G01X432377Y-895219D01*
G01X431800Y-896758D01*
G01X431030Y-898683D01*
G01X430261Y-900222D01*
G01X428721Y-902916D01*
G01X427952Y-904071D01*
G01X426412Y-905995D01*
G01X422564Y-909843D01*
G01X421602Y-910613D01*
G01X420639Y-911190D01*
G01X419293Y-912153D01*
G01X417753Y-913115D01*
G01X414674Y-914654D01*
G01X412943Y-915424D01*
G01X411018Y-916193D01*
G01X408902Y-916771D01*
G01X405053Y-917540D01*
G01X401974Y-917925D01*
G01X397741Y-918118D01*
G01X394662Y-917925D01*
G01X390429Y-917540D01*
G01X386580Y-916771D01*
G01X382539Y-915424D01*
G01X380423Y-914654D01*
G01X377344Y-913115D01*
G01X375612Y-912153D01*
G01X373880Y-910998D01*
G01X372341Y-910036D01*
G01X370417Y-908497D01*
G01X369455Y-907534D01*
G01X367530Y-905995D01*
G01X366376Y-904455D01*
G01X365029Y-903108D01*
G01X364067Y-901954D01*
G01X363105Y-900415D01*
G01X361950Y-898683D01*
G01X360796Y-896758D01*
G01X359833Y-894834D01*
G01X359064Y-893103D01*
G01X357909Y-890024D01*
G01X357332Y-887907D01*
G01X356562Y-884058D01*
G01X356370Y-881750D01*
G01X356177Y-880210D01*
G01X355985Y-877901D01*
G01X356177Y-875592D01*
G01X356562Y-871743D01*
G01X356947Y-870011D01*
G01X357524Y-868087D01*
G01X358679Y-864624D01*
G01X359449Y-862892D01*
G01X360218Y-861353D01*
G01X360988Y-860005D01*
G01X361950Y-858466D01*
G01X363105Y-856734D01*
G01X364452Y-854810D01*
G01X368685Y-850577D01*
G01X370994Y-848653D01*
G01X371956Y-847883D01*
G01X373111Y-847305D01*
G01X376189Y-845381D01*
G01X377729Y-844611D01*
G01X381193Y-843072D01*
G01X383309Y-842303D01*
G01X385618Y-841533D01*
G01X388312Y-840955D01*
G01X390429Y-840571D01*
G01X393893Y-840186D01*
G01X397549Y-839993D01*
G01X401205Y-840186D01*
G01X403899Y-840571D01*
G01X407747Y-841340D01*
G01X409671Y-841918D01*
G01X411788Y-842687D01*
G01X414867Y-843842D01*
G01X416599Y-844611D01*
G01X418138Y-845381D01*
G01X419485Y-846151D01*
G01X422564Y-848075D01*
G01X424296Y-849230D01*
G01X427374Y-851539D01*
G01X428721Y-852886D01*
G01X429876Y-853848D01*
G01X431030Y-854618D01*
G01X431415Y-854762D01*
G01X431800Y-854425D01*
G01X433724Y-852886D01*
G01X437573Y-849037D01*
G01X437765Y-848075D01*
G01X436611Y-847113D01*
G01X435264Y-845958D01*
G01X434302Y-844997D01*
G01X429683Y-841533D01*
G01X427952Y-840378D01*
G01X424873Y-838454D01*
G01X423526Y-837684D01*
G01X421986Y-836915D01*
G01X420062Y-836145D01*
G01X418523Y-835375D01*
G01X417176Y-834798D01*
G01X415636Y-834221D01*
G01X413905Y-833643D01*
G01X412365Y-833258D01*
G01X410441Y-832681D01*
G01X407362Y-832104D01*
G01X405053Y-831719D01*
G01X402359Y-831334D01*
G01X396009Y-831142D01*
G01X389659Y-831334D01*
G01X386965Y-831719D01*
G01X383117Y-832489D01*
G01X381193Y-833066D01*
G01X378691Y-833836D01*
G01X376574Y-834605D01*
G01X373111Y-836145D01*
G01X371571Y-836915D01*
G01X370032Y-837877D01*
G01X368107Y-839031D01*
G01X366376Y-840186D01*
G01X365029Y-841148D01*
G01X363105Y-842687D01*
G01X358294Y-847498D01*
G01X357139Y-849037D01*
G01X355600Y-850961D01*
G01X354253Y-852886D01*
G01X353099Y-854810D01*
G01X350597Y-859813D01*
G01X349827Y-861545D01*
G01X348673Y-865008D01*
G01X348096Y-867125D01*
G01X347711Y-869050D01*
G01X347326Y-870589D01*
G01X346941Y-873283D01*
G01X346749Y-876554D01*
G01X346556Y-878671D01*
G01X325005Y-878671D01*
G01X327506Y-873668D01*
G01X328276Y-871936D01*
G01X329046Y-870011D01*
G01X329815Y-867703D01*
G01X330393Y-865008D01*
G01X330777Y-862892D01*
G01X331162Y-859428D01*
G01X331162Y-857504D01*
G01X330970Y-855195D01*
G01X330777Y-853655D01*
G01X330393Y-851924D01*
G01X329815Y-850000D01*
G01X329238Y-848460D01*
G01X328661Y-847113D01*
G01X327891Y-845574D01*
G01X326929Y-843842D01*
G01X325774Y-842110D01*
G01X324620Y-840763D01*
G01X321349Y-837492D01*
G01X320194Y-836530D01*
G01X318655Y-835568D01*
G01X316923Y-834605D01*
G01X313844Y-833066D01*
G01X311727Y-832297D01*
G01X309226Y-831719D01*
G01X306917Y-831334D01*
G01X302683Y-831142D01*
G01X298835Y-831334D01*
G01X296911Y-831719D01*
G01X294794Y-832297D01*
G01X293255Y-832874D01*
G01X290561Y-834028D01*
G01X289021Y-834798D01*
G01X287289Y-835953D01*
G01X285365Y-837300D01*
G01X281517Y-841148D01*
G01X280555Y-842303D01*
G01X279593Y-843842D01*
G01X278630Y-845574D01*
G01X277861Y-847113D01*
G01X277091Y-848845D01*
G01X276321Y-851154D01*
G01X275744Y-853848D01*
G01X275359Y-855965D01*
G01X275167Y-859813D01*
G01X235637Y-859813D01*
G01X235143Y-858658D01*
G01X234373Y-857119D01*
G01X232833Y-853655D01*
G01X231294Y-850577D01*
G01X230524Y-848653D01*
G01X228985Y-845574D01*
G01X227446Y-842110D01*
G01X225906Y-839031D01*
G01X225136Y-837107D01*
G01X224367Y-835568D01*
G01X223597Y-834221D01*
G01X223020Y-833643D01*
G01X222057Y-833451D01*
G01X221144Y-833643D01*
G01X220711Y-834221D01*
G01X220133Y-835568D01*
G01X218594Y-839031D01*
G01X216285Y-843650D01*
G01X215515Y-845574D01*
G01X213206Y-850192D01*
G01X212052Y-852886D01*
G01X209743Y-857504D01*
G01X208973Y-859428D01*
G01X206664Y-864047D01*
G01X205124Y-867510D01*
G01X203585Y-870589D01*
G01X202046Y-874053D01*
G01X199736Y-878671D01*
G01X198967Y-880595D01*
G01X196657Y-885213D01*
G01X195503Y-887907D01*
G01X193194Y-892525D01*
G01X192424Y-894450D01*
G01X190115Y-899068D01*
G01X188961Y-901761D01*
G01X186652Y-906380D01*
G01X185882Y-908304D01*
G01X183573Y-912922D01*
G01X182033Y-916386D01*
G01X180494Y-919465D01*
G01X178955Y-922928D01*
G01X178955Y-922928D01*
G01X178377Y-923890D01*
G01X175106Y-923890D01*
G01X175106Y-801509D01*
G01X643467Y-801509D01*
G01X643467Y-952754D01*
G37*
G36*
G01X302876Y-878093D02*
G01X299605Y-877901D01*
G01X298643Y-877708D01*
G01X297103Y-877324D01*
G01X295564Y-876747D01*
G01X294217Y-876169D01*
G01X292870Y-875400D01*
G01X291715Y-874437D01*
G01X289791Y-872898D01*
G01X287482Y-870011D01*
G01X286520Y-868665D01*
G01X285557Y-866740D01*
G01X284788Y-864431D01*
G01X284211Y-861353D01*
G01X284018Y-857889D01*
G01X284211Y-855580D01*
G01X284596Y-853848D01*
G01X285173Y-851924D01*
G01X285943Y-850192D01*
G01X286712Y-848845D01*
G01X287482Y-847883D01*
G01X288636Y-846343D01*
G01X289983Y-844997D01*
G01X293062Y-842687D01*
G01X294602Y-841918D01*
G01X296333Y-841148D01*
G01X298257Y-840571D01*
G01X299989Y-840186D01*
G01X303646Y-839993D01*
G01X307302Y-840186D01*
G01X309033Y-840763D01*
G01X311150Y-841533D01*
G01X312689Y-842303D01*
G01X313844Y-843072D01*
G01X315383Y-844227D01*
G01X317693Y-846536D01*
G01X318655Y-847690D01*
G01X319424Y-849037D01*
G01X320386Y-850577D01*
G01X321156Y-852501D01*
G01X321733Y-854233D01*
G01X322118Y-856542D01*
G01X322311Y-858658D01*
G01X322311Y-860968D01*
G01X321926Y-863854D01*
G01X321349Y-865778D01*
G01X320579Y-867510D01*
G01X319809Y-869050D01*
G01X319039Y-870204D01*
G01X318077Y-871166D01*
G01X317307Y-872128D01*
G01X316346Y-873090D01*
G01X315191Y-874053D01*
G01X313844Y-875015D01*
G01X312112Y-875977D01*
G01X310188Y-876939D01*
G01X308071Y-877516D01*
G01X306532Y-877901D01*
G01X302876Y-878093D01*
G37*
G36*
G01X578812Y-915808D02*
G01X568614Y-915616D01*
G01X568421Y-878863D01*
G01X568421Y-842303D01*
G01X577850Y-842303D01*
G01X587856Y-842495D01*
G01X592859Y-842880D01*
G01X596323Y-843265D01*
G01X600556Y-844034D01*
G01X602480Y-844611D01*
G01X604982Y-845381D01*
G01X606906Y-846151D01*
G01X608638Y-846921D01*
G01X610370Y-847883D01*
G01X612102Y-849037D01*
G01X614026Y-850384D01*
G01X615565Y-851539D01*
G01X617489Y-853463D01*
G01X619029Y-855387D01*
G01X619991Y-856542D01*
G01X620953Y-858081D01*
G01X622107Y-859813D01*
G01X623070Y-861737D01*
G01X623839Y-863469D01*
G01X624609Y-865393D01*
G01X625379Y-867703D01*
G01X625956Y-870204D01*
G01X626341Y-872128D01*
G01X626726Y-874437D01*
G01X626918Y-877901D01*
G01X627111Y-880210D01*
G01X627111Y-881750D01*
G01X626918Y-884828D01*
G01X626726Y-887522D01*
G01X625956Y-891371D01*
G01X624609Y-895411D01*
G01X623839Y-897143D01*
G01X623070Y-898683D01*
G01X622300Y-900030D01*
G01X620761Y-902339D01*
G01X618452Y-905225D01*
G01X617489Y-906187D01*
G01X614603Y-908497D01*
G01X613256Y-909458D01*
G01X610177Y-911383D01*
G01X608446Y-912153D01*
G01X607099Y-912730D01*
G01X605559Y-913307D01*
G01X602480Y-914077D01*
G01X600556Y-914461D01*
G01X598247Y-914847D01*
G01X596130Y-915039D01*
G01X594783Y-915231D01*
G01X589396Y-915616D01*
G01X578812Y-915808D01*
G37*
G36*
G01X409286Y-1575308D02*
G01X98714Y-1575308D01*
G01X98714Y-1546829D01*
G01X102947Y-1546829D01*
G01X108335Y-1546829D01*
G01X112424Y-1546685D01*
G01X113915Y-1546252D01*
G01X114492Y-1545097D01*
G01X115454Y-1543558D01*
G01X116609Y-1541634D01*
G01X120457Y-1535476D01*
G01X121612Y-1533552D01*
G01X123536Y-1530473D01*
G01X124691Y-1528549D01*
G01X126615Y-1525470D01*
G01X127770Y-1523546D01*
G01X131618Y-1517388D01*
G01X132773Y-1515464D01*
G01X134697Y-1512385D01*
G01X135851Y-1510461D01*
G01X137006Y-1509114D01*
G01X137487Y-1508970D01*
G01X137776Y-1509307D01*
G01X138545Y-1510654D01*
G01X139507Y-1512193D01*
G01X140277Y-1513540D01*
G01X143164Y-1518158D01*
G01X144318Y-1520082D01*
G01X146242Y-1523161D01*
G01X147397Y-1525085D01*
G01X149321Y-1528164D01*
G01X150476Y-1530088D01*
G01X152400Y-1533167D01*
G01X153554Y-1535091D01*
G01X155479Y-1538170D01*
G01X156633Y-1540094D01*
G01X158557Y-1543173D01*
G01X159712Y-1545097D01*
G01X160867Y-1546444D01*
G01X166254Y-1546829D01*
G01X171065Y-1546829D01*
G01X170873Y-1546059D01*
G01X170295Y-1544905D01*
G01X169526Y-1543751D01*
G01X167601Y-1540672D01*
G01X166832Y-1539325D01*
G01X163945Y-1534707D01*
G01X162791Y-1532782D01*
G01X160867Y-1529704D01*
G01X159712Y-1527779D01*
G01X157788Y-1524701D01*
G01X156633Y-1522776D01*
G01X154709Y-1519697D01*
G01X153554Y-1517773D01*
G01X151630Y-1514694D01*
G01X150476Y-1512770D01*
G01X148551Y-1509691D01*
G01X147397Y-1507767D01*
G01X145473Y-1504688D01*
G01X144318Y-1502764D01*
G01X143356Y-1501225D01*
G01X185689Y-1501225D01*
G01X185689Y-1546829D01*
G01X194926Y-1546829D01*
G01X207626Y-1546829D01*
G01X218017Y-1546829D01*
G01X218209Y-1545867D01*
G01X218786Y-1544328D01*
G01X221095Y-1539709D01*
G01X222635Y-1536246D01*
G01X224944Y-1531628D01*
G01X226098Y-1528934D01*
G01X227638Y-1525855D01*
G01X229177Y-1522391D01*
G01X231486Y-1517773D01*
G01X231871Y-1516811D01*
G01X271126Y-1516811D01*
G01X271511Y-1517773D01*
G01X274589Y-1523931D01*
G01X276129Y-1527394D01*
G01X279207Y-1533552D01*
G01X279977Y-1535476D01*
G01X283056Y-1541634D01*
G01X284595Y-1545097D01*
G01X285557Y-1546444D01*
G01X290753Y-1546829D01*
G01X295371Y-1546829D01*
G01X294986Y-1545867D01*
G01X293447Y-1542788D01*
G01X291907Y-1539325D01*
G01X290368Y-1536246D01*
G01X289598Y-1534322D01*
G01X288059Y-1531243D01*
G01X286520Y-1527779D01*
G01X284980Y-1524701D01*
G01X284211Y-1522776D01*
G01X282671Y-1519697D01*
G01X281132Y-1516234D01*
G01X279592Y-1513155D01*
G01X278823Y-1511231D01*
G01X277283Y-1508152D01*
G01X275744Y-1504688D01*
G01X274493Y-1502187D01*
G01X305762Y-1502187D01*
G01X305954Y-1507767D01*
G01X306339Y-1510846D01*
G01X307109Y-1514309D01*
G01X308456Y-1518351D01*
G01X309226Y-1520467D01*
G01X310765Y-1523546D01*
G01X311727Y-1525278D01*
G01X312689Y-1526817D01*
G01X313844Y-1528549D01*
G01X316153Y-1531628D01*
G01X317500Y-1532975D01*
G01X318654Y-1534322D01*
G01X320194Y-1535861D01*
G01X321541Y-1537015D01*
G01X322503Y-1537978D01*
G01X324427Y-1539517D01*
G01X325774Y-1540479D01*
G01X327506Y-1541634D01*
G01X330585Y-1543558D01*
G01X332509Y-1544520D01*
G01X334433Y-1545290D01*
G01X336165Y-1546059D01*
G01X339629Y-1547214D01*
G01X341745Y-1547791D01*
G01X343670Y-1548176D01*
G01X345979Y-1548561D01*
G01X345979Y-1548561D01*
G01X347903Y-1548946D01*
G01X353868Y-1549138D01*
G01X360218Y-1548946D01*
G01X362912Y-1548561D01*
G01X366376Y-1547791D01*
G01X370417Y-1546444D01*
G01X372533Y-1545675D01*
G01X374073Y-1544905D01*
G01X375420Y-1544328D01*
G01X376574Y-1543751D01*
G01X377729Y-1542981D01*
G01X379076Y-1542211D01*
G01X380615Y-1541249D01*
G01X381962Y-1540287D01*
G01X384848Y-1537978D01*
G01X389659Y-1533167D01*
G01X391198Y-1531243D01*
G01X393507Y-1528164D01*
G01X394277Y-1527009D01*
G01X395239Y-1525470D01*
G01X397741Y-1520467D01*
G01X398511Y-1518543D01*
G01X399280Y-1516426D01*
G01X399857Y-1514117D01*
G01X400242Y-1512385D01*
G01X400627Y-1510846D01*
G01X401012Y-1508537D01*
G01X401397Y-1505843D01*
G01X401589Y-1500262D01*
G01X401397Y-1495452D01*
G01X401012Y-1492758D01*
G01X400242Y-1488909D01*
G01X399665Y-1486985D01*
G01X398895Y-1484484D01*
G01X398126Y-1482559D01*
G01X397356Y-1480828D01*
G01X396586Y-1479288D01*
G01X395047Y-1476594D01*
G01X394085Y-1475055D01*
G01X392738Y-1473131D01*
G01X391583Y-1471591D01*
G01X390621Y-1470629D01*
G01X388697Y-1468320D01*
G01X387735Y-1467358D01*
G01X383694Y-1463894D01*
G01X382347Y-1462932D01*
G01X381385Y-1462162D01*
G01X380038Y-1461201D01*
G01X378306Y-1460238D01*
G01X375612Y-1458699D01*
G01X372148Y-1457159D01*
G01X370032Y-1456390D01*
G01X367723Y-1455620D01*
G01X365414Y-1455043D01*
G01X363682Y-1454658D01*
G01X361373Y-1454273D01*
G01X358679Y-1453888D01*
G01X352714Y-1453696D01*
G01X347133Y-1453888D01*
G01X344439Y-1454273D01*
G01X340976Y-1455043D01*
G01X336935Y-1456390D01*
G01X334818Y-1457159D01*
G01X333279Y-1457929D01*
G01X331932Y-1458507D01*
G01X330777Y-1459084D01*
G01X328083Y-1460623D01*
G01X326736Y-1461585D01*
G01X324812Y-1462932D01*
G01X323273Y-1464087D01*
G01X321348Y-1465626D01*
G01X319424Y-1467551D01*
G01X317115Y-1470244D01*
G01X316153Y-1471399D01*
G01X315383Y-1472554D01*
G01X314614Y-1473515D01*
G01X313651Y-1474862D01*
G01X312689Y-1476402D01*
G01X311920Y-1477749D01*
G01X310380Y-1480828D01*
G01X309611Y-1482559D01*
G01X308071Y-1486408D01*
G01X307494Y-1488525D01*
G01X307109Y-1490064D01*
G01X306339Y-1493912D01*
G01X305954Y-1496607D01*
G01X305762Y-1502187D01*
G01X274493Y-1502187D01*
G01X274204Y-1501609D01*
G01X273435Y-1499685D01*
G01X271895Y-1496607D01*
G01X270356Y-1493143D01*
G01X268817Y-1490064D01*
G01X268047Y-1488140D01*
G01X266507Y-1485061D01*
G01X265738Y-1483137D01*
G01X264198Y-1480058D01*
G01X262659Y-1476594D01*
G01X261120Y-1473515D01*
G01X260350Y-1471591D01*
G01X258811Y-1468512D01*
G01X257271Y-1465049D01*
G01X255732Y-1461970D01*
G01X254962Y-1460046D01*
G01X253423Y-1456967D01*
G01X252845Y-1456245D01*
G01X251883Y-1456005D01*
G01X250921Y-1456245D01*
G01X250344Y-1456967D01*
G01X249574Y-1458507D01*
G01X248420Y-1461201D01*
G01X246111Y-1465819D01*
G01X245341Y-1467743D01*
G01X243032Y-1472361D01*
G01X241877Y-1475055D01*
G01X239568Y-1479673D01*
G01X238798Y-1481597D01*
G01X236489Y-1486215D01*
G01X235335Y-1488909D01*
G01X233026Y-1493528D01*
G01X232256Y-1495452D01*
G01X229947Y-1500070D01*
G01X228407Y-1503534D01*
G01X226868Y-1506612D01*
G01X225329Y-1510076D01*
G01X223020Y-1514694D01*
G01X222250Y-1516619D01*
G01X219941Y-1521237D01*
G01X218786Y-1523931D01*
G01X216477Y-1528549D01*
G01X215707Y-1530473D01*
G01X213398Y-1535091D01*
G01X212244Y-1537785D01*
G01X209935Y-1542404D01*
G01X209165Y-1544328D01*
G01X209165Y-1544328D01*
G01X208203Y-1546059D01*
G01X207626Y-1546829D01*
G01X194926Y-1546829D01*
G01X194926Y-1455620D01*
G01X185689Y-1455620D01*
G01X185689Y-1501225D01*
G01X185689Y-1501225D01*
G01X143356Y-1501225D01*
G01X142779Y-1500070D01*
G01X142971Y-1498915D01*
G01X145857Y-1494297D01*
G01X147012Y-1492373D01*
G01X150861Y-1486215D01*
G01X152015Y-1484291D01*
G01X153939Y-1481212D01*
G01X155094Y-1479288D01*
G01X158942Y-1473131D01*
G01X160097Y-1471207D01*
G01X162021Y-1468128D01*
G01X163176Y-1466204D01*
G01X165100Y-1463125D01*
G01X166254Y-1461201D01*
G01X169141Y-1456582D01*
G01X168130Y-1456149D01*
G01X164330Y-1456005D01*
G01X159135Y-1456005D01*
G01X158750Y-1456967D01*
G01X157980Y-1458314D01*
G01X157211Y-1459469D01*
G01X153362Y-1465626D01*
G01X152592Y-1466973D01*
G01X147782Y-1474670D01*
G01X146627Y-1476594D01*
G01X142779Y-1482752D01*
G01X141624Y-1484676D01*
G01X139700Y-1487755D01*
G01X138545Y-1489679D01*
G01X137391Y-1490834D01*
G01X136910Y-1490834D01*
G01X136621Y-1490449D01*
G01X136044Y-1489294D01*
G01X133157Y-1484676D01*
G01X132003Y-1482752D01*
G01X130079Y-1479673D01*
G01X128924Y-1477749D01*
G01X127000Y-1474670D01*
G01X125845Y-1472746D01*
G01X123921Y-1469667D01*
G01X121612Y-1465819D01*
G01X119688Y-1462740D01*
G01X118533Y-1460815D01*
G01X116609Y-1457737D01*
G01X115647Y-1456390D01*
G01X110259Y-1456005D01*
G01X105256Y-1456005D01*
G01X105448Y-1456775D01*
G01X106026Y-1457929D01*
G01X106988Y-1459276D01*
G01X109297Y-1463125D01*
G01X111221Y-1466204D01*
G01X112376Y-1468128D01*
G01X114300Y-1471207D01*
G01X115454Y-1473131D01*
G01X117379Y-1476209D01*
G01X118533Y-1478134D01*
G01X120457Y-1481212D01*
G01X121612Y-1483137D01*
G01X123536Y-1486215D01*
G01X124691Y-1488140D01*
G01X126615Y-1491219D01*
G01X127770Y-1493143D01*
G01X129694Y-1496222D01*
G01X130848Y-1498146D01*
G01X131618Y-1499685D01*
G01X131426Y-1501032D01*
G01X130656Y-1502379D01*
G01X129694Y-1503919D01*
G01X128539Y-1505843D01*
G01X124691Y-1512001D01*
G01X123536Y-1513925D01*
G01X119688Y-1520082D01*
G01X118533Y-1522007D01*
G01X114685Y-1528164D01*
G01X113530Y-1530088D01*
G01X109682Y-1536246D01*
G01X108527Y-1538170D01*
G01X104679Y-1544328D01*
G01X104679Y-1544328D01*
G01X103524Y-1546059D01*
G01X102947Y-1546829D01*
G01X98714Y-1546829D01*
G01X98714Y-1424063D01*
G01X409286Y-1424063D01*
G01X409286Y-1575308D01*
G37*
G36*
G01X251306Y-1508344D02*
G01X236297Y-1508152D01*
G01X236489Y-1506997D01*
G01X238029Y-1503919D01*
G01X239568Y-1500455D01*
G01X241877Y-1495837D01*
G01X243032Y-1493143D01*
G01X245341Y-1488525D01*
G01X246111Y-1486601D01*
G01X248420Y-1481982D01*
G01X249959Y-1478519D01*
G01X250729Y-1476979D01*
G01X251691Y-1475825D01*
G01X252172Y-1475921D01*
G01X252461Y-1476594D01*
G01X253038Y-1478134D01*
G01X255347Y-1482752D01*
G01X256886Y-1486215D01*
G01X258426Y-1489294D01*
G01X259965Y-1492758D01*
G01X261504Y-1495837D01*
G01X263044Y-1499301D01*
G01X264583Y-1502379D01*
G01X266123Y-1505843D01*
G01X266892Y-1507382D01*
G01X267037Y-1507863D01*
G01X266700Y-1508152D01*
G01X251306Y-1508344D01*
G37*
G36*
G01X353291Y-1540287D02*
G01X348288Y-1540094D01*
G01X346748Y-1539902D01*
G01X344824Y-1539709D01*
G01X342900Y-1539132D01*
G01X340398Y-1538362D01*
G01X338282Y-1537593D01*
G01X335203Y-1536054D01*
G01X333856Y-1535284D01*
G01X330970Y-1533359D01*
G01X329430Y-1532205D01*
G01X328468Y-1531243D01*
G01X327121Y-1530088D01*
G01X325774Y-1528741D01*
G01X324812Y-1527587D01*
G01X323850Y-1526625D01*
G01X322695Y-1525085D01*
G01X321348Y-1523161D01*
G01X320194Y-1521429D01*
G01X319232Y-1519697D01*
G01X318462Y-1518158D01*
G01X317885Y-1516811D01*
G01X317307Y-1515272D01*
G01X316730Y-1513347D01*
G01X316345Y-1511615D01*
G01X315961Y-1510076D01*
G01X315576Y-1508152D01*
G01X315191Y-1505458D01*
G01X314998Y-1500840D01*
G01X315191Y-1497376D01*
G01X315576Y-1493912D01*
G01X315961Y-1491988D01*
G01X316538Y-1489872D01*
G01X317692Y-1486408D01*
G01X318462Y-1484676D01*
G01X319232Y-1483137D01*
G01X320001Y-1481790D01*
G01X320964Y-1480251D01*
G01X322118Y-1478519D01*
G01X323080Y-1477172D01*
G01X323850Y-1476209D01*
G01X327698Y-1472361D01*
G01X329045Y-1471207D01*
G01X331739Y-1469282D01*
G01X333471Y-1468128D01*
G01X335203Y-1467165D01*
G01X338282Y-1465626D01*
G01X340206Y-1464857D01*
G01X342323Y-1464087D01*
G01X344824Y-1463509D01*
G01X348673Y-1462740D01*
G01X351559Y-1462547D01*
G01X353483Y-1462355D01*
G01X354445Y-1462355D01*
G01X359448Y-1462740D01*
G01X363297Y-1463509D01*
G01X367338Y-1464857D01*
G01X369454Y-1465626D01*
G01X370994Y-1466396D01*
G01X372341Y-1467165D01*
G01X375420Y-1469090D01*
G01X377151Y-1470244D01*
G01X379076Y-1471784D01*
G01X383309Y-1476017D01*
G01X384079Y-1476979D01*
G01X384656Y-1477941D01*
G01X385618Y-1479288D01*
G01X386773Y-1481020D01*
G01X387735Y-1482752D01*
G01X389274Y-1485831D01*
G01X390044Y-1487947D01*
G01X390814Y-1490257D01*
G01X391391Y-1493143D01*
G01X391776Y-1495452D01*
G01X392161Y-1499301D01*
G01X392353Y-1501802D01*
G01X392161Y-1504304D01*
G01X391776Y-1508537D01*
G01X391391Y-1510461D01*
G01X390814Y-1512578D01*
G01X389659Y-1516426D01*
G01X388889Y-1518158D01*
G01X387350Y-1521237D01*
G01X386580Y-1522584D01*
G01X385618Y-1523931D01*
G01X384271Y-1525855D01*
G01X382924Y-1527202D01*
G01X381385Y-1529126D01*
G01X380423Y-1530088D01*
G01X378498Y-1531628D01*
G01X377344Y-1532590D01*
G01X375804Y-1533552D01*
G01X374073Y-1534707D01*
G01X372533Y-1535669D01*
G01X370994Y-1536438D01*
G01X369262Y-1537208D01*
G01X367338Y-1537978D01*
G01X365029Y-1538747D01*
G01X362912Y-1539325D01*
G01X360603Y-1539709D01*
G01X358679Y-1540094D01*
G01X353291Y-1540287D01*
G37*
G36*
G01X-333440Y-1575308D02*
G01X-726755Y-1575308D01*
G01X-726755Y-1502764D01*
G01X-719828Y-1502764D01*
G01X-719636Y-1504688D01*
G01X-719251Y-1510076D01*
G01X-718866Y-1511615D01*
G01X-718481Y-1513540D01*
G01X-717904Y-1515464D01*
G01X-717327Y-1517196D01*
G01X-716172Y-1520275D01*
G01X-715595Y-1521622D01*
G01X-714825Y-1523161D01*
G01X-714055Y-1524508D01*
G01X-713286Y-1525662D01*
G01X-712516Y-1527009D01*
G01X-711554Y-1528549D01*
G01X-710592Y-1529896D01*
G01X-709822Y-1530858D01*
G01X-708668Y-1532397D01*
G01X-704434Y-1536631D01*
G01X-700971Y-1539517D01*
G01X-699816Y-1540287D01*
G01X-698469Y-1541249D01*
G01X-695390Y-1543173D01*
G01X-693659Y-1544135D01*
G01X-690195Y-1545675D01*
G01X-688271Y-1546444D01*
G01X-685962Y-1547214D01*
G01X-683652Y-1547791D01*
G01X-681921Y-1548176D01*
G01X-679996Y-1548561D01*
G01X-673839Y-1549331D01*
G01X-670760Y-1549523D01*
G01X-668451Y-1549331D01*
G01X-664987Y-1548946D01*
G01X-662678Y-1548561D01*
G01X-659792Y-1547984D01*
G01X-657675Y-1547407D01*
G01X-654596Y-1546252D01*
G01X-652865Y-1545675D01*
G01X-651133Y-1544905D01*
G01X-648054Y-1543365D01*
G01X-646515Y-1542788D01*
G01X-646034Y-1542788D01*
G01X-645745Y-1543173D01*
G01X-642666Y-1547022D01*
G01X-642089Y-1547984D01*
G01X-640934Y-1549331D01*
G01X-639780Y-1550870D01*
G01X-638240Y-1552794D01*
G01X-638240Y-1552794D01*
G01X-637278Y-1553949D01*
G01X-635594Y-1554382D01*
G01X-631698Y-1554526D01*
G01X-626502Y-1554141D01*
G01X-626695Y-1553179D01*
G01X-629004Y-1550101D01*
G01X-629966Y-1549138D01*
G01X-630736Y-1548176D01*
G01X-631698Y-1546637D01*
G01X-632852Y-1545290D01*
G01X-633622Y-1544328D01*
G01X-634777Y-1542788D01*
G01X-635931Y-1541441D01*
G01X-636701Y-1540479D01*
G01X-637855Y-1538940D01*
G01X-638818Y-1537208D01*
G01X-638818Y-1536534D01*
G01X-638433Y-1536054D01*
G01X-635546Y-1533167D01*
G01X-633237Y-1530088D01*
G01X-632468Y-1529126D01*
G01X-631505Y-1527779D01*
G01X-630351Y-1526047D01*
G01X-629389Y-1524315D01*
G01X-627849Y-1521237D01*
G01X-627080Y-1519505D01*
G01X-626310Y-1517581D01*
G01X-625733Y-1515849D01*
G01X-625348Y-1513925D01*
G01X-624771Y-1512001D01*
G01X-624386Y-1509884D01*
G01X-624193Y-1507767D01*
G01X-623809Y-1506228D01*
G01X-623616Y-1500647D01*
G01X-623809Y-1495452D01*
G01X-624193Y-1493528D01*
G01X-624578Y-1491026D01*
G01X-624963Y-1489294D01*
G01X-625540Y-1487370D01*
G01X-626310Y-1484869D01*
G01X-627080Y-1482944D01*
G01X-628234Y-1480251D01*
G01X-629004Y-1478711D01*
G01X-629966Y-1476979D01*
G01X-632275Y-1473515D01*
G01X-633430Y-1472169D01*
G01X-634969Y-1470244D01*
G01X-635931Y-1469282D01*
G01X-637086Y-1467743D01*
G01X-638818Y-1466204D01*
G01X-641512Y-1463894D01*
G01X-642859Y-1462932D01*
G01X-643821Y-1462162D01*
G01X-645168Y-1461201D01*
G01X-646707Y-1460238D01*
G01X-648054Y-1459469D01*
G01X-652672Y-1457159D01*
G01X-654789Y-1456390D01*
G01X-657098Y-1455620D01*
G01X-610146Y-1455620D01*
G01X-610146Y-1456582D01*
G01X-609762Y-1458314D01*
G01X-608607Y-1462162D01*
G01X-608222Y-1463702D01*
G01X-606683Y-1469090D01*
G01X-606298Y-1470629D01*
G01X-605143Y-1474478D01*
G01X-604759Y-1476017D01*
G01X-604374Y-1477364D01*
G01X-603796Y-1479096D01*
G01X-603412Y-1480828D01*
G01X-602834Y-1482752D01*
G01X-600525Y-1490834D01*
G01X-599563Y-1494682D01*
G01X-598986Y-1496222D01*
G01X-598409Y-1498146D01*
G01X-597639Y-1501225D01*
G01X-597062Y-1502957D01*
G01X-596677Y-1504496D01*
G01X-595137Y-1509884D01*
G01X-594752Y-1511423D01*
G01X-593598Y-1515272D01*
G01X-593213Y-1516811D01*
G01X-592828Y-1518158D01*
G01X-592251Y-1519890D01*
G01X-591866Y-1521622D01*
G01X-591289Y-1523546D01*
G01X-588980Y-1531628D01*
G01X-588210Y-1534129D01*
G01X-587633Y-1536246D01*
G01X-587248Y-1537785D01*
G01X-586478Y-1540479D01*
G01X-586093Y-1542019D01*
G01X-585516Y-1543751D01*
G01X-584939Y-1545675D01*
G01X-584939Y-1545675D01*
G01X-584362Y-1547022D01*
G01X-583207Y-1546829D01*
G01X-582245Y-1545675D01*
G01X-581668Y-1544135D01*
G01X-580898Y-1542211D01*
G01X-580128Y-1540094D01*
G01X-577049Y-1532397D01*
G01X-576280Y-1530665D01*
G01X-574740Y-1526817D01*
G01X-573586Y-1523738D01*
G01X-572046Y-1519890D01*
G01X-571277Y-1518158D01*
G01X-568968Y-1512385D01*
G01X-568198Y-1510269D01*
G01X-566659Y-1506420D01*
G01X-565889Y-1504688D01*
G01X-565312Y-1503341D01*
G01X-564734Y-1501802D01*
G01X-563195Y-1497954D01*
G01X-562040Y-1494875D01*
G01X-561271Y-1492951D01*
G01X-560501Y-1491219D01*
G01X-559924Y-1489872D01*
G01X-559346Y-1488332D01*
G01X-557037Y-1482559D01*
G01X-556268Y-1480443D01*
G01X-555498Y-1479288D01*
G01X-554728Y-1479865D01*
G01X-553189Y-1483329D01*
G01X-552419Y-1485254D01*
G01X-551842Y-1486985D01*
G01X-551265Y-1488525D01*
G01X-550495Y-1490257D01*
G01X-549725Y-1492181D01*
G01X-549148Y-1493912D01*
G01X-548571Y-1495259D01*
G01X-544722Y-1504881D01*
G01X-543952Y-1506997D01*
G01X-542413Y-1510846D01*
G01X-541643Y-1512962D01*
G01X-538565Y-1520659D01*
G01X-537795Y-1522776D01*
G01X-536255Y-1526625D01*
G01X-535486Y-1528741D01*
G01X-533177Y-1534514D01*
G01X-532407Y-1536246D01*
G01X-531830Y-1537978D01*
G01X-531252Y-1539517D01*
G01X-530483Y-1541441D01*
G01X-529713Y-1543173D01*
G01X-529136Y-1544520D01*
G01X-528366Y-1546059D01*
G01X-527019Y-1546829D01*
G01X-526394Y-1546540D01*
G01X-526057Y-1545675D01*
G01X-525480Y-1543751D01*
G01X-524325Y-1539517D01*
G01X-523748Y-1537785D01*
G01X-522978Y-1534707D01*
G01X-522401Y-1532975D01*
G01X-521824Y-1531051D01*
G01X-521439Y-1529319D01*
G01X-520862Y-1527587D01*
G01X-520284Y-1525470D01*
G01X-519899Y-1523931D01*
G01X-518745Y-1520082D01*
G01X-516436Y-1512001D01*
G01X-515859Y-1510076D01*
G01X-515089Y-1507382D01*
G01X-514512Y-1505458D01*
G01X-514127Y-1503919D01*
G01X-513549Y-1502187D01*
G01X-513261Y-1501225D01*
G01X-484686Y-1501225D01*
G01X-484686Y-1546829D01*
G01X-475449Y-1546829D01*
G01X-475449Y-1501225D01*
G01X-455822Y-1501225D01*
G01X-455822Y-1546829D01*
G01X-446971Y-1546829D01*
G01X-446971Y-1501802D01*
G01X-430037Y-1501802D01*
G01X-429845Y-1506612D01*
G01X-429460Y-1509691D01*
G01X-428690Y-1513925D01*
G01X-428113Y-1515657D01*
G01X-427343Y-1518158D01*
G01X-426574Y-1520082D01*
G01X-425419Y-1522776D01*
G01X-423880Y-1525855D01*
G01X-422918Y-1527394D01*
G01X-421763Y-1529126D01*
G01X-420801Y-1530473D01*
G01X-419262Y-1532397D01*
G01X-418299Y-1533359D01*
G01X-416760Y-1535284D01*
G01X-415798Y-1536246D01*
G01X-413104Y-1538555D01*
G01X-411949Y-1539517D01*
G01X-410795Y-1540287D01*
G01X-409448Y-1541249D01*
G01X-406369Y-1543173D01*
G01X-402905Y-1544905D01*
G01X-398287Y-1546637D01*
G01X-396748Y-1547022D01*
G01X-394824Y-1547599D01*
G01X-392130Y-1548176D01*
G01X-389436Y-1548561D01*
G01X-389436Y-1548561D01*
G01X-387704Y-1548946D01*
G01X-380969Y-1549138D01*
G01X-374042Y-1548946D01*
G01X-371348Y-1548561D01*
G01X-369231Y-1548176D01*
G01X-366922Y-1547599D01*
G01X-364805Y-1547022D01*
G01X-362881Y-1546444D01*
G01X-359802Y-1545290D01*
G01X-357109Y-1544135D01*
G01X-355569Y-1543173D01*
G01X-353645Y-1542211D01*
G01X-352298Y-1541441D01*
G01X-351336Y-1540672D01*
G01X-348642Y-1538747D01*
G01X-347680Y-1537785D01*
G01X-345371Y-1535861D01*
G01X-344409Y-1534899D01*
G01X-342099Y-1532205D01*
G01X-341522Y-1531243D01*
G01X-342292Y-1530281D01*
G01X-343446Y-1529319D01*
G01X-344409Y-1528549D01*
G01X-345371Y-1527972D01*
G01X-346333Y-1527202D01*
G01X-347487Y-1526240D01*
G01X-348017Y-1525951D01*
G01X-348449Y-1526240D01*
G01X-352298Y-1530088D01*
G01X-354992Y-1532397D01*
G01X-355954Y-1533167D01*
G01X-357301Y-1533937D01*
G01X-359033Y-1535091D01*
G01X-362496Y-1536823D01*
G01X-364228Y-1537593D01*
G01X-366152Y-1538362D01*
G01X-368077Y-1538940D01*
G01X-369809Y-1539325D01*
G01X-371348Y-1539709D01*
G01X-373272Y-1540094D01*
G01X-375966Y-1540479D01*
G01X-381546Y-1540672D01*
G01X-385972Y-1540479D01*
G01X-388666Y-1540094D01*
G01X-390590Y-1539709D01*
G01X-392707Y-1539132D01*
G01X-394631Y-1538555D01*
G01X-396363Y-1537978D01*
G01X-399827Y-1536438D01*
G01X-401366Y-1535476D01*
G01X-403290Y-1534322D01*
G01X-405215Y-1532975D01*
G01X-406754Y-1531820D01*
G01X-411565Y-1527009D01*
G01X-412719Y-1525470D01*
G01X-414066Y-1523546D01*
G01X-415221Y-1521814D01*
G01X-416183Y-1520082D01*
G01X-416952Y-1518543D01*
G01X-417722Y-1516811D01*
G01X-418492Y-1514502D01*
G01X-419262Y-1512001D01*
G01X-419839Y-1508922D01*
G01X-420224Y-1506228D01*
G01X-420416Y-1501032D01*
G01X-420224Y-1496222D01*
G01X-419839Y-1493528D01*
G01X-419454Y-1491796D01*
G01X-418877Y-1489872D01*
G01X-417722Y-1486408D01*
G01X-416952Y-1484676D01*
G01X-415413Y-1481597D01*
G01X-414451Y-1480251D01*
G01X-413681Y-1479288D01*
G01X-412912Y-1477941D01*
G01X-411949Y-1476594D01*
G01X-408101Y-1472746D01*
G01X-405792Y-1470822D01*
G01X-404830Y-1470052D01*
G01X-403483Y-1469282D01*
G01X-401751Y-1468128D01*
G01X-396748Y-1465626D01*
G01X-394631Y-1464857D01*
G01X-392322Y-1464087D01*
G01X-389628Y-1463509D01*
G01X-387512Y-1463125D01*
G01X-384818Y-1462740D01*
G01X-380007Y-1462547D01*
G01X-375196Y-1462740D01*
G01X-370578Y-1463509D01*
G01X-368654Y-1464087D01*
G01X-366152Y-1464857D01*
G01X-364228Y-1465626D01*
G01X-362496Y-1466396D01*
G01X-360957Y-1467165D01*
G01X-359610Y-1467935D01*
G01X-358071Y-1468897D01*
G01X-356724Y-1469859D01*
G01X-355184Y-1471014D01*
G01X-353260Y-1472554D01*
G01X-350951Y-1474862D01*
G01X-349027Y-1477172D01*
G01X-348257Y-1477749D01*
G01X-347102Y-1477364D01*
G01X-345755Y-1476402D01*
G01X-342869Y-1474093D01*
G01X-341715Y-1473131D01*
G01X-341474Y-1472457D01*
G01X-341907Y-1471591D01*
G01X-343446Y-1469667D01*
G01X-347680Y-1465434D01*
G01X-348834Y-1464472D01*
G01X-349989Y-1463702D01*
G01X-350951Y-1462932D01*
G01X-352298Y-1461970D01*
G01X-354030Y-1460815D01*
G01X-355954Y-1459854D01*
G01X-357301Y-1459084D01*
G01X-358840Y-1458314D01*
G01X-360572Y-1457544D01*
G01X-361919Y-1456967D01*
G01X-363459Y-1456390D01*
G01X-365383Y-1455812D01*
G01X-367115Y-1455428D01*
G01X-368654Y-1455043D01*
G01X-370578Y-1454658D01*
G01X-375196Y-1453888D01*
G01X-381546Y-1453696D01*
G01X-387512Y-1453888D01*
G01X-390590Y-1454273D01*
G01X-394439Y-1455043D01*
G01X-400789Y-1457159D01*
G01X-402521Y-1457929D01*
G01X-405599Y-1459469D01*
G01X-407139Y-1460431D01*
G01X-409063Y-1461585D01*
G01X-411757Y-1463509D01*
G01X-413104Y-1464664D01*
G01X-414066Y-1465626D01*
G01X-415605Y-1466781D01*
G01X-417145Y-1468512D01*
G01X-418299Y-1469859D01*
G01X-419262Y-1470822D01*
G01X-421571Y-1473901D01*
G01X-422533Y-1475247D01*
G01X-423495Y-1476787D01*
G01X-424265Y-1478134D01*
G01X-425804Y-1481212D01*
G01X-426574Y-1482944D01*
G01X-427921Y-1486985D01*
G01X-428498Y-1488909D01*
G01X-429075Y-1491604D01*
G01X-429460Y-1493912D01*
G01X-429652Y-1495644D01*
G01X-429845Y-1496991D01*
G01X-430037Y-1501802D01*
G01X-446971Y-1501802D01*
G01X-446971Y-1455620D01*
G01X-455822Y-1455620D01*
G01X-455822Y-1501225D01*
G01X-455822Y-1501225D01*
G01X-475449Y-1501225D01*
G01X-475449Y-1455620D01*
G01X-484686Y-1455620D01*
G01X-484686Y-1501225D01*
G01X-484686Y-1501225D01*
G01X-513261Y-1501225D01*
G01X-512972Y-1500262D01*
G01X-512587Y-1498531D01*
G01X-512010Y-1496799D01*
G01X-511433Y-1494682D01*
G01X-511048Y-1493143D01*
G01X-510471Y-1491219D01*
G01X-509701Y-1488525D01*
G01X-509124Y-1486601D01*
G01X-508354Y-1483907D01*
G01X-507777Y-1481982D01*
G01X-506237Y-1476594D01*
G01X-505660Y-1474670D01*
G01X-505275Y-1473131D01*
G01X-504698Y-1471399D01*
G01X-504121Y-1469475D01*
G01X-503736Y-1467743D01*
G01X-502966Y-1465049D01*
G01X-502389Y-1463317D01*
G01X-501812Y-1461008D01*
G01X-501234Y-1459084D01*
G01X-500657Y-1457352D01*
G01X-500465Y-1456005D01*
G01X-504890Y-1455620D01*
G01X-509316Y-1455620D01*
G01X-509701Y-1456582D01*
G01X-510278Y-1458507D01*
G01X-510663Y-1460046D01*
G01X-511240Y-1461585D01*
G01X-511818Y-1463702D01*
G01X-512202Y-1465434D01*
G01X-512780Y-1467165D01*
G01X-513549Y-1469667D01*
G01X-515859Y-1477749D01*
G01X-516436Y-1479865D01*
G01X-517590Y-1483907D01*
G01X-518168Y-1485638D01*
G01X-518745Y-1487947D01*
G01X-519322Y-1489679D01*
G01X-520862Y-1495067D01*
G01X-521439Y-1496991D01*
G01X-522016Y-1499108D01*
G01X-522593Y-1501032D01*
G01X-522978Y-1502764D01*
G01X-523555Y-1504496D01*
G01X-524133Y-1506612D01*
G01X-524710Y-1508344D01*
G01X-525095Y-1509884D01*
G01X-525480Y-1511231D01*
G01X-526057Y-1512962D01*
G01X-526442Y-1514694D01*
G01X-527019Y-1516426D01*
G01X-527596Y-1518735D01*
G01X-527933Y-1519601D01*
G01X-528559Y-1519890D01*
G01X-529184Y-1519649D01*
G01X-529521Y-1518928D01*
G01X-530098Y-1517196D01*
G01X-530868Y-1515272D01*
G01X-531637Y-1513155D01*
G01X-533177Y-1509307D01*
G01X-533946Y-1507190D01*
G01X-537025Y-1499493D01*
G01X-537795Y-1497376D01*
G01X-538565Y-1495452D01*
G01X-539334Y-1493720D01*
G01X-540104Y-1491796D01*
G01X-540681Y-1490064D01*
G01X-541259Y-1488717D01*
G01X-541836Y-1487178D01*
G01X-542990Y-1484484D01*
G01X-543568Y-1482944D01*
G01X-545107Y-1479096D01*
G01X-546262Y-1476017D01*
G01X-548571Y-1470244D01*
G01X-549340Y-1468128D01*
G01X-550880Y-1464279D01*
G01X-551649Y-1462162D01*
G01X-553189Y-1458314D01*
G01X-554343Y-1456390D01*
G01X-555065Y-1455861D01*
G01X-555690Y-1455812D01*
G01X-556652Y-1456967D01*
G01X-559731Y-1464664D01*
G01X-560501Y-1466781D01*
G01X-561271Y-1468705D01*
G01X-562040Y-1470437D01*
G01X-565119Y-1478134D01*
G01X-565889Y-1480251D01*
G01X-568198Y-1486023D01*
G01X-568968Y-1487755D01*
G01X-569545Y-1489294D01*
G01X-570122Y-1490641D01*
G01X-571277Y-1493720D01*
G01X-573586Y-1499493D01*
G01X-574355Y-1501609D01*
G01X-576665Y-1507382D01*
G01X-577434Y-1509114D01*
G01X-578974Y-1512962D01*
G01X-580128Y-1516041D01*
G01X-580898Y-1517965D01*
G01X-581668Y-1519697D01*
G01X-582052Y-1520034D01*
G01X-582437Y-1519890D01*
G01X-583207Y-1518158D01*
G01X-583784Y-1516041D01*
G01X-585709Y-1509307D01*
G01X-586093Y-1507767D01*
G01X-586671Y-1506035D01*
G01X-587055Y-1504496D01*
G01X-587440Y-1503149D01*
G01X-588018Y-1501417D01*
G01X-588402Y-1499685D01*
G01X-588980Y-1497761D01*
G01X-592059Y-1486985D01*
G01X-592636Y-1484869D01*
G01X-593790Y-1480828D01*
G01X-594560Y-1477749D01*
G01X-595715Y-1473901D01*
G01X-597254Y-1468512D01*
G01X-597639Y-1466973D01*
G01X-598216Y-1465241D01*
G01X-598793Y-1463317D01*
G01X-599178Y-1461585D01*
G01X-599755Y-1459854D01*
G01X-600333Y-1457737D01*
G01X-601102Y-1456197D01*
G01X-602594Y-1455764D01*
G01X-605913Y-1455620D01*
G01X-610146Y-1455620D01*
G01X-657098Y-1455620D01*
G01X-659407Y-1455043D01*
G01X-664602Y-1453888D01*
G01X-669990Y-1453504D01*
G01X-671722Y-1453311D01*
G01X-673454Y-1453504D01*
G01X-676533Y-1453696D01*
G01X-679804Y-1454081D01*
G01X-681728Y-1454465D01*
G01X-683460Y-1454658D01*
G01X-685192Y-1455235D01*
G01X-687116Y-1455812D01*
G01X-690195Y-1456967D01*
G01X-691542Y-1457544D01*
G01X-694621Y-1459084D01*
G01X-695968Y-1459854D01*
G01X-697507Y-1460815D01*
G01X-699239Y-1461970D01*
G01X-701163Y-1463317D01*
G01X-702510Y-1464472D01*
G01X-703472Y-1465241D01*
G01X-707321Y-1469090D01*
G01X-709245Y-1471399D01*
G01X-710015Y-1472361D01*
G01X-710784Y-1473708D01*
G01X-711939Y-1475440D01*
G01X-712901Y-1476979D01*
G01X-713671Y-1478326D01*
G01X-714633Y-1480058D01*
G01X-715595Y-1481982D01*
G01X-716172Y-1483522D01*
G01X-717327Y-1486985D01*
G01X-717904Y-1488525D01*
G01X-718289Y-1490257D01*
G01X-718481Y-1491604D01*
G01X-719251Y-1495067D01*
G01X-719636Y-1500840D01*
G01X-719828Y-1502764D01*
G01X-726755Y-1502764D01*
G01X-726755Y-1424063D01*
G01X-333440Y-1424063D01*
G01X-333440Y-1575308D01*
G37*
G36*
G01X-672107Y-1540287D02*
G01X-677302Y-1540094D01*
G01X-678457Y-1539902D01*
G01X-679996Y-1539709D01*
G01X-681728Y-1539325D01*
G01X-683652Y-1538747D01*
G01X-685384Y-1538170D01*
G01X-686924Y-1537593D01*
G01X-690002Y-1536054D01*
G01X-692696Y-1534514D01*
G01X-693851Y-1533744D01*
G01X-695390Y-1532590D01*
G01X-696737Y-1531243D01*
G01X-698662Y-1529704D01*
G01X-699624Y-1528741D01*
G01X-701933Y-1526047D01*
G01X-703472Y-1524123D01*
G01X-704242Y-1522969D01*
G01X-704819Y-1521814D01*
G01X-705589Y-1520467D01*
G01X-706359Y-1518928D01*
G01X-707128Y-1517196D01*
G01X-707898Y-1515272D01*
G01X-708475Y-1513540D01*
G01X-708860Y-1512001D01*
G01X-709245Y-1510076D01*
G01X-709630Y-1507575D01*
G01X-710015Y-1505843D01*
G01X-710207Y-1501417D01*
G01X-710015Y-1496991D01*
G01X-709630Y-1495067D01*
G01X-709245Y-1492758D01*
G01X-708860Y-1491026D01*
G01X-708090Y-1488332D01*
G01X-707513Y-1486793D01*
G01X-706743Y-1485061D01*
G01X-705012Y-1481597D01*
G01X-704434Y-1480635D01*
G01X-703472Y-1479288D01*
G01X-702510Y-1477749D01*
G01X-700971Y-1475825D01*
G01X-700009Y-1474862D01*
G01X-699046Y-1473708D01*
G01X-698084Y-1472746D01*
G01X-697122Y-1471976D01*
G01X-695775Y-1470822D01*
G01X-692312Y-1468512D01*
G01X-690772Y-1467551D01*
G01X-686539Y-1465434D01*
G01X-685384Y-1465049D01*
G01X-683845Y-1464472D01*
G01X-681921Y-1463894D01*
G01X-679612Y-1463317D01*
G01X-676533Y-1462740D01*
G01X-670568Y-1462547D01*
G01X-665757Y-1462740D01*
G01X-662293Y-1463509D01*
G01X-660754Y-1463894D01*
G01X-656136Y-1465626D01*
G01X-654596Y-1466396D01*
G01X-652865Y-1467358D01*
G01X-649786Y-1469282D01*
G01X-648054Y-1470437D01*
G01X-646707Y-1471591D01*
G01X-645552Y-1472746D01*
G01X-644205Y-1473901D01*
G01X-643243Y-1475055D01*
G01X-642281Y-1476017D01*
G01X-641127Y-1477364D01*
G01X-640165Y-1478904D01*
G01X-639202Y-1480251D01*
G01X-638240Y-1481982D01*
G01X-636701Y-1485061D01*
G01X-635931Y-1486793D01*
G01X-634777Y-1490257D01*
G01X-634007Y-1493720D01*
G01X-633622Y-1496222D01*
G01X-633430Y-1498531D01*
G01X-633237Y-1502379D01*
G01X-633430Y-1506228D01*
G01X-633622Y-1507959D01*
G01X-634007Y-1509884D01*
G01X-634392Y-1511423D01*
G01X-634584Y-1512770D01*
G01X-635162Y-1514309D01*
G01X-635739Y-1516041D01*
G01X-636316Y-1517388D01*
G01X-636893Y-1518543D01*
G01X-637471Y-1519890D01*
G01X-638433Y-1521622D01*
G01X-639395Y-1523161D01*
G01X-640165Y-1524315D01*
G01X-640934Y-1525278D01*
G01X-641896Y-1526625D01*
G01X-643051Y-1527972D01*
G01X-644013Y-1528934D01*
G01X-644494Y-1529319D01*
G01X-645168Y-1529319D01*
G01X-646322Y-1528357D01*
G01X-647092Y-1527202D01*
G01X-647862Y-1526240D01*
G01X-648824Y-1525278D01*
G01X-649593Y-1524315D01*
G01X-650171Y-1523354D01*
G01X-650940Y-1522391D01*
G01X-651902Y-1521429D01*
G01X-652672Y-1520467D01*
G01X-653249Y-1519505D01*
G01X-654019Y-1518543D01*
G01X-655174Y-1517004D01*
G01X-656328Y-1515657D01*
G01X-657098Y-1514694D01*
G01X-658252Y-1513155D01*
G01X-659792Y-1511231D01*
G01X-661139Y-1509884D01*
G01X-662293Y-1509307D01*
G01X-667296Y-1509114D01*
G01X-670616Y-1509258D01*
G01X-671722Y-1509691D01*
G01X-671145Y-1511038D01*
G01X-670183Y-1512385D01*
G01X-668643Y-1514309D01*
G01X-667681Y-1515272D01*
G01X-666912Y-1516234D01*
G01X-666334Y-1517196D01*
G01X-665565Y-1518158D01*
G01X-664410Y-1519697D01*
G01X-659792Y-1525470D01*
G01X-657483Y-1528549D01*
G01X-656328Y-1529896D01*
G01X-655559Y-1530858D01*
G01X-654404Y-1532397D01*
G01X-653249Y-1533744D01*
G01X-652672Y-1534707D01*
G01X-652768Y-1535236D01*
G01X-653442Y-1535669D01*
G01X-655174Y-1536631D01*
G01X-656713Y-1537401D01*
G01X-658252Y-1537978D01*
G01X-659984Y-1538555D01*
G01X-661524Y-1538940D01*
G01X-663448Y-1539325D01*
G01X-665949Y-1539902D01*
G01X-672107Y-1540287D01*
G37*
G54D11*
G01X-409448Y1511808D02*
G01X-370586Y1453642D01*
G01X-370586Y1511808D02*
G01X-409448Y1453642D01*
G01X-341884Y1511808D02*
G01X-341884Y1453642D01*
G01X-291084Y1511808D02*
G01X-313182Y1453642D01*
G01X-291084Y1511808D02*
G01X-268732Y1453642D01*
G01X-305054Y1472946D02*
G01X-277114Y1472946D01*
G01X-223520Y1511808D02*
G01X-229108Y1509014D01*
G01X-234696Y1503426D01*
G01X-237490Y1498092D01*
G01X-240030Y1489710D01*
G01X-240030Y1475740D01*
G01X-237490Y1467358D01*
G01X-234696Y1461770D01*
G01X-229108Y1456182D01*
G01X-223520Y1453642D01*
G01X-212344Y1453642D01*
G01X-206756Y1456182D01*
G01X-201168Y1461770D01*
G01X-198374Y1467358D01*
G01X-195580Y1475740D01*
G01X-195580Y1489710D01*
G01X-198374Y1498092D01*
G01X-201168Y1503426D01*
G01X-206756Y1509014D01*
G01X-212344Y1511808D01*
G01X-223520Y1511808D01*
G01X-166878Y1478534D02*
G01X-117094Y1478534D01*
G01X-88392Y1511808D02*
G01X-88392Y1453642D01*
G01X-88392Y1511808D02*
G01X-52324Y1511808D01*
G01X-88392Y1484122D02*
G01X-66294Y1484122D01*
G01X-88392Y1453642D02*
G01X-52324Y1453642D01*
G01X15240Y1503426D02*
G01X9652Y1509014D01*
G01X1270Y1511808D01*
G01X-9906Y1511808D01*
G01X-18288Y1509014D01*
G01X-23622Y1503426D01*
G01X-23622Y1498092D01*
G01X-21082Y1492504D01*
G01X-18288Y1489710D01*
G01X-12700Y1486916D01*
G01X4064Y1481328D01*
G01X9652Y1478534D01*
G01X12446Y1475740D01*
G01X15240Y1470152D01*
G01X15240Y1461770D01*
G01X9652Y1456182D01*
G01X1270Y1453642D01*
G01X-9906Y1453642D01*
G01X-18288Y1456182D01*
G01X-23622Y1461770D01*
G01X43942Y1511808D02*
G01X43942Y1453642D01*
G01X43942Y1511808D02*
G01X68834Y1511808D01*
G01X77216Y1509014D01*
G01X80010Y1506220D01*
G01X82804Y1500632D01*
G01X82804Y1492504D01*
G01X80010Y1486916D01*
G01X77216Y1484122D01*
G01X68834Y1481328D01*
G01X43942Y1481328D01*
G01X116840Y1511808D02*
G01X147574Y1511808D01*
G01X130810Y1489710D01*
G01X139192Y1489710D01*
G01X144780Y1486916D01*
G01X147574Y1484122D01*
G01X150368Y1475740D01*
G01X150368Y1470152D01*
G01X147574Y1461770D01*
G01X141986Y1456182D01*
G01X133604Y1453642D01*
G01X125222Y1453642D01*
G01X116840Y1456182D01*
G01X114046Y1458976D01*
G01X111506Y1464564D01*
G01X181610Y1498092D02*
G01X181610Y1500632D01*
G01X184404Y1506220D01*
G01X187198Y1509014D01*
G01X192786Y1511808D01*
G01X203962Y1511808D01*
G01X209550Y1509014D01*
G01X212344Y1506220D01*
G01X215138Y1500632D01*
G01X215138Y1495298D01*
G01X212344Y1489710D01*
G01X206756Y1481328D01*
G01X179070Y1453642D01*
G01X217932Y1453642D01*
G01X246634Y1478534D02*
G01X296418Y1478534D01*
G01X366776Y1498092D02*
G01X363982Y1503426D01*
G01X358394Y1509014D01*
G01X352806Y1511808D01*
G01X341630Y1511808D01*
G01X336042Y1509014D01*
G01X330454Y1503426D01*
G01X327660Y1498092D01*
G01X325120Y1489710D01*
G01X325120Y1475740D01*
G01X327660Y1467358D01*
G01X330454Y1461770D01*
G01X336042Y1456182D01*
G01X341630Y1453642D01*
G01X352806Y1453642D01*
G01X358394Y1456182D01*
G01X363982Y1461770D01*
G01X366776Y1467358D01*
G01X428752Y1503426D02*
G01X425958Y1509014D01*
G01X417576Y1511808D01*
G01X411988Y1511808D01*
G01X403606Y1509014D01*
G01X398018Y1500632D01*
G01X395478Y1486916D01*
G01X395478Y1472946D01*
G01X398018Y1461770D01*
G01X403606Y1456182D01*
G01X411988Y1453642D01*
G01X414782Y1453642D01*
G01X423164Y1456182D01*
G01X428752Y1461770D01*
G01X431546Y1470152D01*
G01X431546Y1472946D01*
G01X428752Y1481328D01*
G01X423164Y1486916D01*
G01X414782Y1489710D01*
G01X411988Y1489710D01*
G01X403606Y1486916D01*
G01X398018Y1481328D01*
G01X395478Y1472946D01*
G04 Text End*

G04 PolygonModel Start*
G54D10*
G01X-819074Y-2008353D02*
G01X-619074Y-2008353D01*
G01X-919074Y-1683194D02*
G01X-821985Y-1683194D01*
G01X-615757Y-1683194D02*
G01X-519074Y-1683194D01*
G01X-519074Y-1683194D02*
G01X-519074Y-1820233D01*
G01X-919074Y-1683194D02*
G01X-919074Y-1820233D01*
G54D11*
G01X-59921Y685579D02*
G01X85321Y685579D01*
G01X85321Y685579D02*
G01X85321Y788741D01*
G01X-59921Y990821D02*
G01X85321Y990821D01*
G01X85321Y990821D02*
G01X85321Y887659D01*
G01X-59921Y792660D02*
G01X-59921Y883740D01*
G01X-187940Y880821D02*
G01X-187940Y976709D01*
G01X-187940Y976709D02*
G01X-320060Y976709D01*
G01X-320060Y976709D02*
G01X-320060Y880821D01*
G01X-187940Y795579D02*
G01X-187940Y699691D01*
G01X-187940Y699691D02*
G01X-320060Y699691D01*
G01X-320060Y699691D02*
G01X-320060Y795579D01*
G01X325679Y802660D02*
G01X229791Y802660D01*
G01X229791Y802660D02*
G01X229791Y670540D01*
G01X229791Y670540D02*
G01X325679Y670540D01*
G01X410921Y802660D02*
G01X506809Y802660D01*
G01X506809Y802660D02*
G01X506809Y670540D01*
G01X506809Y670540D02*
G01X410921Y670540D01*
G01X410921Y855960D02*
G01X506809Y855960D01*
G01X506809Y855960D02*
G01X506809Y988080D01*
G01X506809Y988080D02*
G01X410921Y988080D01*
G01X325679Y855960D02*
G01X229791Y855960D01*
G01X229791Y855960D02*
G01X229791Y988080D01*
G01X229791Y988080D02*
G01X325679Y988080D01*
G54D10*
G01X342722Y-2008353D02*
G01X542722Y-2008353D01*
G01X242722Y-1683194D02*
G01X339811Y-1683194D01*
G01X546039Y-1683194D02*
G01X642722Y-1683194D01*
G01X642722Y-1683194D02*
G01X642722Y-1820233D01*
G01X242722Y-1683194D02*
G01X242722Y-1820233D01*
G01X-285069Y-2003392D02*
G01X12624Y-2003400D01*
G01X14938Y-1703385D02*
G01X139624Y-1703385D01*
G01X139624Y-1703385D02*
G01X139624Y-1814987D01*
G01X-291290Y-1703385D02*
G01X-411289Y-1703385D01*
G01X-411289Y-1703385D02*
G01X-418178Y-1703385D01*
G01X-418178Y-1703385D02*
G01X-418178Y-1820283D01*
G36*
G01X-55174Y-1977395D02*
G01X4823Y-1977387D01*
G01X-25174Y-1887395D01*
G01X-55174Y-1977395D01*
G37*
G01X340276Y1046643D02*
G01X260279Y1046643D01*
G01X396321Y1046597D02*
G01X476319Y1046597D01*
G01X340276Y1188611D02*
G01X260279Y1188611D01*
G01X396321Y1188563D02*
G01X476319Y1188563D01*
G01X229304Y1077625D02*
G01X229304Y1157630D01*
G01X507296Y1157577D02*
G01X507296Y1077575D01*
G01X476314Y1188563D02*
G02X507296Y1157577I0J-30983D01*
G01X507296Y1077580D02*
G02X476314Y1046597I-30983J0D01*
G01X260284Y1046643D02*
G02X229304Y1077625I3J30983D01*
G01X229304Y1157623D02*
G02X260284Y1188611I30983J5D01*
G54D12*
G01X-340220Y-767829D02*
G01X-720204Y-767829D01*
G01X-229984Y-577837D02*
G01X-229984Y-477761D01*
G01X-229984Y-477761D02*
G01X-320154Y-477761D01*
G01X-280022Y-477761D02*
G01X-280022Y-577837D01*
G01X-280022Y-577837D02*
G01X-280022Y-477761D01*
G01X-280022Y-537705D02*
G01X-229984Y-537705D01*
G01X-229984Y-537705D02*
G01X-280022Y-537705D01*
G01X-830186Y-577837D02*
G01X-830186Y-477761D01*
G01X-830186Y-477761D02*
G01X-740016Y-477761D01*
G01X-780148Y-477761D02*
G01X-780148Y-577837D01*
G01X-780148Y-577837D02*
G01X-780148Y-477761D01*
G01X-780148Y-537705D02*
G01X-830186Y-537705D01*
G01X-830186Y-537705D02*
G01X-780148Y-537705D01*
G01X-340220Y-677659D02*
G01X-340220Y-727697D01*
G01X-340220Y-727697D02*
G01X-720204Y-727697D01*
G01X-720204Y-727697D02*
G01X-720204Y-677659D01*
G01X-340220Y-617715D02*
G01X-340220Y-552691D01*
G01X-340220Y-552691D02*
G01X-720204Y-552691D01*
G01X-720204Y-552691D02*
G01X-720204Y-617715D01*
G01X-380098Y-677659D02*
G01X-380098Y-657847D01*
G01X-480174Y-677659D02*
G01X-480174Y-657847D01*
G01X-579996Y-677659D02*
G01X-579996Y-657847D01*
G01X-680072Y-677659D02*
G01X-680072Y-657847D01*
G54D13*
G01X-244843Y-446443D02*
G03X-239770Y-446581I2540J50D01*
G03X-244808Y-445969I-2533J188D01*
G54D12*
G01X443878Y-767829D02*
G01X63894Y-767829D01*
G01X554114Y-577837D02*
G01X554114Y-477761D01*
G01X554114Y-477761D02*
G01X463944Y-477761D01*
G01X504076Y-477761D02*
G01X504076Y-577837D01*
G01X504076Y-577837D02*
G01X504076Y-477761D01*
G01X504076Y-537705D02*
G01X554114Y-537705D01*
G01X554114Y-537705D02*
G01X504076Y-537705D01*
G01X-46088Y-577837D02*
G01X-46088Y-477761D01*
G01X-46088Y-477761D02*
G01X44082Y-477761D01*
G01X3950Y-477761D02*
G01X3950Y-577837D01*
G01X3950Y-577837D02*
G01X3950Y-477761D01*
G01X3950Y-537705D02*
G01X-46088Y-537705D01*
G01X-46088Y-537705D02*
G01X3950Y-537705D01*
G01X443878Y-677659D02*
G01X443878Y-727697D01*
G01X443878Y-727697D02*
G01X63894Y-727697D01*
G01X63894Y-727697D02*
G01X63894Y-677659D01*
G01X443878Y-617715D02*
G01X443878Y-552691D01*
G01X443878Y-552691D02*
G01X63894Y-552691D01*
G01X63894Y-552691D02*
G01X63894Y-617715D01*
G01X404000Y-677659D02*
G01X404000Y-657847D01*
G01X303924Y-677659D02*
G01X303924Y-657847D01*
G01X204102Y-677659D02*
G01X204102Y-657847D01*
G01X104026Y-677659D02*
G01X104026Y-657847D01*
G54D13*
G01X539255Y-446443D02*
G03X544328Y-446581I2540J50D01*
G03X539290Y-445969I-2533J188D01*
G54D12*
G01X443878Y-1382763D02*
G01X63894Y-1382763D01*
G01X554114Y-1192771D02*
G01X554114Y-1092695D01*
G01X554114Y-1092695D02*
G01X463944Y-1092695D01*
G01X504076Y-1092695D02*
G01X504076Y-1192771D01*
G01X504076Y-1192771D02*
G01X504076Y-1092695D01*
G01X504076Y-1152639D02*
G01X554114Y-1152639D01*
G01X554114Y-1152639D02*
G01X504076Y-1152639D01*
G01X-46088Y-1192771D02*
G01X-46088Y-1092695D01*
G01X-46088Y-1092695D02*
G01X44082Y-1092695D01*
G01X3950Y-1092695D02*
G01X3950Y-1192771D01*
G01X3950Y-1192771D02*
G01X3950Y-1092695D01*
G01X3950Y-1152639D02*
G01X-46088Y-1152639D01*
G01X-46088Y-1152639D02*
G01X3950Y-1152639D01*
G01X443878Y-1292593D02*
G01X443878Y-1342631D01*
G01X443878Y-1342631D02*
G01X63894Y-1342631D01*
G01X63894Y-1342631D02*
G01X63894Y-1292593D01*
G01X443878Y-1232649D02*
G01X443878Y-1167625D01*
G01X443878Y-1167625D02*
G01X63894Y-1167625D01*
G01X63894Y-1167625D02*
G01X63894Y-1232649D01*
G01X404000Y-1292593D02*
G01X404000Y-1272781D01*
G01X303924Y-1292593D02*
G01X303924Y-1272781D01*
G01X204102Y-1292593D02*
G01X204102Y-1272781D01*
G01X104026Y-1292593D02*
G01X104026Y-1272781D01*
G54D13*
G01X539255Y-1061377D02*
G03X544328Y-1061515I2540J50D01*
G03X539290Y-1060903I-2533J188D01*
G54D12*
G01X-340220Y-1382763D02*
G01X-720204Y-1382763D01*
G01X-229984Y-1192771D02*
G01X-229984Y-1092695D01*
G01X-229984Y-1092695D02*
G01X-320154Y-1092695D01*
G01X-280022Y-1092695D02*
G01X-280022Y-1192771D01*
G01X-280022Y-1192771D02*
G01X-280022Y-1092695D01*
G01X-280022Y-1152639D02*
G01X-229984Y-1152639D01*
G01X-229984Y-1152639D02*
G01X-280022Y-1152639D01*
G01X-830186Y-1192771D02*
G01X-830186Y-1092695D01*
G01X-830186Y-1092695D02*
G01X-740016Y-1092695D01*
G01X-780148Y-1092695D02*
G01X-780148Y-1192771D01*
G01X-780148Y-1192771D02*
G01X-780148Y-1092695D01*
G01X-780148Y-1152639D02*
G01X-830186Y-1152639D01*
G01X-830186Y-1152639D02*
G01X-780148Y-1152639D01*
G01X-340220Y-1292593D02*
G01X-340220Y-1342631D01*
G01X-340220Y-1342631D02*
G01X-720204Y-1342631D01*
G01X-720204Y-1342631D02*
G01X-720204Y-1292593D01*
G01X-340220Y-1232649D02*
G01X-340220Y-1167625D01*
G01X-340220Y-1167625D02*
G01X-720204Y-1167625D01*
G01X-720204Y-1167625D02*
G01X-720204Y-1232649D01*
G01X-380098Y-1292593D02*
G01X-380098Y-1272781D01*
G01X-480174Y-1292593D02*
G01X-480174Y-1272781D01*
G01X-579996Y-1292593D02*
G01X-579996Y-1272781D01*
G01X-680072Y-1292593D02*
G01X-680072Y-1272781D01*
G54D13*
G01X-244843Y-1061377D02*
G03X-239770Y-1061515I2540J50D01*
G03X-244808Y-1060903I-2533J188D01*
G54D14*
G01X-876936Y7176D02*
G01X-876936Y1721676D01*
G01X-876936Y1721676D02*
G02X-686436Y1912176I190500J-0D01*
G01X-686436Y-183324D02*
G02X-876936Y7176I0J190500D01*
G01X-437437Y1912176D02*
G01X-437064Y2013203D01*
G01X-437064Y2013203D02*
G02X-387063Y2063176I50002J-29D01*
G54D15*
G01X710564Y1912176D02*
G01X-686436Y1912176D01*
G54D14*
G01X710564Y1912176D02*
G01X-686436Y1912176D01*
G01X-686436Y-183324D02*
G01X710564Y-183324D01*
G01X-387063Y2063176D02*
G01X412463Y2063176D01*
G01X412463Y2063176D02*
G02X462464Y2013176I0J-50000D01*
G01X462464Y2013176D02*
G01X462464Y1912176D01*
G01X901064Y7176D02*
G02X710564Y-183324I-190500J0D01*
G01X710564Y1912176D02*
G02X901064Y1721676I-0J-190500D01*
G01X901064Y7176D02*
G01X901064Y1721676D01*
G54D16*
G01X24999Y1725864D02*
G01X10000Y1725864D01*
G01X10000Y1725864D02*
G01X10000Y1865861D01*
G01X10000Y1865861D02*
G01X10000Y1870860D01*
G01X10000Y1870860D02*
G01X24999Y1870860D01*
G01X24999Y1725864D02*
G01X24999Y1870862D01*
G54D10*
G01X130000Y1685862D02*
G01X130000Y1687045D01*
G54D16*
G01X-100000Y1690860D02*
G01X100000Y1690860D01*
G01X100000Y1910860D02*
G01X-100000Y1910860D01*
G54D11*
G01X-389585Y1910608D02*
G01X-485473Y1910608D01*
G01X-485473Y1910608D02*
G01X-485473Y1778488D01*
G01X-485473Y1778488D02*
G01X-389585Y1778488D01*
G01X-304343Y1910608D02*
G01X-208455Y1910608D01*
G01X-208455Y1910608D02*
G01X-208455Y1778488D01*
G01X-208455Y1778488D02*
G01X-304343Y1778488D01*
G54D10*
G01X212253Y1809067D02*
G01X212253Y1889064D01*
G01X212207Y1753022D02*
G01X212207Y1673024D01*
G01X354221Y1809067D02*
G01X354221Y1889064D01*
G01X354173Y1753022D02*
G01X354173Y1673024D01*
G01X243235Y1920039D02*
G01X323240Y1920039D01*
G01X323187Y1642047D02*
G01X243185Y1642047D01*
G01X354173Y1673029D02*
G02X323187Y1642047I-30983J0D01*
G01X243190Y1642047D02*
G02X212207Y1673029I0J30983D01*
G01X212253Y1889059D02*
G02X243235Y1920039I30983J-3D01*
G01X323233Y1920039D02*
G02X354221Y1889059I5J-30983D01*

G04 Circle Start*
G01X-1490000Y2044700D02*
G03X-1050000Y2044700I220000J0D01*
G03X-1490000Y2044700I-220000J0D01*
G01X1050000Y2044700D02*
G03X1490000Y2044700I220000J0D01*
G03X1050000Y2044700I-220000J0D01*
G01X-1490000Y-2514600D02*
G03X-1050000Y-2514600I220000J0D01*
G03X-1490000Y-2514600I-220000J0D01*
G01X1050000Y-2514600D02*
G03X1490000Y-2514600I220000J0D01*
G03X1050000Y-2514600I-220000J0D01*
G01X-602341Y-1624353D02*
G03X-571810Y-1624353I15265J0D01*
G03X-602341Y-1624353I-15265J0D01*
G01X559455Y-1624353D02*
G03X589986Y-1624353I15265J0D01*
G03X559455Y-1624353I-15265J0D01*
G54D18*
G01X-794037Y1800076D02*
G03X-743237Y1800076I25400J0D01*
G03X-794037Y1800076I-25400J0D01*
G04 Circle End*

M02*

